<?xml version="1.0" encoding="UTF-8" standalone="no"?>
<!-- Created with Inkscape (http://www.inkscape.org/) -->

<svg
   width="210mm"
   height="297mm"
   viewBox="0 0 210 297"
   version="1.1"
   id="svg5"
   inkscape:version="1.1 (c68e22c387, 2021-05-23)"
   sodipodi:docname="carga_paga.svg"
   xmlns:inkscape="http://www.inkscape.org/namespaces/inkscape"
   xmlns:sodipodi="http://sodipodi.sourceforge.net/DTD/sodipodi-0.dtd"
   xmlns:xlink="http://www.w3.org/1999/xlink"
   xmlns="http://www.w3.org/2000/svg"
   xmlns:svg="http://www.w3.org/2000/svg">
  <sodipodi:namedview
     id="namedview7"
     pagecolor="#ffffff"
     bordercolor="#666666"
     borderopacity="1.0"
     inkscape:pageshadow="2"
     inkscape:pageopacity="0.0"
     inkscape:pagecheckerboard="0"
     inkscape:document-units="mm"
     showgrid="false"
     inkscape:zoom="1.9704153"
     inkscape:cx="423.26102"
     inkscape:cy="458.78652"
     inkscape:window-width="1920"
     inkscape:window-height="986"
     inkscape:window-x="-11"
     inkscape:window-y="-11"
     inkscape:window-maximized="1"
     inkscape:current-layer="layer1" />
  <defs
     id="defs2">
    <style
       type="text/css"
       id="style826">*{stroke-linecap:butt;stroke-linejoin:round;}</style>
    <path
       d="M 0 0  L 0 3.5  "
       id="m0416448d60"
       style="stroke:#000000;stroke-width:0.8;" />
    <path
       d="M 2034 4250  Q 1547 4250 1301 3770  Q 1056 3291 1056 2328  Q 1056 1369 1301 889  Q 1547 409 2034 409  Q 2525 409 2770 889  Q 3016 1369 3016 2328  Q 3016 3291 2770 3770  Q 2525 4250 2034 4250  z M 2034 4750  Q 2819 4750 3233 4129  Q 3647 3509 3647 2328  Q 3647 1150 3233 529  Q 2819 -91 2034 -91  Q 1250 -91 836 529  Q 422 1150 422 2328  Q 422 3509 836 4129  Q 1250 4750 2034 4750  z "
       id="DejaVuSans-30"
       transform="scale(0.015625)" />
    <path
       d="M 1228 531  L 3431 531  L 3431 0  L 469 0  L 469 531  Q 828 903 1448 1529  Q 2069 2156 2228 2338  Q 2531 2678 2651 2914  Q 2772 3150 2772 3378  Q 2772 3750 2511 3984  Q 2250 4219 1831 4219  Q 1534 4219 1204 4116  Q 875 4013 500 3803  L 500 4441  Q 881 4594 1212 4672  Q 1544 4750 1819 4750  Q 2544 4750 2975 4387  Q 3406 4025 3406 3419  Q 3406 3131 3298 2873  Q 3191 2616 2906 2266  Q 2828 2175 2409 1742  Q 1991 1309 1228 531  z "
       id="DejaVuSans-32"
       transform="scale(0.015625)" />
    <path
       d="M 2419 4116  L 825 1625  L 2419 1625  L 2419 4116  z M 2253 4666  L 3047 4666  L 3047 1625  L 3713 1625  L 3713 1100  L 3047 1100  L 3047 0  L 2419 0  L 2419 1100  L 313 1100  L 313 1709  L 2253 4666  z "
       id="DejaVuSans-34"
       transform="scale(0.015625)" />
    <path
       d="M 2113 2584  Q 1688 2584 1439 2293  Q 1191 2003 1191 1497  Q 1191 994 1439 701  Q 1688 409 2113 409  Q 2538 409 2786 701  Q 3034 994 3034 1497  Q 3034 2003 2786 2293  Q 2538 2584 2113 2584  z M 3366 4563  L 3366 3988  Q 3128 4100 2886 4159  Q 2644 4219 2406 4219  Q 1781 4219 1451 3797  Q 1122 3375 1075 2522  Q 1259 2794 1537 2939  Q 1816 3084 2150 3084  Q 2853 3084 3261 2657  Q 3669 2231 3669 1497  Q 3669 778 3244 343  Q 2819 -91 2113 -91  Q 1303 -91 875 529  Q 447 1150 447 2328  Q 447 3434 972 4092  Q 1497 4750 2381 4750  Q 2619 4750 2861 4703  Q 3103 4656 3366 4563  z "
       id="DejaVuSans-36"
       transform="scale(0.015625)" />
    <path
       d="M 2034 2216  Q 1584 2216 1326 1975  Q 1069 1734 1069 1313  Q 1069 891 1326 650  Q 1584 409 2034 409  Q 2484 409 2743 651  Q 3003 894 3003 1313  Q 3003 1734 2745 1975  Q 2488 2216 2034 2216  z M 1403 2484  Q 997 2584 770 2862  Q 544 3141 544 3541  Q 544 4100 942 4425  Q 1341 4750 2034 4750  Q 2731 4750 3128 4425  Q 3525 4100 3525 3541  Q 3525 3141 3298 2862  Q 3072 2584 2669 2484  Q 3125 2378 3379 2068  Q 3634 1759 3634 1313  Q 3634 634 3220 271  Q 2806 -91 2034 -91  Q 1263 -91 848 271  Q 434 634 434 1313  Q 434 1759 690 2068  Q 947 2378 1403 2484  z M 1172 3481  Q 1172 3119 1398 2916  Q 1625 2713 2034 2713  Q 2441 2713 2670 2916  Q 2900 3119 2900 3481  Q 2900 3844 2670 4047  Q 2441 4250 2034 4250  Q 1625 4250 1398 4047  Q 1172 3844 1172 3481  z "
       id="DejaVuSans-38"
       transform="scale(0.015625)" />
    <path
       d="M 3513 3500  L 2247 1797  L 3578 0  L 2900 0  L 1881 1375  L 863 0  L 184 0  L 1544 1831  L 300 3500  L 978 3500  L 1906 2253  L 2834 3500  L 3513 3500  z "
       id="DejaVuSans-78"
       transform="scale(0.015625)" />
    <path
       id="DejaVuSans-20"
       transform="scale(0.015625)" />
    <path
       d="M 550 4863  L 1875 4863  L 1875 4416  L 1125 4416  L 1125 -397  L 1875 -397  L 1875 -844  L 550 -844  L 550 4863  z "
       id="DejaVuSans-5b"
       transform="scale(0.015625)" />
    <path
       d="M 581 4863  L 1159 4863  L 1159 1991  L 2875 3500  L 3609 3500  L 1753 1863  L 3688 0  L 2938 0  L 1159 1709  L 1159 0  L 581 0  L 581 4863  z "
       id="DejaVuSans-6b"
       transform="scale(0.015625)" />
    <path
       d="M 3328 2828  Q 3544 3216 3844 3400  Q 4144 3584 4550 3584  Q 5097 3584 5394 3201  Q 5691 2819 5691 2113  L 5691 0  L 5113 0  L 5113 2094  Q 5113 2597 4934 2840  Q 4756 3084 4391 3084  Q 3944 3084 3684 2787  Q 3425 2491 3425 1978  L 3425 0  L 2847 0  L 2847 2094  Q 2847 2600 2669 2842  Q 2491 3084 2119 3084  Q 1678 3084 1418 2786  Q 1159 2488 1159 1978  L 1159 0  L 581 0  L 581 3500  L 1159 3500  L 1159 2956  Q 1356 3278 1631 3431  Q 1906 3584 2284 3584  Q 2666 3584 2933 3390  Q 3200 3197 3328 2828  z "
       id="DejaVuSans-6d"
       transform="scale(0.015625)" />
    <path
       d="M 1947 4863  L 1947 -844  L 622 -844  L 622 -397  L 1369 -397  L 1369 4416  L 622 4416  L 622 4863  L 1947 4863  z "
       id="DejaVuSans-5d"
       transform="scale(0.015625)" />
    <path
       d="M 0 0  L -3.5 0  "
       id="mc8476dc7f8"
       style="stroke:#000000;stroke-width:0.8;" />
    <path
       d="M 1259 4147  L 1259 2394  L 2053 2394  Q 2494 2394 2734 2622  Q 2975 2850 2975 3272  Q 2975 3691 2734 3919  Q 2494 4147 2053 4147  L 1259 4147  z M 628 4666  L 2053 4666  Q 2838 4666 3239 4311  Q 3641 3956 3641 3272  Q 3641 2581 3239 2228  Q 2838 1875 2053 1875  L 1259 1875  L 1259 0  L 628 0  L 628 4666  z "
       id="DejaVuSans-50"
       transform="scale(0.015625)" />
    <path
       d="M 2194 1759  Q 1497 1759 1228 1600  Q 959 1441 959 1056  Q 959 750 1161 570  Q 1363 391 1709 391  Q 2188 391 2477 730  Q 2766 1069 2766 1631  L 2766 1759  L 2194 1759  z M 3341 1997  L 3341 0  L 2766 0  L 2766 531  Q 2569 213 2275 61  Q 1981 -91 1556 -91  Q 1019 -91 701 211  Q 384 513 384 1019  Q 384 1609 779 1909  Q 1175 2209 1959 2209  L 2766 2209  L 2766 2266  Q 2766 2663 2505 2880  Q 2244 3097 1772 3097  Q 1472 3097 1187 3025  Q 903 2953 641 2809  L 641 3341  Q 956 3463 1253 3523  Q 1550 3584 1831 3584  Q 2591 3584 2966 3190  Q 3341 2797 3341 1997  z "
       id="DejaVuSans-61"
       transform="scale(0.015625)" />
    <path
       d="M 2059 -325  Q 1816 -950 1584 -1140  Q 1353 -1331 966 -1331  L 506 -1331  L 506 -850  L 844 -850  Q 1081 -850 1212 -737  Q 1344 -625 1503 -206  L 1606 56  L 191 3500  L 800 3500  L 1894 763  L 2988 3500  L 3597 3500  L 2059 -325  z "
       id="DejaVuSans-79"
       transform="scale(0.015625)" />
    <path
       d="M 603 4863  L 1178 4863  L 1178 0  L 603 0  L 603 4863  z "
       id="DejaVuSans-6c"
       transform="scale(0.015625)" />
    <path
       d="M 1959 3097  Q 1497 3097 1228 2736  Q 959 2375 959 1747  Q 959 1119 1226 758  Q 1494 397 1959 397  Q 2419 397 2687 759  Q 2956 1122 2956 1747  Q 2956 2369 2687 2733  Q 2419 3097 1959 3097  z M 1959 3584  Q 2709 3584 3137 3096  Q 3566 2609 3566 1747  Q 3566 888 3137 398  Q 2709 -91 1959 -91  Q 1206 -91 779 398  Q 353 888 353 1747  Q 353 2609 779 3096  Q 1206 3584 1959 3584  z "
       id="DejaVuSans-6f"
       transform="scale(0.015625)" />
    <path
       d="M 2906 2969  L 2906 4863  L 3481 4863  L 3481 0  L 2906 0  L 2906 525  Q 2725 213 2448 61  Q 2172 -91 1784 -91  Q 1150 -91 751 415  Q 353 922 353 1747  Q 353 2572 751 3078  Q 1150 3584 1784 3584  Q 2172 3584 2448 3432  Q 2725 3281 2906 2969  z M 947 1747  Q 947 1113 1208 752  Q 1469 391 1925 391  Q 2381 391 2643 752  Q 2906 1113 2906 1747  Q 2906 2381 2643 2742  Q 2381 3103 1925 3103  Q 1469 3103 1208 2742  Q 947 2381 947 1747  z "
       id="DejaVuSans-64"
       transform="scale(0.015625)" />
    <path
       d="M 2906 1791  Q 2906 2416 2648 2759  Q 2391 3103 1925 3103  Q 1463 3103 1205 2759  Q 947 2416 947 1791  Q 947 1169 1205 825  Q 1463 481 1925 481  Q 2391 481 2648 825  Q 2906 1169 2906 1791  z M 3481 434  Q 3481 -459 3084 -895  Q 2688 -1331 1869 -1331  Q 1566 -1331 1297 -1286  Q 1028 -1241 775 -1147  L 775 -588  Q 1028 -725 1275 -790  Q 1522 -856 1778 -856  Q 2344 -856 2625 -561  Q 2906 -266 2906 331  L 2906 616  Q 2728 306 2450 153  Q 2172 0 1784 0  Q 1141 0 747 490  Q 353 981 353 1791  Q 353 2603 747 3093  Q 1141 3584 1784 3584  Q 2172 3584 2450 3431  Q 2728 3278 2906 2969  L 2906 3500  L 3481 3500  L 3481 434  z "
       id="DejaVuSans-67"
       transform="scale(0.015625)" />
    <path
       d="M 0 3  C 0.795609 3 1.55874 2.683901 2.12132 2.12132  C 2.683901 1.55874 3 0.795609 3 0  C 3 -0.795609 2.683901 -1.55874 2.12132 -2.12132  C 1.55874 -2.683901 0.795609 -3 0 -3  C -0.795609 -3 -1.55874 -2.683901 -2.12132 -2.12132  C -2.683901 -1.55874 -3 -0.795609 -3 0  C -3 0.795609 -2.683901 1.55874 -2.12132 2.12132  C -1.55874 2.683901 -0.795609 3 0 3  z "
       id="md856c0ea32"
       style="stroke:#000000;" />
    <path
       d="M 628 4666  L 1569 4666  L 2759 1491  L 3956 4666  L 4897 4666  L 4897 0  L 4281 0  L 4281 4097  L 3078 897  L 2444 897  L 1241 4097  L 1241 0  L 628 0  L 628 4666  z "
       id="DejaVuSans-4d"
       transform="scale(0.015625)" />
    <path
       d="M 678 2906  L 4684 2906  L 4684 2381  L 678 2381  L 678 2906  z M 678 1631  L 4684 1631  L 4684 1100  L 678 1100  L 678 1631  z "
       id="DejaVuSans-3d"
       transform="scale(0.015625)" />
    <path
       d="M 684 794  L 1344 794  L 1344 0  L 684 0  L 684 794  z "
       id="DejaVuSans-2e"
       transform="scale(0.015625)" />
    <path
       d="M 525 4666  L 3525 4666  L 3525 4397  L 1831 0  L 1172 0  L 2766 4134  L 525 4134  L 525 4666  z "
       id="DejaVuSans-37"
       transform="scale(0.015625)" />
    <path
       d="M 3513 2113  L 3513 0  L 2938 0  L 2938 2094  Q 2938 2591 2744 2837  Q 2550 3084 2163 3084  Q 1697 3084 1428 2787  Q 1159 2491 1159 1978  L 1159 0  L 581 0  L 581 4863  L 1159 4863  L 1159 2956  Q 1366 3272 1645 3428  Q 1925 3584 2291 3584  Q 2894 3584 3203 3211  Q 3513 2838 3513 2113  z "
       id="DejaVuSans-68"
       transform="scale(0.015625)" />
    <path
       d="M 794 531  L 1825 531  L 1825 4091  L 703 3866  L 703 4441  L 1819 4666  L 2450 4666  L 2450 531  L 3481 531  L 3481 0  L 794 0  L 794 531  z "
       id="DejaVuSans-31"
       transform="scale(0.015625)" />
    <clipPath
       id="p2189a8291b">
      <rect
         height="266.112"
         width="357.12"
         x="57.6"
         y="41.472"
         id="rect1163" />
    </clipPath>
  </defs>
  <g
     inkscape:label="Camada 1"
     inkscape:groupmode="layer"
     id="layer1">
    <g
       id="figure_1"
       transform="matrix(0.35277778,0,0,0.35277778,35.696982,62.473503)">
      <g
         id="patch_1">
        <path
           d="M 0,345.6 H 460.8 V 0 H 0 Z"
           style="fill:#ffffff"
           id="path830" />
      </g>
      <g
         id="axes_1">
        <g
           id="patch_2">
          <path
             d="M 57.6,307.584 H 414.72 V 41.472 H 57.6 Z"
             style="fill:#ffffff"
             id="path833" />
        </g>
        <g
           id="matplotlib.axis_1">
          <g
             id="xtick_1">
            <g
               id="line2d_1">
              <defs
                 id="defs837">
                <path
                   d="M 0,0 V 3.5"
                   id="path1206"
                   style="stroke:#000000;stroke-width:0.8" />
              </defs>
              <g
                 id="g841">
                <use
                   style="stroke:#000000;stroke-width:0.8"
                   x="73.832726"
                   xlink:href="#m0416448d60"
                   y="307.58401"
                   id="use839"
                   width="100%"
                   height="100%" />
              </g>
            </g>
            <g
               id="text_1">
              <!-- 0 -->
              <g
                 transform="matrix(0.1,0,0,-0.1,70.651477,322.18244)"
                 id="g849">
                <defs
                   id="defs845">
                  <path
                     d="m 2034,4250 q -487,0 -733,-480 -245,-479 -245,-1442 0,-959 245,-1439 246,-480 733,-480 491,0 736,480 246,480 246,1439 0,963 -246,1442 -245,480 -736,480 z m 0,500 q 785,0 1199,-621 414,-620 414,-1801 0,-1178 -414,-1799 -414,-620 -1199,-620 -784,0 -1198,620 -414,621 -414,1799 0,1181 414,1801 414,621 1198,621 z"
                     id="path1212"
                     transform="scale(0.015625)" />
                </defs>
                <use
                   xlink:href="#DejaVuSans-30"
                   id="use847"
                   x="0"
                   y="0"
                   width="100%"
                   height="100%" />
              </g>
            </g>
          </g>
          <g
             id="xtick_2">
            <g
               id="line2d_2">
              <g
                 id="g855">
                <use
                   style="stroke:#000000;stroke-width:0.8"
                   x="146.14946"
                   xlink:href="#m0416448d60"
                   y="307.58401"
                   id="use853"
                   width="100%"
                   height="100%" />
              </g>
            </g>
            <g
               id="text_2">
              <!-- 2000 -->
              <g
                 transform="matrix(0.1,0,0,-0.1,133.42447,322.18244)"
                 id="g869">
                <defs
                   id="defs859">
                  <path
                     d="M 1228,531 H 3431 V 0 H 469 v 531 q 359,372 979,998 621,627 780,809 303,340 423,576 121,236 121,464 0,372 -261,606 -261,235 -680,235 -297,0 -627,-103 -329,-103 -704,-313 v 638 q 381,153 712,231 332,78 607,78 725,0 1156,-363 431,-362 431,-968 0,-288 -108,-546 -107,-257 -392,-607 -78,-91 -497,-524 Q 1991,1309 1228,531 Z"
                     id="path1222"
                     transform="scale(0.015625)" />
                </defs>
                <use
                   xlink:href="#DejaVuSans-32"
                   id="use861"
                   x="0"
                   y="0"
                   width="100%"
                   height="100%" />
                <use
                   x="63.623047"
                   xlink:href="#DejaVuSans-30"
                   id="use863"
                   y="0"
                   width="100%"
                   height="100%" />
                <use
                   x="127.24609"
                   xlink:href="#DejaVuSans-30"
                   id="use865"
                   y="0"
                   width="100%"
                   height="100%" />
                <use
                   x="190.86914"
                   xlink:href="#DejaVuSans-30"
                   id="use867"
                   y="0"
                   width="100%"
                   height="100%" />
              </g>
            </g>
          </g>
          <g
             id="xtick_3">
            <g
               id="line2d_3">
              <g
                 id="g875">
                <use
                   style="stroke:#000000;stroke-width:0.8"
                   x="218.4662"
                   xlink:href="#m0416448d60"
                   y="307.58401"
                   id="use873"
                   width="100%"
                   height="100%" />
              </g>
            </g>
            <g
               id="text_3">
              <!-- 4000 -->
              <g
                 transform="matrix(0.1,0,0,-0.1,205.74121,322.18244)"
                 id="g889">
                <defs
                   id="defs879">
                  <path
                     d="M 2419,4116 825,1625 h 1594 z m -166,550 h 794 V 1625 h 666 V 1100 H 3047 V 0 H 2419 V 1100 H 313 v 609 z"
                     id="path1235"
                     transform="scale(0.015625)" />
                </defs>
                <use
                   xlink:href="#DejaVuSans-34"
                   id="use881"
                   x="0"
                   y="0"
                   width="100%"
                   height="100%" />
                <use
                   x="63.623047"
                   xlink:href="#DejaVuSans-30"
                   id="use883"
                   y="0"
                   width="100%"
                   height="100%" />
                <use
                   x="127.24609"
                   xlink:href="#DejaVuSans-30"
                   id="use885"
                   y="0"
                   width="100%"
                   height="100%" />
                <use
                   x="190.86914"
                   xlink:href="#DejaVuSans-30"
                   id="use887"
                   y="0"
                   width="100%"
                   height="100%" />
              </g>
            </g>
          </g>
          <g
             id="xtick_4">
            <g
               id="line2d_4">
              <g
                 id="g895">
                <use
                   style="stroke:#000000;stroke-width:0.8"
                   x="290.78296"
                   xlink:href="#m0416448d60"
                   y="307.58401"
                   id="use893"
                   width="100%"
                   height="100%" />
              </g>
            </g>
            <g
               id="text_4">
              <!-- 6000 -->
              <g
                 transform="matrix(0.1,0,0,-0.1,278.05795,322.18244)"
                 id="g909">
                <defs
                   id="defs899">
                  <path
                     d="m 2113,2584 q -425,0 -674,-291 -248,-290 -248,-796 0,-503 248,-796 249,-292 674,-292 425,0 673,292 248,293 248,796 0,506 -248,796 -248,291 -673,291 z m 1253,1979 v -575 q -238,112 -480,171 -242,60 -480,60 -625,0 -955,-422 -329,-422 -376,-1275 184,272 462,417 279,145 613,145 703,0 1111,-427 408,-426 408,-1160 0,-719 -425,-1154 -425,-434 -1131,-434 -810,0 -1238,620 -428,621 -428,1799 0,1106 525,1764 525,658 1409,658 238,0 480,-47 242,-47 505,-140 z"
                     id="path1248"
                     transform="scale(0.015625)" />
                </defs>
                <use
                   xlink:href="#DejaVuSans-36"
                   id="use901"
                   x="0"
                   y="0"
                   width="100%"
                   height="100%" />
                <use
                   x="63.623047"
                   xlink:href="#DejaVuSans-30"
                   id="use903"
                   y="0"
                   width="100%"
                   height="100%" />
                <use
                   x="127.24609"
                   xlink:href="#DejaVuSans-30"
                   id="use905"
                   y="0"
                   width="100%"
                   height="100%" />
                <use
                   x="190.86914"
                   xlink:href="#DejaVuSans-30"
                   id="use907"
                   y="0"
                   width="100%"
                   height="100%" />
              </g>
            </g>
          </g>
          <g
             id="xtick_5">
            <g
               id="line2d_5">
              <g
                 id="g915">
                <use
                   style="stroke:#000000;stroke-width:0.8"
                   x="363.0997"
                   xlink:href="#m0416448d60"
                   y="307.58401"
                   id="use913"
                   width="100%"
                   height="100%" />
              </g>
            </g>
            <g
               id="text_5">
              <!-- 8000 -->
              <g
                 transform="matrix(0.1,0,0,-0.1,350.37469,322.18244)"
                 id="g929">
                <defs
                   id="defs919">
                  <path
                     d="m 2034,2216 q -450,0 -708,-241 -257,-241 -257,-662 0,-422 257,-663 258,-241 708,-241 450,0 709,242 260,243 260,662 0,421 -258,662 -257,241 -711,241 z m -631,268 q -406,100 -633,378 -226,279 -226,679 0,559 398,884 399,325 1092,325 697,0 1094,-325 397,-325 397,-884 0,-400 -227,-679 -226,-278 -629,-378 456,-106 710,-416 255,-309 255,-755 Q 3634,634 3220,271 2806,-91 2034,-91 1263,-91 848,271 434,634 434,1313 q 0,446 256,755 257,310 713,416 z m -231,997 q 0,-362 226,-565 227,-203 636,-203 407,0 636,203 230,203 230,565 0,363 -230,566 -229,203 -636,203 -409,0 -636,-203 -226,-203 -226,-566 z"
                     id="path1261"
                     transform="scale(0.015625)" />
                </defs>
                <use
                   xlink:href="#DejaVuSans-38"
                   id="use921"
                   x="0"
                   y="0"
                   width="100%"
                   height="100%" />
                <use
                   x="63.623047"
                   xlink:href="#DejaVuSans-30"
                   id="use923"
                   y="0"
                   width="100%"
                   height="100%" />
                <use
                   x="127.24609"
                   xlink:href="#DejaVuSans-30"
                   id="use925"
                   y="0"
                   width="100%"
                   height="100%" />
                <use
                   x="190.86914"
                   xlink:href="#DejaVuSans-30"
                   id="use927"
                   y="0"
                   width="100%"
                   height="100%" />
              </g>
            </g>
          </g>
          <g
             id="text_6">
            <!-- x [km] -->
            <g
               transform="matrix(0.12,0,0,-0.12,216.70125,337.38025)"
               id="g953">
              <defs
                 id="defs939">
                <path
                   d="M 3513,3500 2247,1797 3578,0 H 2900 L 1881,1375 863,0 H 184 L 1544,1831 300,3500 h 678 l 928,-1247 928,1247 z"
                   id="path1271"
                   transform="scale(0.015625)" />
                <path
                   id="path1273"
                   transform="scale(0.015625)"
                   d="" />
                <path
                   d="M 550,4863 H 1875 V 4416 H 1125 V -397 h 750 V -844 H 550 Z"
                   id="path1275"
                   transform="scale(0.015625)" />
                <path
                   d="m 581,4863 h 578 V 1991 l 1716,1509 h 734 L 1753,1863 3688,0 H 2938 L 1159,1709 V 0 H 581 Z"
                   id="path1277"
                   transform="scale(0.015625)" />
                <path
                   d="m 3328,2828 q 216,388 516,572 300,184 706,184 547,0 844,-383 297,-382 297,-1088 V 0 h -578 v 2094 q 0,503 -179,746 -178,244 -543,244 -447,0 -707,-297 -259,-296 -259,-809 V 0 h -578 v 2094 q 0,506 -178,748 -178,242 -550,242 -441,0 -701,-298 -259,-298 -259,-808 V 0 H 581 v 3500 h 578 v -544 q 197,322 472,475 275,153 653,153 382,0 649,-194 267,-193 395,-562 z"
                   id="path1279"
                   transform="scale(0.015625)" />
                <path
                   d="M 1947,4863 V -844 H 622 v 447 h 747 V 4416 H 622 v 447 z"
                   id="path1281"
                   transform="scale(0.015625)" />
              </defs>
              <use
                 xlink:href="#DejaVuSans-78"
                 id="use941"
                 x="0"
                 y="0"
                 width="100%"
                 height="100%" />
              <use
                 x="59.179688"
                 xlink:href="#DejaVuSans-20"
                 id="use943"
                 y="0"
                 width="100%"
                 height="100%" />
              <use
                 x="90.966797"
                 xlink:href="#DejaVuSans-5b"
                 id="use945"
                 y="0"
                 width="100%"
                 height="100%" />
              <use
                 x="129.98047"
                 xlink:href="#DejaVuSans-6b"
                 id="use947"
                 y="0"
                 width="100%"
                 height="100%" />
              <use
                 x="187.89062"
                 xlink:href="#DejaVuSans-6d"
                 id="use949"
                 y="0"
                 width="100%"
                 height="100%" />
              <use
                 x="285.30273"
                 xlink:href="#DejaVuSans-5d"
                 id="use951"
                 y="0"
                 width="100%"
                 height="100%" />
            </g>
          </g>
        </g>
        <g
           id="matplotlib.axis_2">
          <g
             id="ytick_1">
            <g
               id="line2d_6">
              <defs
                 id="defs958">
                <path
                   d="M 0,0 H -3.5"
                   id="path1293"
                   style="stroke:#000000;stroke-width:0.8" />
              </defs>
              <g
                 id="g962">
                <use
                   style="stroke:#000000;stroke-width:0.8"
                   x="57.599998"
                   xlink:href="#mc8476dc7f8"
                   y="295.48801"
                   id="use960"
                   width="100%"
                   height="100%" />
              </g>
            </g>
            <g
               id="text_7">
              <!-- 0 -->
              <g
                 transform="matrix(0.1,0,0,-0.1,44.2375,299.28722)"
                 id="g967">
                <use
                   xlink:href="#DejaVuSans-30"
                   id="use965"
                   x="0"
                   y="0"
                   width="100%"
                   height="100%" />
              </g>
            </g>
          </g>
          <g
             id="ytick_2">
            <g
               id="line2d_7">
              <g
                 id="g973">
                <use
                   style="stroke:#000000;stroke-width:0.8"
                   x="57.599998"
                   xlink:href="#mc8476dc7f8"
                   y="242.15466"
                   id="use971"
                   width="100%"
                   height="100%" />
              </g>
            </g>
            <g
               id="text_8">
              <!-- 200 -->
              <g
                 transform="matrix(0.1,0,0,-0.1,31.5125,245.95389)"
                 id="g982">
                <use
                   xlink:href="#DejaVuSans-32"
                   id="use976"
                   x="0"
                   y="0"
                   width="100%"
                   height="100%" />
                <use
                   x="63.623047"
                   xlink:href="#DejaVuSans-30"
                   id="use978"
                   y="0"
                   width="100%"
                   height="100%" />
                <use
                   x="127.24609"
                   xlink:href="#DejaVuSans-30"
                   id="use980"
                   y="0"
                   width="100%"
                   height="100%" />
              </g>
            </g>
          </g>
          <g
             id="ytick_3">
            <g
               id="line2d_8">
              <g
                 id="g988">
                <use
                   style="stroke:#000000;stroke-width:0.8"
                   x="57.599998"
                   xlink:href="#mc8476dc7f8"
                   y="188.82133"
                   id="use986"
                   width="100%"
                   height="100%" />
              </g>
            </g>
            <g
               id="text_9">
              <!-- 400 -->
              <g
                 transform="matrix(0.1,0,0,-0.1,31.5125,192.62055)"
                 id="g997">
                <use
                   xlink:href="#DejaVuSans-34"
                   id="use991"
                   x="0"
                   y="0"
                   width="100%"
                   height="100%" />
                <use
                   x="63.623047"
                   xlink:href="#DejaVuSans-30"
                   id="use993"
                   y="0"
                   width="100%"
                   height="100%" />
                <use
                   x="127.24609"
                   xlink:href="#DejaVuSans-30"
                   id="use995"
                   y="0"
                   width="100%"
                   height="100%" />
              </g>
            </g>
          </g>
          <g
             id="ytick_4">
            <g
               id="line2d_9">
              <g
                 id="g1003">
                <use
                   style="stroke:#000000;stroke-width:0.8"
                   x="57.599998"
                   xlink:href="#mc8476dc7f8"
                   y="135.48801"
                   id="use1001"
                   width="100%"
                   height="100%" />
              </g>
            </g>
            <g
               id="text_10">
              <!-- 600 -->
              <g
                 transform="matrix(0.1,0,0,-0.1,31.5125,139.28722)"
                 id="g1012">
                <use
                   xlink:href="#DejaVuSans-36"
                   id="use1006"
                   x="0"
                   y="0"
                   width="100%"
                   height="100%" />
                <use
                   x="63.623047"
                   xlink:href="#DejaVuSans-30"
                   id="use1008"
                   y="0"
                   width="100%"
                   height="100%" />
                <use
                   x="127.24609"
                   xlink:href="#DejaVuSans-30"
                   id="use1010"
                   y="0"
                   width="100%"
                   height="100%" />
              </g>
            </g>
          </g>
          <g
             id="ytick_5">
            <g
               id="line2d_10">
              <g
                 id="g1018">
                <use
                   style="stroke:#000000;stroke-width:0.8"
                   x="57.599998"
                   xlink:href="#mc8476dc7f8"
                   y="82.154671"
                   id="use1016"
                   width="100%"
                   height="100%" />
              </g>
            </g>
            <g
               id="text_11">
              <!-- 800 -->
              <g
                 transform="matrix(0.1,0,0,-0.1,31.5125,85.953885)"
                 id="g1027">
                <use
                   xlink:href="#DejaVuSans-38"
                   id="use1021"
                   x="0"
                   y="0"
                   width="100%"
                   height="100%" />
                <use
                   x="63.623047"
                   xlink:href="#DejaVuSans-30"
                   id="use1023"
                   y="0"
                   width="100%"
                   height="100%" />
                <use
                   x="127.24609"
                   xlink:href="#DejaVuSans-30"
                   id="use1025"
                   y="0"
                   width="100%"
                   height="100%" />
              </g>
            </g>
          </g>
          <g
             id="text_12">
            <!-- Payload [kg] -->
            <g
               transform="matrix(0,-0.12,-0.12,0,25.016875,211.80019)"
               id="g1064">
              <defs
                 id="defs1038">
                <path
                   d="M 1259,4147 V 2394 h 794 q 441,0 681,228 241,228 241,650 0,419 -241,647 -240,228 -681,228 z m -631,519 h 1425 q 785,0 1186,-355 402,-355 402,-1039 0,-691 -402,-1044 -401,-353 -1186,-353 H 1259 V 0 H 628 Z"
                   id="path1339"
                   transform="scale(0.015625)" />
                <path
                   d="m 2194,1759 q -697,0 -966,-159 -269,-159 -269,-544 0,-306 202,-486 202,-179 548,-179 479,0 768,339 289,339 289,901 v 128 z m 1147,238 V 0 H 2766 V 531 Q 2569,213 2275,61 1981,-91 1556,-91 q -537,0 -855,302 -317,302 -317,808 0,590 395,890 396,300 1180,300 h 807 v 57 q 0,397 -261,614 -261,217 -733,217 -300,0 -585,-72 -284,-72 -546,-216 v 532 q 315,122 612,182 297,61 578,61 760,0 1135,-394 375,-393 375,-1193 z"
                   id="path1341"
                   transform="scale(0.015625)" />
                <path
                   d="m 2059,-325 q -243,-625 -475,-815 -231,-191 -618,-191 H 506 v 481 h 338 q 237,0 368,113 132,112 291,531 L 1606,56 191,3500 H 800 L 1894,763 2988,3500 h 609 z"
                   id="path1343"
                   transform="scale(0.015625)" />
                <path
                   d="m 603,4863 h 575 V 0 H 603 Z"
                   id="path1345"
                   transform="scale(0.015625)" />
                <path
                   d="m 1959,3097 q -462,0 -731,-361 -269,-361 -269,-989 0,-628 267,-989 268,-361 733,-361 460,0 728,362 269,363 269,988 0,622 -269,986 -268,364 -728,364 z m 0,487 q 750,0 1178,-488 429,-487 429,-1349 Q 3566,888 3137,398 2709,-91 1959,-91 1206,-91 779,398 353,888 353,1747 q 0,862 426,1349 427,488 1180,488 z"
                   id="path1347"
                   transform="scale(0.015625)" />
                <path
                   d="m 2906,2969 v 1894 h 575 V 0 H 2906 V 525 Q 2725,213 2448,61 2172,-91 1784,-91 1150,-91 751,415 353,922 353,1747 q 0,825 398,1331 399,506 1033,506 388,0 664,-152 277,-151 458,-463 z M 947,1747 q 0,-634 261,-995 261,-361 717,-361 456,0 718,361 263,361 263,995 0,634 -263,995 -262,361 -718,361 -456,0 -717,-361 -261,-361 -261,-995 z"
                   id="path1349"
                   transform="scale(0.015625)" />
                <path
                   d="m 2906,1791 q 0,625 -258,968 -257,344 -723,344 -462,0 -720,-344 -258,-343 -258,-968 0,-622 258,-966 258,-344 720,-344 466,0 723,344 258,344 258,966 z M 3481,434 q 0,-893 -397,-1329 -396,-436 -1215,-436 -303,0 -572,45 -269,45 -522,139 v 559 q 253,-137 500,-202 247,-66 503,-66 566,0 847,295 281,295 281,892 V 616 Q 2728,306 2450,153 2172,0 1784,0 1141,0 747,490 353,981 353,1791 q 0,812 394,1302 394,491 1037,491 388,0 666,-153 278,-153 456,-462 v 531 h 575 z"
                   id="path1351"
                   transform="scale(0.015625)" />
              </defs>
              <use
                 xlink:href="#DejaVuSans-50"
                 id="use1040"
                 x="0"
                 y="0"
                 width="100%"
                 height="100%" />
              <use
                 x="55.802734"
                 xlink:href="#DejaVuSans-61"
                 id="use1042"
                 y="0"
                 width="100%"
                 height="100%" />
              <use
                 x="117.08203"
                 xlink:href="#DejaVuSans-79"
                 id="use1044"
                 y="0"
                 width="100%"
                 height="100%" />
              <use
                 x="176.26172"
                 xlink:href="#DejaVuSans-6c"
                 id="use1046"
                 y="0"
                 width="100%"
                 height="100%" />
              <use
                 x="204.04492"
                 xlink:href="#DejaVuSans-6f"
                 id="use1048"
                 y="0"
                 width="100%"
                 height="100%" />
              <use
                 x="265.22656"
                 xlink:href="#DejaVuSans-61"
                 id="use1050"
                 y="0"
                 width="100%"
                 height="100%" />
              <use
                 x="326.50586"
                 xlink:href="#DejaVuSans-64"
                 id="use1052"
                 y="0"
                 width="100%"
                 height="100%" />
              <use
                 x="389.98242"
                 xlink:href="#DejaVuSans-20"
                 id="use1054"
                 y="0"
                 width="100%"
                 height="100%" />
              <use
                 x="421.76953"
                 xlink:href="#DejaVuSans-5b"
                 id="use1056"
                 y="0"
                 width="100%"
                 height="100%" />
              <use
                 x="460.7832"
                 xlink:href="#DejaVuSans-6b"
                 id="use1058"
                 y="0"
                 width="100%"
                 height="100%" />
              <use
                 x="518.69336"
                 xlink:href="#DejaVuSans-67"
                 id="use1060"
                 y="0"
                 width="100%"
                 height="100%" />
              <use
                 x="582.16992"
                 xlink:href="#DejaVuSans-5d"
                 id="use1062"
                 y="0"
                 width="100%"
                 height="100%" />
            </g>
          </g>
        </g>
        <g
           id="line2d_11">
          <path
             clip-path="url(#p2189a8291b)"
             d="M 73.832727,53.568 H 368.17619"
             style="fill:none;stroke:#000000;stroke-width:3;stroke-linecap:square"
             id="path1068" />
          <defs
             id="defs1071">
            <path
               d="M 0,3 C 0.795609,3 1.55874,2.683901 2.12132,2.12132 2.683901,1.55874 3,0.795609 3,0 3,-0.795609 2.683901,-1.55874 2.12132,-2.12132 1.55874,-2.683901 0.795609,-3 0,-3 -0.795609,-3 -1.55874,-2.683901 -2.12132,-2.12132 -2.683901,-1.55874 -3,-0.795609 -3,0 -3,0.795609 -2.683901,1.55874 -2.12132,2.12132 -1.55874,2.683901 -0.795609,3 0,3 Z"
               id="path1370"
               style="stroke:#000000" />
          </defs>
          <g
             clip-path="url(#p2189a8291b)"
             id="g1077">
            <use
               style="stroke:#000000"
               x="73.832726"
               xlink:href="#md856c0ea32"
               y="53.568001"
               id="use1073"
               width="100%"
               height="100%" />
            <use
               style="stroke:#000000"
               x="368.17618"
               xlink:href="#md856c0ea32"
               y="53.568001"
               id="use1075"
               width="100%"
               height="100%" />
          </g>
        </g>
        <g
           id="line2d_12">
          <path
             clip-path="url(#p2189a8291b)"
             d="m 368.17619,53.568 25.31343,146.9301"
             style="fill:none;stroke:#000000;stroke-width:3;stroke-linecap:square"
             id="path1080" />
          <g
             clip-path="url(#p2189a8291b)"
             id="g1086">
            <use
               style="stroke:#000000"
               x="368.17618"
               xlink:href="#md856c0ea32"
               y="53.568001"
               id="use1082"
               width="100%"
               height="100%" />
            <use
               style="stroke:#000000"
               x="393.48962"
               xlink:href="#md856c0ea32"
               y="200.49809"
               id="use1084"
               width="100%"
               height="100%" />
          </g>
        </g>
        <g
           id="line2d_13">
          <path
             clip-path="url(#p2189a8291b)"
             d="m 393.48962,200.4981 4.99765,94.9899"
             style="fill:none;stroke:#000000;stroke-width:3;stroke-linecap:square"
             id="path1089" />
          <g
             clip-path="url(#p2189a8291b)"
             id="g1095">
            <use
               style="stroke:#000000"
               x="393.48962"
               xlink:href="#md856c0ea32"
               y="200.49809"
               id="use1091"
               width="100%"
               height="100%" />
            <use
               style="stroke:#000000"
               x="398.48727"
               xlink:href="#md856c0ea32"
               y="295.48801"
               id="use1093"
               width="100%"
               height="100%" />
          </g>
        </g>
        <g
           id="patch_3">
          <path
             d="M 57.6,307.584 V 41.472"
             style="fill:none;stroke:#000000;stroke-width:0.8;stroke-linecap:square;stroke-linejoin:miter"
             id="path1098" />
        </g>
        <g
           id="patch_4">
          <path
             d="M 414.72,307.584 V 41.472"
             style="fill:none;stroke:#000000;stroke-width:0.8;stroke-linecap:square;stroke-linejoin:miter"
             id="path1101" />
        </g>
        <g
           id="patch_5">
          <path
             d="M 57.6,307.584 H 414.72"
             style="fill:none;stroke:#000000;stroke-width:0.8;stroke-linecap:square;stroke-linejoin:miter"
             id="path1104" />
        </g>
        <g
           id="patch_6">
          <path
             d="M 57.6,41.472 H 414.72"
             style="fill:none;stroke:#000000;stroke-width:0.8;stroke-linecap:square;stroke-linejoin:miter"
             id="path1107" />
        </g>
        <g
           id="text_13">
          <!-- M = 0.7 -->
          <g
             transform="matrix(0.1,0,0,-0.1,146.14947,124.29019)"
             id="g1130">
            <defs
               id="defs1114">
              <path
                 d="m 628,4666 h 941 L 2759,1491 3956,4666 h 941 V 0 H 4281 V 4097 L 3078,897 H 2444 L 1241,4097 V 0 H 628 Z"
                 id="path1395"
                 transform="scale(0.015625)" />
              <path
                 d="M 678,2906 H 4684 V 2381 H 678 Z m 0,-1275 H 4684 V 1100 H 678 Z"
                 id="path1397"
                 transform="scale(0.015625)" />
              <path
                 d="m 684,794 h 660 V 0 H 684 Z"
                 id="path1399"
                 transform="scale(0.015625)" />
              <path
                 d="M 525,4666 H 3525 V 4397 L 1831,0 H 1172 L 2766,4134 H 525 Z"
                 id="path1401"
                 transform="scale(0.015625)" />
            </defs>
            <use
               xlink:href="#DejaVuSans-4d"
               id="use1116"
               x="0"
               y="0"
               width="100%"
               height="100%" />
            <use
               x="86.279297"
               xlink:href="#DejaVuSans-20"
               id="use1118"
               y="0"
               width="100%"
               height="100%" />
            <use
               x="118.06641"
               xlink:href="#DejaVuSans-3d"
               id="use1120"
               y="0"
               width="100%"
               height="100%" />
            <use
               x="201.85547"
               xlink:href="#DejaVuSans-20"
               id="use1122"
               y="0"
               width="100%"
               height="100%" />
            <use
               x="233.64258"
               xlink:href="#DejaVuSans-30"
               id="use1124"
               y="0"
               width="100%"
               height="100%" />
            <use
               x="297.26562"
               xlink:href="#DejaVuSans-2e"
               id="use1126"
               y="0"
               width="100%"
               height="100%" />
            <use
               x="329.05273"
               xlink:href="#DejaVuSans-37"
               id="use1128"
               y="0"
               width="100%"
               height="100%" />
          </g>
          <!-- h = 10.0 km -->
          <g
             transform="matrix(0.1,0,0,-0.1,146.14947,135.488)"
             id="g1158">
            <defs
               id="defs1134">
              <path
                 d="M 3513,2113 V 0 h -575 v 2094 q 0,497 -194,743 -194,247 -581,247 -466,0 -735,-297 -269,-296 -269,-809 V 0 H 581 v 4863 h 578 V 2956 q 207,316 486,472 280,156 646,156 603,0 912,-373 310,-373 310,-1098 z"
                 id="path1412"
                 transform="scale(0.015625)" />
              <path
                 d="M 794,531 H 1825 V 4091 L 703,3866 v 575 l 1116,225 h 631 V 531 H 3481 V 0 H 794 Z"
                 id="path1414"
                 transform="scale(0.015625)" />
            </defs>
            <use
               xlink:href="#DejaVuSans-68"
               id="use1136"
               x="0"
               y="0"
               width="100%"
               height="100%" />
            <use
               x="63.378906"
               xlink:href="#DejaVuSans-20"
               id="use1138"
               y="0"
               width="100%"
               height="100%" />
            <use
               x="95.166016"
               xlink:href="#DejaVuSans-3d"
               id="use1140"
               y="0"
               width="100%"
               height="100%" />
            <use
               x="178.95508"
               xlink:href="#DejaVuSans-20"
               id="use1142"
               y="0"
               width="100%"
               height="100%" />
            <use
               x="210.74219"
               xlink:href="#DejaVuSans-31"
               id="use1144"
               y="0"
               width="100%"
               height="100%" />
            <use
               x="274.36523"
               xlink:href="#DejaVuSans-30"
               id="use1146"
               y="0"
               width="100%"
               height="100%" />
            <use
               x="337.98828"
               xlink:href="#DejaVuSans-2e"
               id="use1148"
               y="0"
               width="100%"
               height="100%" />
            <use
               x="369.77539"
               xlink:href="#DejaVuSans-30"
               id="use1150"
               y="0"
               width="100%"
               height="100%" />
            <use
               x="433.39844"
               xlink:href="#DejaVuSans-20"
               id="use1152"
               y="0"
               width="100%"
               height="100%" />
            <use
               x="465.18555"
               xlink:href="#DejaVuSans-6b"
               id="use1154"
               y="0"
               width="100%"
               height="100%" />
            <use
               x="523.0957"
               xlink:href="#DejaVuSans-6d"
               id="use1156"
               y="0"
               width="100%"
               height="100%" />
          </g>
        </g>
      </g>
    </g>
    <rect
       style="fill:none;stroke:#0091fa;stroke-width:0.5;stroke-miterlimit:4;stroke-dasharray:none;stroke-opacity:1"
       id="rect1454"
       width="29.675428"
       height="17.59041"
       x="83.923721"
       y="98.291458" />
  </g>
</svg>
