<?xml version="1.0" encoding="utf-8" standalone="no"?>
<!DOCTYPE svg PUBLIC "-//W3C//DTD SVG 1.1//EN"
  "http://www.w3.org/Graphics/SVG/1.1/DTD/svg11.dtd">
<svg height="345.6pt" version="1.1" viewBox="0 0 460.8 345.6" width="460.8pt" xmlns="http://www.w3.org/2000/svg" xmlns:xlink="http://www.w3.org/1999/xlink">
 <metadata>
  <rdf:RDF xmlns:cc="http://creativecommons.org/ns#" xmlns:dc="http://purl.org/dc/elements/1.1/" xmlns:rdf="http://www.w3.org/1999/02/22-rdf-syntax-ns#">
   <cc:Work>
    <dc:type rdf:resource="http://purl.org/dc/dcmitype/StillImage"/>
    <dc:date>2021-07-25T18:08:53.918218</dc:date>
    <dc:format>image/svg+xml</dc:format>
    <dc:creator>
     <cc:Agent>
      <dc:title>Matplotlib v3.4.1, https://matplotlib.org/</dc:title>
     </cc:Agent>
    </dc:creator>
   </cc:Work>
  </rdf:RDF>
 </metadata>
 <defs>
  <style type="text/css">*{stroke-linecap:butt;stroke-linejoin:round;}</style>
 </defs>
 <g id="figure_1">
  <g id="patch_1">
   <path d="M 0 345.6 
L 460.8 345.6 
L 460.8 0 
L 0 0 
z
" style="fill:#ffffff;"/>
  </g>
  <g id="axes_1">
   <g id="patch_2">
    <path d="M 57.6 307.584 
L 414.72 307.584 
L 414.72 41.472 
L 57.6 41.472 
z
" style="fill:#ffffff;"/>
   </g>
   <g id="matplotlib.axis_1">
    <g id="xtick_1">
     <g id="line2d_1">
      <defs>
       <path d="M 0 0 
L 0 3.5 
" id="m2f527e0703" style="stroke:#000000;stroke-width:0.8;"/>
      </defs>
      <g>
       <use style="stroke:#000000;stroke-width:0.8;" x="106.298182" xlink:href="#m2f527e0703" y="307.584"/>
      </g>
     </g>
     <g id="text_1">
      <!-- 50 -->
      <g transform="translate(99.935682 322.182437)scale(0.1 -0.1)">
       <defs>
        <path d="M 691 4666 
L 3169 4666 
L 3169 4134 
L 1269 4134 
L 1269 2991 
Q 1406 3038 1543 3061 
Q 1681 3084 1819 3084 
Q 2600 3084 3056 2656 
Q 3513 2228 3513 1497 
Q 3513 744 3044 326 
Q 2575 -91 1722 -91 
Q 1428 -91 1123 -41 
Q 819 9 494 109 
L 494 744 
Q 775 591 1075 516 
Q 1375 441 1709 441 
Q 2250 441 2565 725 
Q 2881 1009 2881 1497 
Q 2881 1984 2565 2268 
Q 2250 2553 1709 2553 
Q 1456 2553 1204 2497 
Q 953 2441 691 2322 
L 691 4666 
z
" id="DejaVuSans-35" transform="scale(0.015625)"/>
        <path d="M 2034 4250 
Q 1547 4250 1301 3770 
Q 1056 3291 1056 2328 
Q 1056 1369 1301 889 
Q 1547 409 2034 409 
Q 2525 409 2770 889 
Q 3016 1369 3016 2328 
Q 3016 3291 2770 3770 
Q 2525 4250 2034 4250 
z
M 2034 4750 
Q 2819 4750 3233 4129 
Q 3647 3509 3647 2328 
Q 3647 1150 3233 529 
Q 2819 -91 2034 -91 
Q 1250 -91 836 529 
Q 422 1150 422 2328 
Q 422 3509 836 4129 
Q 1250 4750 2034 4750 
z
" id="DejaVuSans-30" transform="scale(0.015625)"/>
       </defs>
       <use xlink:href="#DejaVuSans-35"/>
       <use x="63.623047" xlink:href="#DejaVuSans-30"/>
      </g>
     </g>
    </g>
    <g id="xtick_2">
     <g id="line2d_2">
      <g>
       <use style="stroke:#000000;stroke-width:0.8;" x="160.407273" xlink:href="#m2f527e0703" y="307.584"/>
      </g>
     </g>
     <g id="text_2">
      <!-- 100 -->
      <g transform="translate(150.863523 322.182437)scale(0.1 -0.1)">
       <defs>
        <path d="M 794 531 
L 1825 531 
L 1825 4091 
L 703 3866 
L 703 4441 
L 1819 4666 
L 2450 4666 
L 2450 531 
L 3481 531 
L 3481 0 
L 794 0 
L 794 531 
z
" id="DejaVuSans-31" transform="scale(0.015625)"/>
       </defs>
       <use xlink:href="#DejaVuSans-31"/>
       <use x="63.623047" xlink:href="#DejaVuSans-30"/>
       <use x="127.246094" xlink:href="#DejaVuSans-30"/>
      </g>
     </g>
    </g>
    <g id="xtick_3">
     <g id="line2d_3">
      <g>
       <use style="stroke:#000000;stroke-width:0.8;" x="214.516364" xlink:href="#m2f527e0703" y="307.584"/>
      </g>
     </g>
     <g id="text_3">
      <!-- 150 -->
      <g transform="translate(204.972614 322.182437)scale(0.1 -0.1)">
       <use xlink:href="#DejaVuSans-31"/>
       <use x="63.623047" xlink:href="#DejaVuSans-35"/>
       <use x="127.246094" xlink:href="#DejaVuSans-30"/>
      </g>
     </g>
    </g>
    <g id="xtick_4">
     <g id="line2d_4">
      <g>
       <use style="stroke:#000000;stroke-width:0.8;" x="268.625455" xlink:href="#m2f527e0703" y="307.584"/>
      </g>
     </g>
     <g id="text_4">
      <!-- 200 -->
      <g transform="translate(259.081705 322.182437)scale(0.1 -0.1)">
       <defs>
        <path d="M 1228 531 
L 3431 531 
L 3431 0 
L 469 0 
L 469 531 
Q 828 903 1448 1529 
Q 2069 2156 2228 2338 
Q 2531 2678 2651 2914 
Q 2772 3150 2772 3378 
Q 2772 3750 2511 3984 
Q 2250 4219 1831 4219 
Q 1534 4219 1204 4116 
Q 875 4013 500 3803 
L 500 4441 
Q 881 4594 1212 4672 
Q 1544 4750 1819 4750 
Q 2544 4750 2975 4387 
Q 3406 4025 3406 3419 
Q 3406 3131 3298 2873 
Q 3191 2616 2906 2266 
Q 2828 2175 2409 1742 
Q 1991 1309 1228 531 
z
" id="DejaVuSans-32" transform="scale(0.015625)"/>
       </defs>
       <use xlink:href="#DejaVuSans-32"/>
       <use x="63.623047" xlink:href="#DejaVuSans-30"/>
       <use x="127.246094" xlink:href="#DejaVuSans-30"/>
      </g>
     </g>
    </g>
    <g id="xtick_5">
     <g id="line2d_5">
      <g>
       <use style="stroke:#000000;stroke-width:0.8;" x="322.734545" xlink:href="#m2f527e0703" y="307.584"/>
      </g>
     </g>
     <g id="text_5">
      <!-- 250 -->
      <g transform="translate(313.190795 322.182437)scale(0.1 -0.1)">
       <use xlink:href="#DejaVuSans-32"/>
       <use x="63.623047" xlink:href="#DejaVuSans-35"/>
       <use x="127.246094" xlink:href="#DejaVuSans-30"/>
      </g>
     </g>
    </g>
    <g id="xtick_6">
     <g id="line2d_6">
      <g>
       <use style="stroke:#000000;stroke-width:0.8;" x="376.843636" xlink:href="#m2f527e0703" y="307.584"/>
      </g>
     </g>
     <g id="text_6">
      <!-- 300 -->
      <g transform="translate(367.299886 322.182437)scale(0.1 -0.1)">
       <defs>
        <path d="M 2597 2516 
Q 3050 2419 3304 2112 
Q 3559 1806 3559 1356 
Q 3559 666 3084 287 
Q 2609 -91 1734 -91 
Q 1441 -91 1130 -33 
Q 819 25 488 141 
L 488 750 
Q 750 597 1062 519 
Q 1375 441 1716 441 
Q 2309 441 2620 675 
Q 2931 909 2931 1356 
Q 2931 1769 2642 2001 
Q 2353 2234 1838 2234 
L 1294 2234 
L 1294 2753 
L 1863 2753 
Q 2328 2753 2575 2939 
Q 2822 3125 2822 3475 
Q 2822 3834 2567 4026 
Q 2313 4219 1838 4219 
Q 1578 4219 1281 4162 
Q 984 4106 628 3988 
L 628 4550 
Q 988 4650 1302 4700 
Q 1616 4750 1894 4750 
Q 2613 4750 3031 4423 
Q 3450 4097 3450 3541 
Q 3450 3153 3228 2886 
Q 3006 2619 2597 2516 
z
" id="DejaVuSans-33" transform="scale(0.015625)"/>
       </defs>
       <use xlink:href="#DejaVuSans-33"/>
       <use x="63.623047" xlink:href="#DejaVuSans-30"/>
       <use x="127.246094" xlink:href="#DejaVuSans-30"/>
      </g>
     </g>
    </g>
    <g id="text_7">
     <!-- V [m/s] -->
     <g transform="translate(218.089687 335.860562)scale(0.1 -0.1)">
      <defs>
       <path d="M 1831 0 
L 50 4666 
L 709 4666 
L 2188 738 
L 3669 4666 
L 4325 4666 
L 2547 0 
L 1831 0 
z
" id="DejaVuSans-56" transform="scale(0.015625)"/>
       <path id="DejaVuSans-20" transform="scale(0.015625)"/>
       <path d="M 550 4863 
L 1875 4863 
L 1875 4416 
L 1125 4416 
L 1125 -397 
L 1875 -397 
L 1875 -844 
L 550 -844 
L 550 4863 
z
" id="DejaVuSans-5b" transform="scale(0.015625)"/>
       <path d="M 3328 2828 
Q 3544 3216 3844 3400 
Q 4144 3584 4550 3584 
Q 5097 3584 5394 3201 
Q 5691 2819 5691 2113 
L 5691 0 
L 5113 0 
L 5113 2094 
Q 5113 2597 4934 2840 
Q 4756 3084 4391 3084 
Q 3944 3084 3684 2787 
Q 3425 2491 3425 1978 
L 3425 0 
L 2847 0 
L 2847 2094 
Q 2847 2600 2669 2842 
Q 2491 3084 2119 3084 
Q 1678 3084 1418 2786 
Q 1159 2488 1159 1978 
L 1159 0 
L 581 0 
L 581 3500 
L 1159 3500 
L 1159 2956 
Q 1356 3278 1631 3431 
Q 1906 3584 2284 3584 
Q 2666 3584 2933 3390 
Q 3200 3197 3328 2828 
z
" id="DejaVuSans-6d" transform="scale(0.015625)"/>
       <path d="M 1625 4666 
L 2156 4666 
L 531 -594 
L 0 -594 
L 1625 4666 
z
" id="DejaVuSans-2f" transform="scale(0.015625)"/>
       <path d="M 2834 3397 
L 2834 2853 
Q 2591 2978 2328 3040 
Q 2066 3103 1784 3103 
Q 1356 3103 1142 2972 
Q 928 2841 928 2578 
Q 928 2378 1081 2264 
Q 1234 2150 1697 2047 
L 1894 2003 
Q 2506 1872 2764 1633 
Q 3022 1394 3022 966 
Q 3022 478 2636 193 
Q 2250 -91 1575 -91 
Q 1294 -91 989 -36 
Q 684 19 347 128 
L 347 722 
Q 666 556 975 473 
Q 1284 391 1588 391 
Q 1994 391 2212 530 
Q 2431 669 2431 922 
Q 2431 1156 2273 1281 
Q 2116 1406 1581 1522 
L 1381 1569 
Q 847 1681 609 1914 
Q 372 2147 372 2553 
Q 372 3047 722 3315 
Q 1072 3584 1716 3584 
Q 2034 3584 2315 3537 
Q 2597 3491 2834 3397 
z
" id="DejaVuSans-73" transform="scale(0.015625)"/>
       <path d="M 1947 4863 
L 1947 -844 
L 622 -844 
L 622 -397 
L 1369 -397 
L 1369 4416 
L 622 4416 
L 622 4863 
L 1947 4863 
z
" id="DejaVuSans-5d" transform="scale(0.015625)"/>
      </defs>
      <use xlink:href="#DejaVuSans-56"/>
      <use x="68.408203" xlink:href="#DejaVuSans-20"/>
      <use x="100.195312" xlink:href="#DejaVuSans-5b"/>
      <use x="139.208984" xlink:href="#DejaVuSans-6d"/>
      <use x="236.621094" xlink:href="#DejaVuSans-2f"/>
      <use x="270.3125" xlink:href="#DejaVuSans-73"/>
      <use x="322.412109" xlink:href="#DejaVuSans-5d"/>
     </g>
    </g>
   </g>
   <g id="matplotlib.axis_2">
    <g id="ytick_1">
     <g id="line2d_7">
      <defs>
       <path d="M 0 0 
L -3.5 0 
" id="m47df7249bb" style="stroke:#000000;stroke-width:0.8;"/>
      </defs>
      <g>
       <use style="stroke:#000000;stroke-width:0.8;" x="57.6" xlink:href="#m47df7249bb" y="307.584"/>
      </g>
     </g>
     <g id="text_8">
      <!-- 0.0 -->
      <g transform="translate(34.696875 311.383219)scale(0.1 -0.1)">
       <defs>
        <path d="M 684 794 
L 1344 794 
L 1344 0 
L 684 0 
L 684 794 
z
" id="DejaVuSans-2e" transform="scale(0.015625)"/>
       </defs>
       <use xlink:href="#DejaVuSans-30"/>
       <use x="63.623047" xlink:href="#DejaVuSans-2e"/>
       <use x="95.410156" xlink:href="#DejaVuSans-30"/>
      </g>
     </g>
    </g>
    <g id="ytick_2">
     <g id="line2d_8">
      <g>
       <use style="stroke:#000000;stroke-width:0.8;" x="57.6" xlink:href="#m47df7249bb" y="254.3616"/>
      </g>
     </g>
     <g id="text_9">
      <!-- 0.1 -->
      <g transform="translate(34.696875 258.160819)scale(0.1 -0.1)">
       <use xlink:href="#DejaVuSans-30"/>
       <use x="63.623047" xlink:href="#DejaVuSans-2e"/>
       <use x="95.410156" xlink:href="#DejaVuSans-31"/>
      </g>
     </g>
    </g>
    <g id="ytick_3">
     <g id="line2d_9">
      <g>
       <use style="stroke:#000000;stroke-width:0.8;" x="57.6" xlink:href="#m47df7249bb" y="201.1392"/>
      </g>
     </g>
     <g id="text_10">
      <!-- 0.2 -->
      <g transform="translate(34.696875 204.938419)scale(0.1 -0.1)">
       <use xlink:href="#DejaVuSans-30"/>
       <use x="63.623047" xlink:href="#DejaVuSans-2e"/>
       <use x="95.410156" xlink:href="#DejaVuSans-32"/>
      </g>
     </g>
    </g>
    <g id="ytick_4">
     <g id="line2d_10">
      <g>
       <use style="stroke:#000000;stroke-width:0.8;" x="57.6" xlink:href="#m47df7249bb" y="147.9168"/>
      </g>
     </g>
     <g id="text_11">
      <!-- 0.3 -->
      <g transform="translate(34.696875 151.716019)scale(0.1 -0.1)">
       <use xlink:href="#DejaVuSans-30"/>
       <use x="63.623047" xlink:href="#DejaVuSans-2e"/>
       <use x="95.410156" xlink:href="#DejaVuSans-33"/>
      </g>
     </g>
    </g>
    <g id="ytick_5">
     <g id="line2d_11">
      <g>
       <use style="stroke:#000000;stroke-width:0.8;" x="57.6" xlink:href="#m47df7249bb" y="94.6944"/>
      </g>
     </g>
     <g id="text_12">
      <!-- 0.4 -->
      <g transform="translate(34.696875 98.493619)scale(0.1 -0.1)">
       <defs>
        <path d="M 2419 4116 
L 825 1625 
L 2419 1625 
L 2419 4116 
z
M 2253 4666 
L 3047 4666 
L 3047 1625 
L 3713 1625 
L 3713 1100 
L 3047 1100 
L 3047 0 
L 2419 0 
L 2419 1100 
L 313 1100 
L 313 1709 
L 2253 4666 
z
" id="DejaVuSans-34" transform="scale(0.015625)"/>
       </defs>
       <use xlink:href="#DejaVuSans-30"/>
       <use x="63.623047" xlink:href="#DejaVuSans-2e"/>
       <use x="95.410156" xlink:href="#DejaVuSans-34"/>
      </g>
     </g>
    </g>
    <g id="ytick_6">
     <g id="line2d_12">
      <g>
       <use style="stroke:#000000;stroke-width:0.8;" x="57.6" xlink:href="#m47df7249bb" y="41.472"/>
      </g>
     </g>
     <g id="text_13">
      <!-- 0.5 -->
      <g transform="translate(34.696875 45.271219)scale(0.1 -0.1)">
       <use xlink:href="#DejaVuSans-30"/>
       <use x="63.623047" xlink:href="#DejaVuSans-2e"/>
       <use x="95.410156" xlink:href="#DejaVuSans-35"/>
      </g>
     </g>
    </g>
    <g id="text_14">
     <!-- $\omega$ [rad/s] -->
     <g transform="translate(28.617187 196.828)rotate(-90)scale(0.1 -0.1)">
      <defs>
       <path d="M 1369 -91 
Q 72 -91 434 1766 
Q 575 2500 1256 3500 
L 1875 3500 
Q 1231 2500 1088 1750 
Q 819 397 1519 397 
Q 2166 397 2478 2078 
L 3009 2078 
Q 2669 388 3316 397 
Q 4013 403 4275 1750 
Q 4419 2500 4169 3500 
L 4788 3500 
Q 5075 2500 4934 1766 
Q 4578 -94 3278 -91 
Q 2428 -88 2503 844 
Q 2194 -91 1369 -91 
z
" id="DejaVuSans-Oblique-3c9" transform="scale(0.015625)"/>
       <path d="M 2631 2963 
Q 2534 3019 2420 3045 
Q 2306 3072 2169 3072 
Q 1681 3072 1420 2755 
Q 1159 2438 1159 1844 
L 1159 0 
L 581 0 
L 581 3500 
L 1159 3500 
L 1159 2956 
Q 1341 3275 1631 3429 
Q 1922 3584 2338 3584 
Q 2397 3584 2469 3576 
Q 2541 3569 2628 3553 
L 2631 2963 
z
" id="DejaVuSans-72" transform="scale(0.015625)"/>
       <path d="M 2194 1759 
Q 1497 1759 1228 1600 
Q 959 1441 959 1056 
Q 959 750 1161 570 
Q 1363 391 1709 391 
Q 2188 391 2477 730 
Q 2766 1069 2766 1631 
L 2766 1759 
L 2194 1759 
z
M 3341 1997 
L 3341 0 
L 2766 0 
L 2766 531 
Q 2569 213 2275 61 
Q 1981 -91 1556 -91 
Q 1019 -91 701 211 
Q 384 513 384 1019 
Q 384 1609 779 1909 
Q 1175 2209 1959 2209 
L 2766 2209 
L 2766 2266 
Q 2766 2663 2505 2880 
Q 2244 3097 1772 3097 
Q 1472 3097 1187 3025 
Q 903 2953 641 2809 
L 641 3341 
Q 956 3463 1253 3523 
Q 1550 3584 1831 3584 
Q 2591 3584 2966 3190 
Q 3341 2797 3341 1997 
z
" id="DejaVuSans-61" transform="scale(0.015625)"/>
       <path d="M 2906 2969 
L 2906 4863 
L 3481 4863 
L 3481 0 
L 2906 0 
L 2906 525 
Q 2725 213 2448 61 
Q 2172 -91 1784 -91 
Q 1150 -91 751 415 
Q 353 922 353 1747 
Q 353 2572 751 3078 
Q 1150 3584 1784 3584 
Q 2172 3584 2448 3432 
Q 2725 3281 2906 2969 
z
M 947 1747 
Q 947 1113 1208 752 
Q 1469 391 1925 391 
Q 2381 391 2643 752 
Q 2906 1113 2906 1747 
Q 2906 2381 2643 2742 
Q 2381 3103 1925 3103 
Q 1469 3103 1208 2742 
Q 947 2381 947 1747 
z
" id="DejaVuSans-64" transform="scale(0.015625)"/>
      </defs>
      <use transform="translate(0 0.015625)" xlink:href="#DejaVuSans-Oblique-3c9"/>
      <use transform="translate(83.740234 0.015625)" xlink:href="#DejaVuSans-20"/>
      <use transform="translate(115.527344 0.015625)" xlink:href="#DejaVuSans-5b"/>
      <use transform="translate(154.541016 0.015625)" xlink:href="#DejaVuSans-72"/>
      <use transform="translate(195.654297 0.015625)" xlink:href="#DejaVuSans-61"/>
      <use transform="translate(256.933594 0.015625)" xlink:href="#DejaVuSans-64"/>
      <use transform="translate(320.410156 0.015625)" xlink:href="#DejaVuSans-2f"/>
      <use transform="translate(354.101562 0.015625)" xlink:href="#DejaVuSans-73"/>
      <use transform="translate(406.201172 0.015625)" xlink:href="#DejaVuSans-5d"/>
     </g>
    </g>
   </g>
   <g id="line2d_13">
    <path clip-path="url(#pe083a71865)" d="M 89.039812 307.584 
L 90.429615 266.244814 
L 91.818652 250.641788 
L 93.207036 239.584784 
L 94.594885 230.94868 
L 95.982312 223.881153 
L 97.369434 217.932099 
L 98.756366 212.827612 
L 100.143225 208.385769 
L 101.530129 204.478346 
L 102.917195 201.011001 
L 104.304542 197.912037 
L 105.69229 195.125567 
L 107.080559 192.607132 
L 108.469472 190.320772 
L 109.859153 188.236987 
L 111.249725 186.331292 
L 112.641316 184.583155 
L 114.034053 182.975202 
L 115.428067 181.492622 
L 116.823489 180.122693 
L 118.220453 178.854428 
L 119.619096 177.678279 
L 121.019556 176.585909 
L 122.421974 175.570006 
L 123.826496 174.624129 
L 125.233268 173.742581 
L 126.642439 172.92031 
L 128.054165 172.152816 
L 129.468602 171.436084 
L 130.885911 170.766518 
L 132.306257 170.140891 
L 133.729811 169.556303 
L 135.156745 169.010136 
L 136.587238 168.500029 
L 138.021476 168.023845 
L 139.459647 167.579648 
L 140.901947 167.165683 
L 142.348578 166.780355 
L 143.799748 166.422214 
L 145.255672 166.089942 
L 146.716575 165.782339 
L 148.182686 165.498314 
L 149.654245 165.236871 
L 151.131502 164.997107 
L 152.614714 164.778199 
L 154.104152 164.5794 
L 155.600094 164.400031 
L 157.102834 164.239481 
L 158.612676 164.097194 
L 160.129939 163.972675 
L 161.654958 163.865478 
L 163.188081 163.775206 
L 164.729676 163.70151 
L 166.280129 163.644085 
L 167.839844 163.602668 
L 169.409249 163.577036 
L 170.988794 163.567006 
L 172.578957 163.572435 
L 174.18024 163.593214 
L 175.793179 163.629275 
L 177.418341 163.680585 
L 179.05633 163.747149 
L 180.707788 163.829009 
L 182.373403 163.926247 
L 184.053911 164.038984 
L 185.750098 164.167383 
L 187.462814 164.311651 
L 189.192969 164.472038 
L 190.941552 164.648848 
L 192.709629 164.842433 
L 194.49836 165.053206 
L 196.309009 165.281641 
L 198.142958 165.528282 
L 200.00172 165.793749 
L 201.886964 166.078751 
L 203.800534 166.384093 
L 205.744476 166.71069 
L 207.721073 167.059587 
L 209.732887 167.431977 
L 211.782804 167.829226 
L 213.874102 168.252907 
L 216.010524 168.704834 
L 218.196383 169.187122 
L 220.436685 169.702243 
L 222.737303 170.253117 
L 225.105201 170.843229 
L 227.548739 171.47678 
L 230.078108 172.158914 
L 232.705941 172.896023 
L 235.448222 173.696218 
L 238.325688 174.570039 
L 241.366078 175.531603 
L 244.607978 176.600566 
L 248.107891 177.80572 
L 251.954644 179.192337 
L 256.303343 180.839449 
L 261.4763 182.911211 
L 268.440101 185.899545 
L 280.642121 191.427651 
" style="fill:none;stroke:#000000;stroke-linecap:square;stroke-width:1.5;"/>
   </g>
   <g id="line2d_14">
    <path clip-path="url(#pe083a71865)" d="M 371.809046 307.584 
L 371.666644 302.635821 
L 371.518549 300.517333 
L 371.364725 298.845275 
L 371.205131 297.397109 
L 371.039724 296.087654 
L 370.868462 294.873721 
L 370.691299 293.729946 
L 370.508187 292.639985 
L 370.319076 291.592612 
L 370.123915 290.579741 
L 369.922648 289.595331 
L 369.715222 288.634738 
L 369.501575 287.694303 
L 369.281648 286.771089 
L 369.055378 285.862694 
L 368.822697 284.967128 
L 368.583537 284.082719 
L 368.337827 283.208048 
L 368.085492 282.341897 
L 367.826454 281.483209 
L 367.560634 280.631064 
L 367.287947 279.78465 
L 367.008306 278.943247 
L 366.72162 278.106211 
L 366.427795 277.272966 
L 366.126733 276.442987 
L 365.818331 275.615799 
L 365.502483 274.790966 
L 365.179079 273.968086 
L 364.848002 273.146789 
L 364.509132 272.326729 
L 364.162344 271.507581 
L 363.807508 270.689042 
L 363.444486 269.870824 
L 363.073138 269.052653 
L 362.693314 268.234269 
L 362.30486 267.41542 
L 361.907614 266.595866 
L 361.501407 265.775371 
L 361.086063 264.953707 
L 360.661396 264.130653 
L 360.227213 263.305988 
L 359.783311 262.479496 
L 359.329479 261.650963 
L 358.865493 260.820175 
L 358.391119 259.98692 
L 357.906113 259.150983 
L 357.410217 258.312148 
L 356.903159 257.470199 
L 356.384654 256.624913 
L 355.8544 255.776065 
L 355.312082 254.923425 
L 354.757363 254.066757 
L 354.18989 253.205818 
L 353.609289 252.340358 
L 353.015162 251.470117 
L 352.40709 250.594825 
L 351.784627 249.714202 
L 351.147296 248.827956 
L 350.494594 247.935779 
L 349.825982 247.037349 
L 349.140883 246.132328 
L 348.438683 245.220356 
L 347.718723 244.301054 
L 346.980294 243.374019 
L 346.222635 242.438821 
L 345.444925 241.495003 
L 344.646278 240.542072 
L 343.825734 239.5795 
L 342.982249 238.606718 
L 342.11469 237.623109 
L 341.221818 236.628006 
L 340.302277 235.62068 
L 339.354575 234.600334 
L 338.377069 233.566094 
L 337.36794 232.516996 
L 336.325164 231.451972 
L 335.24648 230.369833 
L 334.129352 229.269248 
L 332.970914 228.148718 
L 331.767913 227.006547 
L 330.516625 225.840797 
L 329.212762 224.649243 
L 327.851338 223.429299 
L 326.426502 222.177941 
L 324.931312 220.891583 
L 323.357426 219.565928 
L 321.694677 218.19574 
L 319.930452 216.774536 
L 318.048786 215.294123 
L 316.028962 213.743876 
L 313.843262 212.109601 
L 311.453119 210.371568 
L 308.802051 208.500911 
L 305.801248 206.452288 
L 302.295624 204.146601 
L 297.962886 201.41963 
L 291.836467 197.779392 
L 280.623602 191.418234 
" style="fill:none;stroke:#000000;stroke-linecap:square;stroke-width:1.5;"/>
   </g>
   <g id="line2d_15">
    <path clip-path="url(#pe083a71865)" d="M 138.190399 -1 
L 140.721352 7.848407 
L 143.984212 18.502515 
L 147.247072 28.425221 
L 150.509931 37.68934 
L 153.772791 46.358333 
L 157.035651 54.487762 
L 160.298511 62.126482 
L 163.56137 69.31762 
L 166.82423 76.099396 
L 170.08709 82.505796 
L 173.34995 88.567148 
L 178.244239 97.070822 
L 183.138529 104.93884 
L 188.032819 112.239906 
L 192.927108 119.033171 
L 197.821398 125.36983 
L 202.715688 131.294424 
L 207.609977 136.84588 
L 212.504267 142.058374 
L 217.398556 146.96203 
L 222.292846 151.583506 
L 227.187136 155.946478 
L 232.081425 160.072045 
L 238.607145 165.235824 
L 245.132864 170.050306 
L 251.658584 174.549773 
L 258.184303 178.764162 
L 264.710023 182.719735 
L 271.235742 186.439624 
L 277.761462 189.944283 
L 285.918611 194.049904 
L 294.075761 197.878616 
L 302.23291 201.457522 
L 310.390059 204.810296 
L 320.178639 208.564206 
L 329.967218 212.053549 
L 339.755797 215.305342 
L 349.544376 218.343044 
L 360.964386 221.643608 
L 372.384395 224.708737 
L 383.804404 227.562756 
L 396.855843 230.592907 
L 398.487273 230.955616 
L 398.487273 230.955616 
" style="fill:none;stroke:#0000ff;stroke-linecap:square;stroke-width:1.5;"/>
   </g>
   <g id="line2d_16">
    <path clip-path="url(#pe083a71865)" d="M 121.448727 307.584 
L 122.834057 284.619713 
L 124.192739 275.406477 
L 125.526253 268.517485 
L 126.835948 262.84525 
L 128.123058 257.954985 
L 129.388711 253.62108 
L 130.633947 249.708166 
L 131.859722 246.127312 
L 133.066922 242.816343 
L 134.256365 239.729764 
L 135.428814 236.833112 
L 136.584977 234.099559 
L 137.725514 231.507751 
L 138.851041 229.04038 
L 139.962137 226.683202 
L 141.059343 224.424337 
L 142.143167 222.253767 
L 143.214086 220.162961 
L 144.272552 218.144586 
L 145.318988 216.192298 
L 146.353797 214.300562 
L 147.377356 212.464526 
L 148.390026 210.679907 
L 149.392146 208.942909 
L 150.38404 207.250148 
L 151.366014 205.598598 
L 152.33836 203.985538 
L 153.301356 202.408515 
L 154.255266 200.865311 
L 155.200343 199.353911 
L 156.136828 197.872479 
L 157.064952 196.419339 
L 157.984933 194.992959 
L 158.896983 193.591928 
L 159.801303 192.214952 
L 160.698087 190.860836 
L 161.58752 189.528474 
L 162.46978 188.216844 
L 163.345037 186.924997 
L 164.213456 185.652052 
L 165.075195 184.397185 
L 165.930405 183.159632 
L 166.779232 181.938676 
L 167.621818 180.733647 
L 168.458298 179.543919 
L 169.288803 178.368901 
L 170.113459 177.20804 
L 170.932388 176.060816 
L 171.745708 174.926738 
L 172.553532 173.805343 
L 173.355971 172.696195 
L 174.15313 171.59888 
L 174.945112 170.513008 
L 175.732018 169.438208 
L 176.513943 168.374129 
L 177.290981 167.320438 
L 178.063222 166.276817 
L 178.830754 165.242967 
L 179.593663 164.218599 
L 180.35203 163.203441 
L 181.105936 162.197233 
L 181.855459 161.199726 
L 182.600674 160.210683 
L 183.341655 159.229876 
L 184.078473 158.25709 
L 184.811198 157.292116 
L 185.539896 156.334756 
L 186.264634 155.384818 
L 186.985475 154.442122 
L 187.702482 153.506491 
L 188.415716 152.577756 
L 189.125234 151.655756 
L 189.831095 150.740337 
L 190.533355 149.831347 
L 191.232068 148.928643 
L 191.927287 148.032086 
L 192.619065 147.141543 
L 193.307451 146.256886 
L 193.992496 145.377989 
L 194.674247 144.504734 
L 195.352751 143.637004 
L 196.028055 142.774688 
L 196.700204 141.917677 
L 197.36924 141.065868 
L 198.035208 140.21916 
L 198.698148 139.377454 
L 199.358102 138.540657 
L 200.01511 137.708677 
L 200.66921 136.881424 
L 201.320442 136.058814 
L 201.968842 135.240763 
L 202.614448 134.42719 
L 203.257294 133.618017 
L 203.897416 132.813168 
L 204.534849 132.012568 
L 205.169626 131.216146 
L 205.801779 130.423833 
L 206.431342 129.63556 
L 207.058346 128.851263 
" style="fill:none;stroke:#ff0000;stroke-linecap:square;stroke-width:1.5;"/>
   </g>
   <g id="patch_3">
    <path d="M 57.6 307.584 
L 57.6 41.472 
" style="fill:none;stroke:#000000;stroke-linecap:square;stroke-linejoin:miter;stroke-width:0.8;"/>
   </g>
   <g id="patch_4">
    <path d="M 414.72 307.584 
L 414.72 41.472 
" style="fill:none;stroke:#000000;stroke-linecap:square;stroke-linejoin:miter;stroke-width:0.8;"/>
   </g>
   <g id="patch_5">
    <path d="M 57.6 307.584 
L 414.72 307.584 
" style="fill:none;stroke:#000000;stroke-linecap:square;stroke-linejoin:miter;stroke-width:0.8;"/>
   </g>
   <g id="patch_6">
    <path d="M 57.6 41.472 
L 414.72 41.472 
" style="fill:none;stroke:#000000;stroke-linecap:square;stroke-linejoin:miter;stroke-width:0.8;"/>
   </g>
   <g id="legend_1">
    <g id="patch_7">
     <path d="M 319.52 93.506375 
L 407.72 93.506375 
Q 409.72 93.506375 409.72 91.506375 
L 409.72 48.472 
Q 409.72 46.472 407.72 46.472 
L 319.52 46.472 
Q 317.52 46.472 317.52 48.472 
L 317.52 91.506375 
Q 317.52 93.506375 319.52 93.506375 
z
" style="fill:#ffffff;stroke:#cccccc;stroke-linejoin:miter;"/>
    </g>
    <g id="line2d_17">
     <path d="M 321.52 54.570438 
L 341.52 54.570438 
" style="fill:none;stroke:#000000;stroke-linecap:square;stroke-width:1.5;"/>
    </g>
    <g id="line2d_18"/>
    <g id="text_15">
     <!-- h = 0.0 km -->
     <g transform="translate(349.52 58.070438)scale(0.1 -0.1)">
      <defs>
       <path d="M 3513 2113 
L 3513 0 
L 2938 0 
L 2938 2094 
Q 2938 2591 2744 2837 
Q 2550 3084 2163 3084 
Q 1697 3084 1428 2787 
Q 1159 2491 1159 1978 
L 1159 0 
L 581 0 
L 581 4863 
L 1159 4863 
L 1159 2956 
Q 1366 3272 1645 3428 
Q 1925 3584 2291 3584 
Q 2894 3584 3203 3211 
Q 3513 2838 3513 2113 
z
" id="DejaVuSans-68" transform="scale(0.015625)"/>
       <path d="M 678 2906 
L 4684 2906 
L 4684 2381 
L 678 2381 
L 678 2906 
z
M 678 1631 
L 4684 1631 
L 4684 1100 
L 678 1100 
L 678 1631 
z
" id="DejaVuSans-3d" transform="scale(0.015625)"/>
       <path d="M 581 4863 
L 1159 4863 
L 1159 1991 
L 2875 3500 
L 3609 3500 
L 1753 1863 
L 3688 0 
L 2938 0 
L 1159 1709 
L 1159 0 
L 581 0 
L 581 4863 
z
" id="DejaVuSans-6b" transform="scale(0.015625)"/>
      </defs>
      <use xlink:href="#DejaVuSans-68"/>
      <use x="63.378906" xlink:href="#DejaVuSans-20"/>
      <use x="95.166016" xlink:href="#DejaVuSans-3d"/>
      <use x="178.955078" xlink:href="#DejaVuSans-20"/>
      <use x="210.742188" xlink:href="#DejaVuSans-30"/>
      <use x="274.365234" xlink:href="#DejaVuSans-2e"/>
      <use x="306.152344" xlink:href="#DejaVuSans-30"/>
      <use x="369.775391" xlink:href="#DejaVuSans-20"/>
      <use x="401.5625" xlink:href="#DejaVuSans-6b"/>
      <use x="459.472656" xlink:href="#DejaVuSans-6d"/>
     </g>
    </g>
    <g id="line2d_19">
     <path d="M 321.52 69.248563 
L 341.52 69.248563 
" style="fill:none;stroke:#0000ff;stroke-linecap:square;stroke-width:1.5;"/>
    </g>
    <g id="line2d_20"/>
    <g id="text_16">
     <!-- $n_{max} = 4.80$ -->
     <g transform="translate(349.52 72.748563)scale(0.1 -0.1)">
      <defs>
       <path d="M 3566 2113 
L 3156 0 
L 2578 0 
L 2988 2091 
Q 3016 2238 3031 2350 
Q 3047 2463 3047 2528 
Q 3047 2791 2881 2937 
Q 2716 3084 2419 3084 
Q 1956 3084 1622 2776 
Q 1288 2469 1184 1941 
L 800 0 
L 225 0 
L 903 3500 
L 1478 3500 
L 1363 2950 
Q 1603 3253 1940 3418 
Q 2278 3584 2650 3584 
Q 3113 3584 3367 3334 
Q 3622 3084 3622 2631 
Q 3622 2519 3608 2391 
Q 3594 2263 3566 2113 
z
" id="DejaVuSans-Oblique-6e" transform="scale(0.015625)"/>
       <path d="M 5747 2113 
L 5338 0 
L 4763 0 
L 5166 2094 
Q 5191 2228 5203 2325 
Q 5216 2422 5216 2491 
Q 5216 2772 5059 2928 
Q 4903 3084 4622 3084 
Q 4203 3084 3875 2770 
Q 3547 2456 3450 1953 
L 3066 0 
L 2491 0 
L 2900 2094 
Q 2925 2209 2937 2307 
Q 2950 2406 2950 2484 
Q 2950 2769 2794 2926 
Q 2638 3084 2363 3084 
Q 1938 3084 1609 2770 
Q 1281 2456 1184 1953 
L 800 0 
L 225 0 
L 909 3500 
L 1484 3500 
L 1375 2956 
Q 1609 3263 1923 3423 
Q 2238 3584 2597 3584 
Q 2978 3584 3223 3384 
Q 3469 3184 3519 2828 
Q 3781 3197 4126 3390 
Q 4472 3584 4856 3584 
Q 5306 3584 5551 3325 
Q 5797 3066 5797 2591 
Q 5797 2488 5784 2364 
Q 5772 2241 5747 2113 
z
" id="DejaVuSans-Oblique-6d" transform="scale(0.015625)"/>
       <path d="M 3438 1997 
L 3047 0 
L 2472 0 
L 2578 531 
Q 2325 219 2001 64 
Q 1678 -91 1281 -91 
Q 834 -91 548 182 
Q 263 456 263 884 
Q 263 1497 752 1853 
Q 1241 2209 2100 2209 
L 2900 2209 
L 2931 2363 
Q 2938 2388 2941 2417 
Q 2944 2447 2944 2509 
Q 2944 2788 2717 2942 
Q 2491 3097 2081 3097 
Q 1800 3097 1504 3025 
Q 1209 2953 897 2809 
L 997 3341 
Q 1322 3463 1633 3523 
Q 1944 3584 2234 3584 
Q 2853 3584 3176 3315 
Q 3500 3047 3500 2534 
Q 3500 2431 3484 2292 
Q 3469 2153 3438 1997 
z
M 2816 1759 
L 2241 1759 
Q 1534 1759 1195 1570 
Q 856 1381 856 984 
Q 856 709 1029 553 
Q 1203 397 1509 397 
Q 1978 397 2328 733 
Q 2678 1069 2791 1631 
L 2816 1759 
z
" id="DejaVuSans-Oblique-61" transform="scale(0.015625)"/>
       <path d="M 3841 3500 
L 2234 1784 
L 3219 0 
L 2559 0 
L 1819 1388 
L 531 0 
L -166 0 
L 1556 1844 
L 641 3500 
L 1300 3500 
L 1972 2234 
L 3144 3500 
L 3841 3500 
z
" id="DejaVuSans-Oblique-78" transform="scale(0.015625)"/>
       <path d="M 2034 2216 
Q 1584 2216 1326 1975 
Q 1069 1734 1069 1313 
Q 1069 891 1326 650 
Q 1584 409 2034 409 
Q 2484 409 2743 651 
Q 3003 894 3003 1313 
Q 3003 1734 2745 1975 
Q 2488 2216 2034 2216 
z
M 1403 2484 
Q 997 2584 770 2862 
Q 544 3141 544 3541 
Q 544 4100 942 4425 
Q 1341 4750 2034 4750 
Q 2731 4750 3128 4425 
Q 3525 4100 3525 3541 
Q 3525 3141 3298 2862 
Q 3072 2584 2669 2484 
Q 3125 2378 3379 2068 
Q 3634 1759 3634 1313 
Q 3634 634 3220 271 
Q 2806 -91 2034 -91 
Q 1263 -91 848 271 
Q 434 634 434 1313 
Q 434 1759 690 2068 
Q 947 2378 1403 2484 
z
M 1172 3481 
Q 1172 3119 1398 2916 
Q 1625 2713 2034 2713 
Q 2441 2713 2670 2916 
Q 2900 3119 2900 3481 
Q 2900 3844 2670 4047 
Q 2441 4250 2034 4250 
Q 1625 4250 1398 4047 
Q 1172 3844 1172 3481 
z
" id="DejaVuSans-38" transform="scale(0.015625)"/>
      </defs>
      <use transform="translate(0 0.78125)" xlink:href="#DejaVuSans-Oblique-6e"/>
      <use transform="translate(63.378906 -15.625)scale(0.7)" xlink:href="#DejaVuSans-Oblique-6d"/>
      <use transform="translate(131.567383 -15.625)scale(0.7)" xlink:href="#DejaVuSans-Oblique-61"/>
      <use transform="translate(174.462891 -15.625)scale(0.7)" xlink:href="#DejaVuSans-Oblique-78"/>
      <use transform="translate(238.105469 0.78125)" xlink:href="#DejaVuSans-3d"/>
      <use transform="translate(341.376953 0.78125)" xlink:href="#DejaVuSans-34"/>
      <use transform="translate(405 0.78125)" xlink:href="#DejaVuSans-2e"/>
      <use transform="translate(434.162109 0.78125)" xlink:href="#DejaVuSans-38"/>
      <use transform="translate(497.785156 0.78125)" xlink:href="#DejaVuSans-30"/>
     </g>
    </g>
    <g id="line2d_21">
     <path d="M 321.52 83.926688 
L 341.52 83.926688 
" style="fill:none;stroke:#ff0000;stroke-linecap:square;stroke-width:1.5;"/>
    </g>
    <g id="line2d_22"/>
    <g id="text_17">
     <!-- Estol -->
     <g transform="translate(349.52 87.426688)scale(0.1 -0.1)">
      <defs>
       <path d="M 628 4666 
L 3578 4666 
L 3578 4134 
L 1259 4134 
L 1259 2753 
L 3481 2753 
L 3481 2222 
L 1259 2222 
L 1259 531 
L 3634 531 
L 3634 0 
L 628 0 
L 628 4666 
z
" id="DejaVuSans-45" transform="scale(0.015625)"/>
       <path d="M 1172 4494 
L 1172 3500 
L 2356 3500 
L 2356 3053 
L 1172 3053 
L 1172 1153 
Q 1172 725 1289 603 
Q 1406 481 1766 481 
L 2356 481 
L 2356 0 
L 1766 0 
Q 1100 0 847 248 
Q 594 497 594 1153 
L 594 3053 
L 172 3053 
L 172 3500 
L 594 3500 
L 594 4494 
L 1172 4494 
z
" id="DejaVuSans-74" transform="scale(0.015625)"/>
       <path d="M 1959 3097 
Q 1497 3097 1228 2736 
Q 959 2375 959 1747 
Q 959 1119 1226 758 
Q 1494 397 1959 397 
Q 2419 397 2687 759 
Q 2956 1122 2956 1747 
Q 2956 2369 2687 2733 
Q 2419 3097 1959 3097 
z
M 1959 3584 
Q 2709 3584 3137 3096 
Q 3566 2609 3566 1747 
Q 3566 888 3137 398 
Q 2709 -91 1959 -91 
Q 1206 -91 779 398 
Q 353 888 353 1747 
Q 353 2609 779 3096 
Q 1206 3584 1959 3584 
z
" id="DejaVuSans-6f" transform="scale(0.015625)"/>
       <path d="M 603 4863 
L 1178 4863 
L 1178 0 
L 603 0 
L 603 4863 
z
" id="DejaVuSans-6c" transform="scale(0.015625)"/>
      </defs>
      <use xlink:href="#DejaVuSans-45"/>
      <use x="63.183594" xlink:href="#DejaVuSans-73"/>
      <use x="115.283203" xlink:href="#DejaVuSans-74"/>
      <use x="154.492188" xlink:href="#DejaVuSans-6f"/>
      <use x="215.673828" xlink:href="#DejaVuSans-6c"/>
     </g>
    </g>
   </g>
  </g>
 </g>
 <defs>
  <clipPath id="pe083a71865">
   <rect height="266.112" width="357.12" x="57.6" y="41.472"/>
  </clipPath>
 </defs>
</svg>
