<?xml version="1.0" encoding="utf-8" standalone="no"?>
<!DOCTYPE svg PUBLIC "-//W3C//DTD SVG 1.1//EN"
  "http://www.w3.org/Graphics/SVG/1.1/DTD/svg11.dtd">
<svg height="345.6pt" version="1.1" viewBox="0 0 460.8 345.6" width="460.8pt" xmlns="http://www.w3.org/2000/svg" xmlns:xlink="http://www.w3.org/1999/xlink">
 <metadata>
  <rdf:RDF xmlns:cc="http://creativecommons.org/ns#" xmlns:dc="http://purl.org/dc/elements/1.1/" xmlns:rdf="http://www.w3.org/1999/02/22-rdf-syntax-ns#">
   <cc:Work>
    <dc:type rdf:resource="http://purl.org/dc/dcmitype/StillImage"/>
    <dc:date>2021-07-26T15:54:20.708894</dc:date>
    <dc:format>image/svg+xml</dc:format>
    <dc:creator>
     <cc:Agent>
      <dc:title>Matplotlib v3.4.2, https://matplotlib.org/</dc:title>
     </cc:Agent>
    </dc:creator>
   </cc:Work>
  </rdf:RDF>
 </metadata>
 <defs>
  <style type="text/css">*{stroke-linecap:butt;stroke-linejoin:round;}</style>
 </defs>
 <g id="figure_1">
  <g id="patch_1">
   <path d="M 0 345.6 
L 460.8 345.6 
L 460.8 0 
L 0 0 
z
" style="fill:#ffffff;"/>
  </g>
  <g id="axes_1">
   <g id="patch_2">
    <path d="M 57.6 307.584 
L 414.72 307.584 
L 414.72 41.472 
L 57.6 41.472 
z
" style="fill:#ffffff;"/>
   </g>
   <g id="matplotlib.axis_1">
    <g id="xtick_1">
     <g id="line2d_1">
      <defs>
       <path d="M 0 0 
L 0 3.5 
" id="m773effb469" style="stroke:#000000;stroke-width:0.8;"/>
      </defs>
      <g>
       <use style="stroke:#000000;stroke-width:0.8;" x="106.298182" xlink:href="#m773effb469" y="307.584"/>
      </g>
     </g>
     <g id="text_1">
      <!-- 50 -->
      <g transform="translate(99.935682 322.182437)scale(0.1 -0.1)">
       <defs>
        <path d="M 691 4666 
L 3169 4666 
L 3169 4134 
L 1269 4134 
L 1269 2991 
Q 1406 3038 1543 3061 
Q 1681 3084 1819 3084 
Q 2600 3084 3056 2656 
Q 3513 2228 3513 1497 
Q 3513 744 3044 326 
Q 2575 -91 1722 -91 
Q 1428 -91 1123 -41 
Q 819 9 494 109 
L 494 744 
Q 775 591 1075 516 
Q 1375 441 1709 441 
Q 2250 441 2565 725 
Q 2881 1009 2881 1497 
Q 2881 1984 2565 2268 
Q 2250 2553 1709 2553 
Q 1456 2553 1204 2497 
Q 953 2441 691 2322 
L 691 4666 
z
" id="DejaVuSans-35" transform="scale(0.015625)"/>
        <path d="M 2034 4250 
Q 1547 4250 1301 3770 
Q 1056 3291 1056 2328 
Q 1056 1369 1301 889 
Q 1547 409 2034 409 
Q 2525 409 2770 889 
Q 3016 1369 3016 2328 
Q 3016 3291 2770 3770 
Q 2525 4250 2034 4250 
z
M 2034 4750 
Q 2819 4750 3233 4129 
Q 3647 3509 3647 2328 
Q 3647 1150 3233 529 
Q 2819 -91 2034 -91 
Q 1250 -91 836 529 
Q 422 1150 422 2328 
Q 422 3509 836 4129 
Q 1250 4750 2034 4750 
z
" id="DejaVuSans-30" transform="scale(0.015625)"/>
       </defs>
       <use xlink:href="#DejaVuSans-35"/>
       <use x="63.623047" xlink:href="#DejaVuSans-30"/>
      </g>
     </g>
    </g>
    <g id="xtick_2">
     <g id="line2d_2">
      <g>
       <use style="stroke:#000000;stroke-width:0.8;" x="160.407273" xlink:href="#m773effb469" y="307.584"/>
      </g>
     </g>
     <g id="text_2">
      <!-- 100 -->
      <g transform="translate(150.863523 322.182437)scale(0.1 -0.1)">
       <defs>
        <path d="M 794 531 
L 1825 531 
L 1825 4091 
L 703 3866 
L 703 4441 
L 1819 4666 
L 2450 4666 
L 2450 531 
L 3481 531 
L 3481 0 
L 794 0 
L 794 531 
z
" id="DejaVuSans-31" transform="scale(0.015625)"/>
       </defs>
       <use xlink:href="#DejaVuSans-31"/>
       <use x="63.623047" xlink:href="#DejaVuSans-30"/>
       <use x="127.246094" xlink:href="#DejaVuSans-30"/>
      </g>
     </g>
    </g>
    <g id="xtick_3">
     <g id="line2d_3">
      <g>
       <use style="stroke:#000000;stroke-width:0.8;" x="214.516364" xlink:href="#m773effb469" y="307.584"/>
      </g>
     </g>
     <g id="text_3">
      <!-- 150 -->
      <g transform="translate(204.972614 322.182437)scale(0.1 -0.1)">
       <use xlink:href="#DejaVuSans-31"/>
       <use x="63.623047" xlink:href="#DejaVuSans-35"/>
       <use x="127.246094" xlink:href="#DejaVuSans-30"/>
      </g>
     </g>
    </g>
    <g id="xtick_4">
     <g id="line2d_4">
      <g>
       <use style="stroke:#000000;stroke-width:0.8;" x="268.625455" xlink:href="#m773effb469" y="307.584"/>
      </g>
     </g>
     <g id="text_4">
      <!-- 200 -->
      <g transform="translate(259.081705 322.182437)scale(0.1 -0.1)">
       <defs>
        <path d="M 1228 531 
L 3431 531 
L 3431 0 
L 469 0 
L 469 531 
Q 828 903 1448 1529 
Q 2069 2156 2228 2338 
Q 2531 2678 2651 2914 
Q 2772 3150 2772 3378 
Q 2772 3750 2511 3984 
Q 2250 4219 1831 4219 
Q 1534 4219 1204 4116 
Q 875 4013 500 3803 
L 500 4441 
Q 881 4594 1212 4672 
Q 1544 4750 1819 4750 
Q 2544 4750 2975 4387 
Q 3406 4025 3406 3419 
Q 3406 3131 3298 2873 
Q 3191 2616 2906 2266 
Q 2828 2175 2409 1742 
Q 1991 1309 1228 531 
z
" id="DejaVuSans-32" transform="scale(0.015625)"/>
       </defs>
       <use xlink:href="#DejaVuSans-32"/>
       <use x="63.623047" xlink:href="#DejaVuSans-30"/>
       <use x="127.246094" xlink:href="#DejaVuSans-30"/>
      </g>
     </g>
    </g>
    <g id="xtick_5">
     <g id="line2d_5">
      <g>
       <use style="stroke:#000000;stroke-width:0.8;" x="322.734545" xlink:href="#m773effb469" y="307.584"/>
      </g>
     </g>
     <g id="text_5">
      <!-- 250 -->
      <g transform="translate(313.190795 322.182437)scale(0.1 -0.1)">
       <use xlink:href="#DejaVuSans-32"/>
       <use x="63.623047" xlink:href="#DejaVuSans-35"/>
       <use x="127.246094" xlink:href="#DejaVuSans-30"/>
      </g>
     </g>
    </g>
    <g id="xtick_6">
     <g id="line2d_6">
      <g>
       <use style="stroke:#000000;stroke-width:0.8;" x="376.843636" xlink:href="#m773effb469" y="307.584"/>
      </g>
     </g>
     <g id="text_6">
      <!-- 300 -->
      <g transform="translate(367.299886 322.182437)scale(0.1 -0.1)">
       <defs>
        <path d="M 2597 2516 
Q 3050 2419 3304 2112 
Q 3559 1806 3559 1356 
Q 3559 666 3084 287 
Q 2609 -91 1734 -91 
Q 1441 -91 1130 -33 
Q 819 25 488 141 
L 488 750 
Q 750 597 1062 519 
Q 1375 441 1716 441 
Q 2309 441 2620 675 
Q 2931 909 2931 1356 
Q 2931 1769 2642 2001 
Q 2353 2234 1838 2234 
L 1294 2234 
L 1294 2753 
L 1863 2753 
Q 2328 2753 2575 2939 
Q 2822 3125 2822 3475 
Q 2822 3834 2567 4026 
Q 2313 4219 1838 4219 
Q 1578 4219 1281 4162 
Q 984 4106 628 3988 
L 628 4550 
Q 988 4650 1302 4700 
Q 1616 4750 1894 4750 
Q 2613 4750 3031 4423 
Q 3450 4097 3450 3541 
Q 3450 3153 3228 2886 
Q 3006 2619 2597 2516 
z
" id="DejaVuSans-33" transform="scale(0.015625)"/>
       </defs>
       <use xlink:href="#DejaVuSans-33"/>
       <use x="63.623047" xlink:href="#DejaVuSans-30"/>
       <use x="127.246094" xlink:href="#DejaVuSans-30"/>
      </g>
     </g>
    </g>
    <g id="text_7">
     <!-- V [m/s] -->
     <g transform="translate(218.089687 335.860562)scale(0.1 -0.1)">
      <defs>
       <path d="M 1831 0 
L 50 4666 
L 709 4666 
L 2188 738 
L 3669 4666 
L 4325 4666 
L 2547 0 
L 1831 0 
z
" id="DejaVuSans-56" transform="scale(0.015625)"/>
       <path id="DejaVuSans-20" transform="scale(0.015625)"/>
       <path d="M 550 4863 
L 1875 4863 
L 1875 4416 
L 1125 4416 
L 1125 -397 
L 1875 -397 
L 1875 -844 
L 550 -844 
L 550 4863 
z
" id="DejaVuSans-5b" transform="scale(0.015625)"/>
       <path d="M 3328 2828 
Q 3544 3216 3844 3400 
Q 4144 3584 4550 3584 
Q 5097 3584 5394 3201 
Q 5691 2819 5691 2113 
L 5691 0 
L 5113 0 
L 5113 2094 
Q 5113 2597 4934 2840 
Q 4756 3084 4391 3084 
Q 3944 3084 3684 2787 
Q 3425 2491 3425 1978 
L 3425 0 
L 2847 0 
L 2847 2094 
Q 2847 2600 2669 2842 
Q 2491 3084 2119 3084 
Q 1678 3084 1418 2786 
Q 1159 2488 1159 1978 
L 1159 0 
L 581 0 
L 581 3500 
L 1159 3500 
L 1159 2956 
Q 1356 3278 1631 3431 
Q 1906 3584 2284 3584 
Q 2666 3584 2933 3390 
Q 3200 3197 3328 2828 
z
" id="DejaVuSans-6d" transform="scale(0.015625)"/>
       <path d="M 1625 4666 
L 2156 4666 
L 531 -594 
L 0 -594 
L 1625 4666 
z
" id="DejaVuSans-2f" transform="scale(0.015625)"/>
       <path d="M 2834 3397 
L 2834 2853 
Q 2591 2978 2328 3040 
Q 2066 3103 1784 3103 
Q 1356 3103 1142 2972 
Q 928 2841 928 2578 
Q 928 2378 1081 2264 
Q 1234 2150 1697 2047 
L 1894 2003 
Q 2506 1872 2764 1633 
Q 3022 1394 3022 966 
Q 3022 478 2636 193 
Q 2250 -91 1575 -91 
Q 1294 -91 989 -36 
Q 684 19 347 128 
L 347 722 
Q 666 556 975 473 
Q 1284 391 1588 391 
Q 1994 391 2212 530 
Q 2431 669 2431 922 
Q 2431 1156 2273 1281 
Q 2116 1406 1581 1522 
L 1381 1569 
Q 847 1681 609 1914 
Q 372 2147 372 2553 
Q 372 3047 722 3315 
Q 1072 3584 1716 3584 
Q 2034 3584 2315 3537 
Q 2597 3491 2834 3397 
z
" id="DejaVuSans-73" transform="scale(0.015625)"/>
       <path d="M 1947 4863 
L 1947 -844 
L 622 -844 
L 622 -397 
L 1369 -397 
L 1369 4416 
L 622 4416 
L 622 4863 
L 1947 4863 
z
" id="DejaVuSans-5d" transform="scale(0.015625)"/>
      </defs>
      <use xlink:href="#DejaVuSans-56"/>
      <use x="68.408203" xlink:href="#DejaVuSans-20"/>
      <use x="100.195312" xlink:href="#DejaVuSans-5b"/>
      <use x="139.208984" xlink:href="#DejaVuSans-6d"/>
      <use x="236.621094" xlink:href="#DejaVuSans-2f"/>
      <use x="270.3125" xlink:href="#DejaVuSans-73"/>
      <use x="322.412109" xlink:href="#DejaVuSans-5d"/>
     </g>
    </g>
   </g>
   <g id="matplotlib.axis_2">
    <g id="ytick_1">
     <g id="line2d_7">
      <defs>
       <path d="M 0 0 
L -3.5 0 
" id="mc19daff065" style="stroke:#000000;stroke-width:0.8;"/>
      </defs>
      <g>
       <use style="stroke:#000000;stroke-width:0.8;" x="57.6" xlink:href="#mc19daff065" y="307.584"/>
      </g>
     </g>
     <g id="text_8">
      <!-- 0.0 -->
      <g transform="translate(34.696875 311.383219)scale(0.1 -0.1)">
       <defs>
        <path d="M 684 794 
L 1344 794 
L 1344 0 
L 684 0 
L 684 794 
z
" id="DejaVuSans-2e" transform="scale(0.015625)"/>
       </defs>
       <use xlink:href="#DejaVuSans-30"/>
       <use x="63.623047" xlink:href="#DejaVuSans-2e"/>
       <use x="95.410156" xlink:href="#DejaVuSans-30"/>
      </g>
     </g>
    </g>
    <g id="ytick_2">
     <g id="line2d_8">
      <g>
       <use style="stroke:#000000;stroke-width:0.8;" x="57.6" xlink:href="#mc19daff065" y="254.3616"/>
      </g>
     </g>
     <g id="text_9">
      <!-- 0.1 -->
      <g transform="translate(34.696875 258.160819)scale(0.1 -0.1)">
       <use xlink:href="#DejaVuSans-30"/>
       <use x="63.623047" xlink:href="#DejaVuSans-2e"/>
       <use x="95.410156" xlink:href="#DejaVuSans-31"/>
      </g>
     </g>
    </g>
    <g id="ytick_3">
     <g id="line2d_9">
      <g>
       <use style="stroke:#000000;stroke-width:0.8;" x="57.6" xlink:href="#mc19daff065" y="201.1392"/>
      </g>
     </g>
     <g id="text_10">
      <!-- 0.2 -->
      <g transform="translate(34.696875 204.938419)scale(0.1 -0.1)">
       <use xlink:href="#DejaVuSans-30"/>
       <use x="63.623047" xlink:href="#DejaVuSans-2e"/>
       <use x="95.410156" xlink:href="#DejaVuSans-32"/>
      </g>
     </g>
    </g>
    <g id="ytick_4">
     <g id="line2d_10">
      <g>
       <use style="stroke:#000000;stroke-width:0.8;" x="57.6" xlink:href="#mc19daff065" y="147.9168"/>
      </g>
     </g>
     <g id="text_11">
      <!-- 0.3 -->
      <g transform="translate(34.696875 151.716019)scale(0.1 -0.1)">
       <use xlink:href="#DejaVuSans-30"/>
       <use x="63.623047" xlink:href="#DejaVuSans-2e"/>
       <use x="95.410156" xlink:href="#DejaVuSans-33"/>
      </g>
     </g>
    </g>
    <g id="ytick_5">
     <g id="line2d_11">
      <g>
       <use style="stroke:#000000;stroke-width:0.8;" x="57.6" xlink:href="#mc19daff065" y="94.6944"/>
      </g>
     </g>
     <g id="text_12">
      <!-- 0.4 -->
      <g transform="translate(34.696875 98.493619)scale(0.1 -0.1)">
       <defs>
        <path d="M 2419 4116 
L 825 1625 
L 2419 1625 
L 2419 4116 
z
M 2253 4666 
L 3047 4666 
L 3047 1625 
L 3713 1625 
L 3713 1100 
L 3047 1100 
L 3047 0 
L 2419 0 
L 2419 1100 
L 313 1100 
L 313 1709 
L 2253 4666 
z
" id="DejaVuSans-34" transform="scale(0.015625)"/>
       </defs>
       <use xlink:href="#DejaVuSans-30"/>
       <use x="63.623047" xlink:href="#DejaVuSans-2e"/>
       <use x="95.410156" xlink:href="#DejaVuSans-34"/>
      </g>
     </g>
    </g>
    <g id="ytick_6">
     <g id="line2d_12">
      <g>
       <use style="stroke:#000000;stroke-width:0.8;" x="57.6" xlink:href="#mc19daff065" y="41.472"/>
      </g>
     </g>
     <g id="text_13">
      <!-- 0.5 -->
      <g transform="translate(34.696875 45.271219)scale(0.1 -0.1)">
       <use xlink:href="#DejaVuSans-30"/>
       <use x="63.623047" xlink:href="#DejaVuSans-2e"/>
       <use x="95.410156" xlink:href="#DejaVuSans-35"/>
      </g>
     </g>
    </g>
    <g id="text_14">
     <!-- $\omega$ [rad/s] -->
     <g transform="translate(28.617187 196.828)rotate(-90)scale(0.1 -0.1)">
      <defs>
       <path d="M 1369 -91 
Q 72 -91 434 1766 
Q 575 2500 1256 3500 
L 1875 3500 
Q 1231 2500 1088 1750 
Q 819 397 1519 397 
Q 2166 397 2478 2078 
L 3009 2078 
Q 2669 388 3316 397 
Q 4013 403 4275 1750 
Q 4419 2500 4169 3500 
L 4788 3500 
Q 5075 2500 4934 1766 
Q 4578 -94 3278 -91 
Q 2428 -88 2503 844 
Q 2194 -91 1369 -91 
z
" id="DejaVuSans-Oblique-3c9" transform="scale(0.015625)"/>
       <path d="M 2631 2963 
Q 2534 3019 2420 3045 
Q 2306 3072 2169 3072 
Q 1681 3072 1420 2755 
Q 1159 2438 1159 1844 
L 1159 0 
L 581 0 
L 581 3500 
L 1159 3500 
L 1159 2956 
Q 1341 3275 1631 3429 
Q 1922 3584 2338 3584 
Q 2397 3584 2469 3576 
Q 2541 3569 2628 3553 
L 2631 2963 
z
" id="DejaVuSans-72" transform="scale(0.015625)"/>
       <path d="M 2194 1759 
Q 1497 1759 1228 1600 
Q 959 1441 959 1056 
Q 959 750 1161 570 
Q 1363 391 1709 391 
Q 2188 391 2477 730 
Q 2766 1069 2766 1631 
L 2766 1759 
L 2194 1759 
z
M 3341 1997 
L 3341 0 
L 2766 0 
L 2766 531 
Q 2569 213 2275 61 
Q 1981 -91 1556 -91 
Q 1019 -91 701 211 
Q 384 513 384 1019 
Q 384 1609 779 1909 
Q 1175 2209 1959 2209 
L 2766 2209 
L 2766 2266 
Q 2766 2663 2505 2880 
Q 2244 3097 1772 3097 
Q 1472 3097 1187 3025 
Q 903 2953 641 2809 
L 641 3341 
Q 956 3463 1253 3523 
Q 1550 3584 1831 3584 
Q 2591 3584 2966 3190 
Q 3341 2797 3341 1997 
z
" id="DejaVuSans-61" transform="scale(0.015625)"/>
       <path d="M 2906 2969 
L 2906 4863 
L 3481 4863 
L 3481 0 
L 2906 0 
L 2906 525 
Q 2725 213 2448 61 
Q 2172 -91 1784 -91 
Q 1150 -91 751 415 
Q 353 922 353 1747 
Q 353 2572 751 3078 
Q 1150 3584 1784 3584 
Q 2172 3584 2448 3432 
Q 2725 3281 2906 2969 
z
M 947 1747 
Q 947 1113 1208 752 
Q 1469 391 1925 391 
Q 2381 391 2643 752 
Q 2906 1113 2906 1747 
Q 2906 2381 2643 2742 
Q 2381 3103 1925 3103 
Q 1469 3103 1208 2742 
Q 947 2381 947 1747 
z
" id="DejaVuSans-64" transform="scale(0.015625)"/>
      </defs>
      <use transform="translate(0 0.015625)" xlink:href="#DejaVuSans-Oblique-3c9"/>
      <use transform="translate(83.740234 0.015625)" xlink:href="#DejaVuSans-20"/>
      <use transform="translate(115.527344 0.015625)" xlink:href="#DejaVuSans-5b"/>
      <use transform="translate(154.541016 0.015625)" xlink:href="#DejaVuSans-72"/>
      <use transform="translate(195.654297 0.015625)" xlink:href="#DejaVuSans-61"/>
      <use transform="translate(256.933594 0.015625)" xlink:href="#DejaVuSans-64"/>
      <use transform="translate(320.410156 0.015625)" xlink:href="#DejaVuSans-2f"/>
      <use transform="translate(354.101562 0.015625)" xlink:href="#DejaVuSans-73"/>
      <use transform="translate(406.201172 0.015625)" xlink:href="#DejaVuSans-5d"/>
     </g>
    </g>
   </g>
   <g id="line2d_13">
    <path clip-path="url(#p36850b65ed)" d="M 151.642157 307.584 
L 152.474138 300.439489 
L 153.308077 297.543503 
L 154.144023 295.363579 
L 154.982029 293.560451 
L 155.822148 292.001685 
L 156.664434 290.618845 
L 157.508944 289.37097 
L 158.355735 288.231172 
L 159.204865 287.180633 
L 160.056394 286.205553 
L 160.910385 285.295436 
L 161.7669 284.442071 
L 162.626004 283.638882 
L 163.487763 282.880502 
L 164.352248 282.162476 
L 165.219527 281.48106 
L 166.089673 280.833068 
L 166.962761 280.215757 
L 167.838867 279.626751 
L 168.71807 279.06397 
L 169.600452 278.525583 
L 170.486095 278.009966 
L 171.375087 277.515673 
L 172.267517 277.041408 
L 173.163475 276.586003 
L 174.063059 276.148405 
L 174.966364 275.727658 
L 175.873493 275.32289 
L 176.784551 274.933306 
L 177.699645 274.558179 
L 178.61889 274.19684 
L 179.542399 273.848674 
L 180.470296 273.513113 
L 181.402704 273.189633 
L 182.339753 272.877749 
L 183.281579 272.577011 
L 184.228322 272.287001 
L 185.180128 272.007331 
L 186.137148 271.737639 
L 187.099542 271.477589 
L 188.067473 271.226868 
L 189.041115 270.985183 
L 190.020646 270.752262 
L 191.006256 270.52785 
L 191.998139 270.31171 
L 192.996502 270.103621 
L 194.001561 269.903378 
L 195.013541 269.710788 
L 196.03268 269.525674 
L 197.059228 269.347871 
L 198.093447 269.177225 
L 199.135614 269.013596 
L 200.18602 268.856853 
L 201.244974 268.706879 
L 202.312801 268.563565 
L 203.389846 268.426813 
L 204.476475 268.296537 
L 205.573076 268.17266 
L 206.680062 268.055114 
L 207.797873 267.943842 
L 208.926978 267.8388 
L 210.067879 267.739949 
L 211.221112 267.647266 
L 212.387254 267.560735 
L 213.566925 267.480354 
L 214.760793 267.406132 
L 215.969579 267.338091 
L 217.194065 267.276265 
L 218.435098 267.220705 
L 219.693604 267.171476 
L 220.970591 267.12866 
L 222.267166 267.092358 
L 223.584545 267.062692 
L 224.924071 267.039808 
L 226.287233 267.023877 
L 227.67569 267.015099 
L 229.091297 267.013711 
L 230.536143 267.019987 
L 232.012589 267.03425 
L 233.523329 267.056877 
L 235.071449 267.088309 
L 236.660524 267.129069 
L 238.294722 267.179777 
L 239.978961 267.241174 
L 241.719109 267.314156 
L 243.522265 267.399816 
L 245.397149 267.499508 
L 247.354682 267.614938 
L 249.408846 267.748302 
L 251.578043 267.902499 
L 253.887343 268.08149 
L 256.372453 268.290925 
L 259.087369 268.539351 
L 262.121017 268.840845 
L 265.640576 269.221849 
L 270.045831 269.745501 
L 277.251883 270.713537 
L 282.461764 271.310255 
L 282.757574 271.120113 
" style="fill:none;stroke:#000000;stroke-linecap:square;stroke-width:1.5;"/>
   </g>
   <g id="line2d_14">
    <path clip-path="url(#p36850b65ed)" d="M 364.331837 307.584 
L 364.057779 305.286599 
L 363.780311 304.325613 
L 363.499389 303.58178 
L 363.214967 302.949267 
L 362.927 302.387199 
L 362.63544 301.874671 
L 362.340237 301.399294 
L 362.041342 300.953018 
L 361.738702 300.530261 
L 361.432264 300.126971 
L 361.121972 299.740091 
L 360.807771 299.367252 
L 360.489602 299.006574 
L 360.167403 298.656532 
L 359.841114 298.315872 
L 359.510671 297.983546 
L 359.176006 297.658669 
L 358.837053 297.340483 
L 358.49374 297.028334 
L 358.145994 296.721653 
L 357.793742 296.419941 
L 357.436904 296.122756 
L 357.075401 295.829706 
L 356.70915 295.540437 
L 356.338064 295.254635 
L 355.962055 294.972013 
L 355.58103 294.69231 
L 355.194894 294.415288 
L 354.803548 294.140729 
L 354.406889 293.868431 
L 354.00481 293.598208 
L 353.5972 293.329886 
L 353.183945 293.063305 
L 352.764924 292.798312 
L 352.340014 292.534766 
L 351.909085 292.272531 
L 351.472001 292.011482 
L 351.028624 291.751496 
L 350.578805 291.492459 
L 350.122391 291.23426 
L 349.659225 290.976792 
L 349.189137 290.719955 
L 348.711954 290.463648 
L 348.227494 290.207776 
L 347.735564 289.952244 
L 347.235965 289.69696 
L 346.728485 289.441836 
L 346.212905 289.18678 
L 345.68899 288.931707 
L 345.156497 288.676527 
L 344.615168 288.421154 
L 344.064732 288.165501 
L 343.504901 287.90948 
L 342.935373 287.653002 
L 342.355826 287.395978 
L 341.76592 287.138317 
L 341.165295 286.879925 
L 340.553566 286.620709 
L 339.930327 286.36057 
L 339.295141 286.099407 
L 338.647543 285.837116 
L 337.987038 285.573588 
L 337.313093 285.308711 
L 336.625135 285.042365 
L 335.922549 284.774425 
L 335.204673 284.50476 
L 334.470788 284.233231 
L 333.720119 283.959688 
L 332.951821 283.683974 
L 332.164974 283.405917 
L 331.358574 283.125334 
L 330.531518 282.842028 
L 329.682595 282.555782 
L 328.810465 282.266361 
L 327.913644 281.973506 
L 326.990478 281.676931 
L 326.039115 281.37632 
L 325.057472 281.07132 
L 324.043189 280.761532 
L 322.993579 280.446507 
L 321.905559 280.12573 
L 320.775559 279.798613 
L 319.599414 279.464467 
L 318.372209 279.122488 
L 317.088082 278.771719 
L 315.739938 278.411005 
L 314.31906 278.038935 
L 312.814531 277.653746 
L 311.212374 277.253187 
L 309.494189 276.834307 
L 307.634912 276.393092 
L 305.598838 275.923844 
L 303.331976 275.417966 
L 300.745404 274.861334 
L 297.671947 274.227462 
L 293.711823 273.453167 
L 286.949933 272.236668 
L 282.453308 271.308923 
L 282.692198 271.109771 
" style="fill:none;stroke:#000000;stroke-linecap:square;stroke-width:1.5;"/>
   </g>
   <g id="line2d_15">
    <path clip-path="url(#p36850b65ed)" d="M 79.45825 -1 
L 80.358447 9.124104 
L 81.989877 25.46315 
L 83.621307 40.1061 
L 85.252736 53.304023 
L 86.884166 65.260762 
L 88.515596 76.143542 
L 90.147026 86.09084 
L 91.778456 95.218305 
L 93.409886 103.62328 
L 95.041316 111.388282 
L 96.672746 118.583724 
L 99.935605 131.49946 
L 103.198465 142.762864 
L 106.461325 152.67195 
L 109.724185 161.457132 
L 112.987044 169.299361 
L 116.249904 176.342722 
L 119.512764 182.703365 
L 122.775624 188.475968 
L 126.038483 193.738473 
L 129.301343 198.555632 
L 132.564203 202.981682 
L 135.827063 207.062397 
L 139.089922 210.836675 
L 142.352782 214.337784 
L 145.615642 217.594346 
L 148.878502 220.631117 
L 153.772791 224.820496 
L 158.667081 228.624743 
L 163.56137 232.094632 
L 168.45566 235.272388 
L 173.34995 238.193414 
L 178.244239 240.887613 
L 183.138529 243.380418 
L 189.664249 246.428056 
L 196.189968 249.199474 
L 202.715688 251.730595 
L 209.241407 254.051373 
L 217.398556 256.694525 
L 225.555706 259.088948 
L 233.712855 261.268174 
L 243.501434 263.637944 
L 253.290014 265.777016 
L 264.710023 268.023553 
L 276.130032 270.040963 
L 289.181471 272.108501 
L 302.23291 273.960201 
L 316.915779 275.82512 
L 333.230078 277.668709 
L 351.175806 279.464279 
L 370.752965 281.19236 
L 391.961553 282.839726 
L 398.487273 283.306012 
L 398.487273 283.306012 
" style="fill:none;stroke:#0000ff;stroke-linecap:square;stroke-width:1.5;"/>
   </g>
   <g id="line2d_16">
    <path clip-path="url(#p36850b65ed)" d="M 171.397001 307.584 
L 173.781395 294.24178 
L 176.119923 288.888902 
L 178.415133 284.886407 
L 180.669348 281.590846 
L 182.884688 278.749609 
L 185.063098 276.231615 
L 187.206365 273.958218 
L 189.316138 271.877747 
L 191.393939 269.954078 
L 193.441179 268.16078 
L 195.459168 266.477829 
L 197.449126 264.889638 
L 199.412188 263.383801 
L 201.349417 261.950262 
L 203.261807 260.580744 
L 205.15029 259.268347 
L 207.015739 258.007249 
L 208.858978 256.792493 
L 210.680782 255.61982 
L 212.481882 254.485543 
L 214.262968 253.386447 
L 216.024692 252.319713 
L 217.767673 251.282852 
L 219.492497 250.273658 
L 221.199718 249.290166 
L 222.889867 248.330618 
L 224.563444 247.393432 
L 226.220928 246.477184 
L 227.862774 245.580585 
L 229.489417 244.702463 
L 231.101271 243.841753 
L 232.698733 242.997481 
L 234.282181 242.168755 
L 235.851978 241.354759 
L 237.408471 240.554737 
L 238.951993 239.767997 
L 240.482862 238.993897 
L 242.001384 238.231842 
L 243.507855 237.481281 
L 245.002555 236.741701 
L 246.485758 236.012625 
L 247.957723 235.293608 
L 249.418703 234.584235 
L 250.868941 233.884115 
L 252.308669 233.192884 
L 253.738112 232.5102 
L 255.157489 231.835741 
L 256.567009 231.169206 
L 257.966874 230.510308 
L 259.35728 229.858779 
L 260.738417 229.214366 
L 262.110467 228.576827 
L 263.473607 227.945937 
L 264.828008 227.32148 
L 266.173838 226.703251 
L 267.511256 226.091058 
L 268.840417 225.484716 
L 270.161474 224.88405 
L 271.474573 224.288894 
L 272.779855 223.699088 
L 274.077459 223.114483 
L 275.367518 222.534932 
L 276.650164 221.960299 
L 277.925521 221.390452 
L 279.193713 220.825265 
L 280.45486 220.264616 
L 281.709077 219.708391 
L 282.956477 219.156479 
L 284.197171 218.608773 
L 285.431265 218.065173 
L 286.658864 217.525579 
L 287.880069 216.989899 
L 289.094979 216.458041 
L 290.30369 215.929919 
L 291.506297 215.405449 
L 292.70289 214.884551 
L 293.89356 214.367147 
L 295.078393 213.853162 
L 296.257474 213.342525 
L 297.430887 212.835164 
L 298.598711 212.331014 
L 299.761027 211.83001 
L 300.917912 211.332088 
L 302.06944 210.837188 
L 303.215686 210.345251 
L 304.356722 209.856222 
L 305.492618 209.370044 
L 306.623443 208.886664 
L 307.749264 208.406032 
L 308.870148 207.928096 
L 309.986158 207.45281 
L 311.097357 206.980125 
L 312.203808 206.509996 
L 313.30557 206.04238 
L 314.402703 205.577232 
L 315.495264 205.114513 
L 316.583311 204.65418 
L 317.666898 204.196194 
L 318.746081 203.740518 
" style="fill:none;stroke:#ff0000;stroke-linecap:square;stroke-width:1.5;"/>
   </g>
   <g id="patch_3">
    <path d="M 57.6 307.584 
L 57.6 41.472 
" style="fill:none;stroke:#000000;stroke-linecap:square;stroke-linejoin:miter;stroke-width:0.8;"/>
   </g>
   <g id="patch_4">
    <path d="M 414.72 307.584 
L 414.72 41.472 
" style="fill:none;stroke:#000000;stroke-linecap:square;stroke-linejoin:miter;stroke-width:0.8;"/>
   </g>
   <g id="patch_5">
    <path d="M 57.6 307.584 
L 414.72 307.584 
" style="fill:none;stroke:#000000;stroke-linecap:square;stroke-linejoin:miter;stroke-width:0.8;"/>
   </g>
   <g id="patch_6">
    <path d="M 57.6 41.472 
L 414.72 41.472 
" style="fill:none;stroke:#000000;stroke-linecap:square;stroke-linejoin:miter;stroke-width:0.8;"/>
   </g>
   <g id="legend_1">
    <g id="patch_7">
     <path d="M 313.671562 93.506375 
L 407.72 93.506375 
Q 409.72 93.506375 409.72 91.506375 
L 409.72 48.472 
Q 409.72 46.472 407.72 46.472 
L 313.671562 46.472 
Q 311.671562 46.472 311.671562 48.472 
L 311.671562 91.506375 
Q 311.671562 93.506375 313.671562 93.506375 
z
" style="fill:#ffffff;stroke:#cccccc;stroke-linejoin:miter;"/>
    </g>
    <g id="line2d_17">
     <path d="M 315.671562 54.570438 
L 335.671562 54.570438 
" style="fill:none;stroke:#000000;stroke-linecap:square;stroke-width:1.5;"/>
    </g>
    <g id="line2d_18"/>
    <g id="text_15">
     <!-- h = 10.0 km -->
     <g transform="translate(343.671562 58.070438)scale(0.1 -0.1)">
      <defs>
       <path d="M 3513 2113 
L 3513 0 
L 2938 0 
L 2938 2094 
Q 2938 2591 2744 2837 
Q 2550 3084 2163 3084 
Q 1697 3084 1428 2787 
Q 1159 2491 1159 1978 
L 1159 0 
L 581 0 
L 581 4863 
L 1159 4863 
L 1159 2956 
Q 1366 3272 1645 3428 
Q 1925 3584 2291 3584 
Q 2894 3584 3203 3211 
Q 3513 2838 3513 2113 
z
" id="DejaVuSans-68" transform="scale(0.015625)"/>
       <path d="M 678 2906 
L 4684 2906 
L 4684 2381 
L 678 2381 
L 678 2906 
z
M 678 1631 
L 4684 1631 
L 4684 1100 
L 678 1100 
L 678 1631 
z
" id="DejaVuSans-3d" transform="scale(0.015625)"/>
       <path d="M 581 4863 
L 1159 4863 
L 1159 1991 
L 2875 3500 
L 3609 3500 
L 1753 1863 
L 3688 0 
L 2938 0 
L 1159 1709 
L 1159 0 
L 581 0 
L 581 4863 
z
" id="DejaVuSans-6b" transform="scale(0.015625)"/>
      </defs>
      <use xlink:href="#DejaVuSans-68"/>
      <use x="63.378906" xlink:href="#DejaVuSans-20"/>
      <use x="95.166016" xlink:href="#DejaVuSans-3d"/>
      <use x="178.955078" xlink:href="#DejaVuSans-20"/>
      <use x="210.742188" xlink:href="#DejaVuSans-31"/>
      <use x="274.365234" xlink:href="#DejaVuSans-30"/>
      <use x="337.988281" xlink:href="#DejaVuSans-2e"/>
      <use x="369.775391" xlink:href="#DejaVuSans-30"/>
      <use x="433.398438" xlink:href="#DejaVuSans-20"/>
      <use x="465.185547" xlink:href="#DejaVuSans-6b"/>
      <use x="523.095703" xlink:href="#DejaVuSans-6d"/>
     </g>
    </g>
    <g id="line2d_19">
     <path d="M 315.671562 69.248563 
L 335.671562 69.248563 
" style="fill:none;stroke:#0000ff;stroke-linecap:square;stroke-width:1.5;"/>
    </g>
    <g id="line2d_20"/>
    <g id="text_16">
     <!-- $n_{max} = 1.79$ -->
     <g transform="translate(343.671562 72.748563)scale(0.1 -0.1)">
      <defs>
       <path d="M 3566 2113 
L 3156 0 
L 2578 0 
L 2988 2091 
Q 3016 2238 3031 2350 
Q 3047 2463 3047 2528 
Q 3047 2791 2881 2937 
Q 2716 3084 2419 3084 
Q 1956 3084 1622 2776 
Q 1288 2469 1184 1941 
L 800 0 
L 225 0 
L 903 3500 
L 1478 3500 
L 1363 2950 
Q 1603 3253 1940 3418 
Q 2278 3584 2650 3584 
Q 3113 3584 3367 3334 
Q 3622 3084 3622 2631 
Q 3622 2519 3608 2391 
Q 3594 2263 3566 2113 
z
" id="DejaVuSans-Oblique-6e" transform="scale(0.015625)"/>
       <path d="M 5747 2113 
L 5338 0 
L 4763 0 
L 5166 2094 
Q 5191 2228 5203 2325 
Q 5216 2422 5216 2491 
Q 5216 2772 5059 2928 
Q 4903 3084 4622 3084 
Q 4203 3084 3875 2770 
Q 3547 2456 3450 1953 
L 3066 0 
L 2491 0 
L 2900 2094 
Q 2925 2209 2937 2307 
Q 2950 2406 2950 2484 
Q 2950 2769 2794 2926 
Q 2638 3084 2363 3084 
Q 1938 3084 1609 2770 
Q 1281 2456 1184 1953 
L 800 0 
L 225 0 
L 909 3500 
L 1484 3500 
L 1375 2956 
Q 1609 3263 1923 3423 
Q 2238 3584 2597 3584 
Q 2978 3584 3223 3384 
Q 3469 3184 3519 2828 
Q 3781 3197 4126 3390 
Q 4472 3584 4856 3584 
Q 5306 3584 5551 3325 
Q 5797 3066 5797 2591 
Q 5797 2488 5784 2364 
Q 5772 2241 5747 2113 
z
" id="DejaVuSans-Oblique-6d" transform="scale(0.015625)"/>
       <path d="M 3438 1997 
L 3047 0 
L 2472 0 
L 2578 531 
Q 2325 219 2001 64 
Q 1678 -91 1281 -91 
Q 834 -91 548 182 
Q 263 456 263 884 
Q 263 1497 752 1853 
Q 1241 2209 2100 2209 
L 2900 2209 
L 2931 2363 
Q 2938 2388 2941 2417 
Q 2944 2447 2944 2509 
Q 2944 2788 2717 2942 
Q 2491 3097 2081 3097 
Q 1800 3097 1504 3025 
Q 1209 2953 897 2809 
L 997 3341 
Q 1322 3463 1633 3523 
Q 1944 3584 2234 3584 
Q 2853 3584 3176 3315 
Q 3500 3047 3500 2534 
Q 3500 2431 3484 2292 
Q 3469 2153 3438 1997 
z
M 2816 1759 
L 2241 1759 
Q 1534 1759 1195 1570 
Q 856 1381 856 984 
Q 856 709 1029 553 
Q 1203 397 1509 397 
Q 1978 397 2328 733 
Q 2678 1069 2791 1631 
L 2816 1759 
z
" id="DejaVuSans-Oblique-61" transform="scale(0.015625)"/>
       <path d="M 3841 3500 
L 2234 1784 
L 3219 0 
L 2559 0 
L 1819 1388 
L 531 0 
L -166 0 
L 1556 1844 
L 641 3500 
L 1300 3500 
L 1972 2234 
L 3144 3500 
L 3841 3500 
z
" id="DejaVuSans-Oblique-78" transform="scale(0.015625)"/>
       <path d="M 525 4666 
L 3525 4666 
L 3525 4397 
L 1831 0 
L 1172 0 
L 2766 4134 
L 525 4134 
L 525 4666 
z
" id="DejaVuSans-37" transform="scale(0.015625)"/>
       <path d="M 703 97 
L 703 672 
Q 941 559 1184 500 
Q 1428 441 1663 441 
Q 2288 441 2617 861 
Q 2947 1281 2994 2138 
Q 2813 1869 2534 1725 
Q 2256 1581 1919 1581 
Q 1219 1581 811 2004 
Q 403 2428 403 3163 
Q 403 3881 828 4315 
Q 1253 4750 1959 4750 
Q 2769 4750 3195 4129 
Q 3622 3509 3622 2328 
Q 3622 1225 3098 567 
Q 2575 -91 1691 -91 
Q 1453 -91 1209 -44 
Q 966 3 703 97 
z
M 1959 2075 
Q 2384 2075 2632 2365 
Q 2881 2656 2881 3163 
Q 2881 3666 2632 3958 
Q 2384 4250 1959 4250 
Q 1534 4250 1286 3958 
Q 1038 3666 1038 3163 
Q 1038 2656 1286 2365 
Q 1534 2075 1959 2075 
z
" id="DejaVuSans-39" transform="scale(0.015625)"/>
      </defs>
      <use transform="translate(0 0.78125)" xlink:href="#DejaVuSans-Oblique-6e"/>
      <use transform="translate(63.378906 -15.625)scale(0.7)" xlink:href="#DejaVuSans-Oblique-6d"/>
      <use transform="translate(131.567383 -15.625)scale(0.7)" xlink:href="#DejaVuSans-Oblique-61"/>
      <use transform="translate(174.462891 -15.625)scale(0.7)" xlink:href="#DejaVuSans-Oblique-78"/>
      <use transform="translate(238.105469 0.78125)" xlink:href="#DejaVuSans-3d"/>
      <use transform="translate(341.376953 0.78125)" xlink:href="#DejaVuSans-31"/>
      <use transform="translate(405 0.78125)" xlink:href="#DejaVuSans-2e"/>
      <use transform="translate(429.037109 0.78125)" xlink:href="#DejaVuSans-37"/>
      <use transform="translate(492.660156 0.78125)" xlink:href="#DejaVuSans-39"/>
     </g>
    </g>
    <g id="line2d_21">
     <path d="M 315.671562 83.926688 
L 335.671562 83.926688 
" style="fill:none;stroke:#ff0000;stroke-linecap:square;stroke-width:1.5;"/>
    </g>
    <g id="line2d_22"/>
    <g id="text_17">
     <!-- Estol -->
     <g transform="translate(343.671562 87.426688)scale(0.1 -0.1)">
      <defs>
       <path d="M 628 4666 
L 3578 4666 
L 3578 4134 
L 1259 4134 
L 1259 2753 
L 3481 2753 
L 3481 2222 
L 1259 2222 
L 1259 531 
L 3634 531 
L 3634 0 
L 628 0 
L 628 4666 
z
" id="DejaVuSans-45" transform="scale(0.015625)"/>
       <path d="M 1172 4494 
L 1172 3500 
L 2356 3500 
L 2356 3053 
L 1172 3053 
L 1172 1153 
Q 1172 725 1289 603 
Q 1406 481 1766 481 
L 2356 481 
L 2356 0 
L 1766 0 
Q 1100 0 847 248 
Q 594 497 594 1153 
L 594 3053 
L 172 3053 
L 172 3500 
L 594 3500 
L 594 4494 
L 1172 4494 
z
" id="DejaVuSans-74" transform="scale(0.015625)"/>
       <path d="M 1959 3097 
Q 1497 3097 1228 2736 
Q 959 2375 959 1747 
Q 959 1119 1226 758 
Q 1494 397 1959 397 
Q 2419 397 2687 759 
Q 2956 1122 2956 1747 
Q 2956 2369 2687 2733 
Q 2419 3097 1959 3097 
z
M 1959 3584 
Q 2709 3584 3137 3096 
Q 3566 2609 3566 1747 
Q 3566 888 3137 398 
Q 2709 -91 1959 -91 
Q 1206 -91 779 398 
Q 353 888 353 1747 
Q 353 2609 779 3096 
Q 1206 3584 1959 3584 
z
" id="DejaVuSans-6f" transform="scale(0.015625)"/>
       <path d="M 603 4863 
L 1178 4863 
L 1178 0 
L 603 0 
L 603 4863 
z
" id="DejaVuSans-6c" transform="scale(0.015625)"/>
      </defs>
      <use xlink:href="#DejaVuSans-45"/>
      <use x="63.183594" xlink:href="#DejaVuSans-73"/>
      <use x="115.283203" xlink:href="#DejaVuSans-74"/>
      <use x="154.492188" xlink:href="#DejaVuSans-6f"/>
      <use x="215.673828" xlink:href="#DejaVuSans-6c"/>
     </g>
    </g>
   </g>
  </g>
 </g>
 <defs>
  <clipPath id="p36850b65ed">
   <rect height="266.112" width="357.12" x="57.6" y="41.472"/>
  </clipPath>
 </defs>
</svg>
