<?xml version="1.0" encoding="utf-8" standalone="no"?>
<!DOCTYPE svg PUBLIC "-//W3C//DTD SVG 1.1//EN"
  "http://www.w3.org/Graphics/SVG/1.1/DTD/svg11.dtd">
<svg height="345.6pt" version="1.1" viewBox="0 0 460.8 345.6" width="460.8pt" xmlns="http://www.w3.org/2000/svg" xmlns:xlink="http://www.w3.org/1999/xlink">
 <metadata>
  <rdf:RDF xmlns:cc="http://creativecommons.org/ns#" xmlns:dc="http://purl.org/dc/elements/1.1/" xmlns:rdf="http://www.w3.org/1999/02/22-rdf-syntax-ns#">
   <cc:Work>
    <dc:type rdf:resource="http://purl.org/dc/dcmitype/StillImage"/>
    <dc:date>2021-07-25T17:23:05.088370</dc:date>
    <dc:format>image/svg+xml</dc:format>
    <dc:creator>
     <cc:Agent>
      <dc:title>Matplotlib v3.4.2, https://matplotlib.org/</dc:title>
     </cc:Agent>
    </dc:creator>
   </cc:Work>
  </rdf:RDF>
 </metadata>
 <defs>
  <style type="text/css">*{stroke-linecap:butt;stroke-linejoin:round;}</style>
 </defs>
 <g id="figure_1">
  <g id="patch_1">
   <path d="M 0 345.6 
L 460.8 345.6 
L 460.8 0 
L 0 0 
z
" style="fill:#ffffff;"/>
  </g>
  <g id="axes_1">
   <g id="patch_2">
    <path d="M 57.6 307.584 
L 414.72 307.584 
L 414.72 41.472 
L 57.6 41.472 
z
" style="fill:#ffffff;"/>
   </g>
   <g id="matplotlib.axis_1">
    <g id="xtick_1">
     <g id="line2d_1">
      <path clip-path="url(#p0d7a3ac5b6)" d="M 111.239752 307.584 
L 111.239752 41.472 
" style="fill:none;stroke:#b0b0b0;stroke-linecap:square;stroke-width:0.8;"/>
     </g>
     <g id="line2d_2">
      <defs>
       <path d="M 0 0 
L 0 3.5 
" id="me112e189c2" style="stroke:#000000;stroke-width:0.8;"/>
      </defs>
      <g>
       <use style="stroke:#000000;stroke-width:0.8;" x="111.239752" xlink:href="#me112e189c2" y="307.584"/>
      </g>
     </g>
     <g id="text_1">
      <!-- 0.2 -->
      <g transform="translate(103.288189 322.182437)scale(0.1 -0.1)">
       <defs>
        <path d="M 2034 4250 
Q 1547 4250 1301 3770 
Q 1056 3291 1056 2328 
Q 1056 1369 1301 889 
Q 1547 409 2034 409 
Q 2525 409 2770 889 
Q 3016 1369 3016 2328 
Q 3016 3291 2770 3770 
Q 2525 4250 2034 4250 
z
M 2034 4750 
Q 2819 4750 3233 4129 
Q 3647 3509 3647 2328 
Q 3647 1150 3233 529 
Q 2819 -91 2034 -91 
Q 1250 -91 836 529 
Q 422 1150 422 2328 
Q 422 3509 836 4129 
Q 1250 4750 2034 4750 
z
" id="DejaVuSans-30" transform="scale(0.015625)"/>
        <path d="M 684 794 
L 1344 794 
L 1344 0 
L 684 0 
L 684 794 
z
" id="DejaVuSans-2e" transform="scale(0.015625)"/>
        <path d="M 1228 531 
L 3431 531 
L 3431 0 
L 469 0 
L 469 531 
Q 828 903 1448 1529 
Q 2069 2156 2228 2338 
Q 2531 2678 2651 2914 
Q 2772 3150 2772 3378 
Q 2772 3750 2511 3984 
Q 2250 4219 1831 4219 
Q 1534 4219 1204 4116 
Q 875 4013 500 3803 
L 500 4441 
Q 881 4594 1212 4672 
Q 1544 4750 1819 4750 
Q 2544 4750 2975 4387 
Q 3406 4025 3406 3419 
Q 3406 3131 3298 2873 
Q 3191 2616 2906 2266 
Q 2828 2175 2409 1742 
Q 1991 1309 1228 531 
z
" id="DejaVuSans-32" transform="scale(0.015625)"/>
       </defs>
       <use xlink:href="#DejaVuSans-30"/>
       <use x="63.623047" xlink:href="#DejaVuSans-2e"/>
       <use x="95.410156" xlink:href="#DejaVuSans-32"/>
      </g>
     </g>
    </g>
    <g id="xtick_2">
     <g id="line2d_3">
      <path clip-path="url(#p0d7a3ac5b6)" d="M 186.104064 307.584 
L 186.104064 41.472 
" style="fill:none;stroke:#b0b0b0;stroke-linecap:square;stroke-width:0.8;"/>
     </g>
     <g id="line2d_4">
      <g>
       <use style="stroke:#000000;stroke-width:0.8;" x="186.104064" xlink:href="#me112e189c2" y="307.584"/>
      </g>
     </g>
     <g id="text_2">
      <!-- 0.4 -->
      <g transform="translate(178.152501 322.182437)scale(0.1 -0.1)">
       <defs>
        <path d="M 2419 4116 
L 825 1625 
L 2419 1625 
L 2419 4116 
z
M 2253 4666 
L 3047 4666 
L 3047 1625 
L 3713 1625 
L 3713 1100 
L 3047 1100 
L 3047 0 
L 2419 0 
L 2419 1100 
L 313 1100 
L 313 1709 
L 2253 4666 
z
" id="DejaVuSans-34" transform="scale(0.015625)"/>
       </defs>
       <use xlink:href="#DejaVuSans-30"/>
       <use x="63.623047" xlink:href="#DejaVuSans-2e"/>
       <use x="95.410156" xlink:href="#DejaVuSans-34"/>
      </g>
     </g>
    </g>
    <g id="xtick_3">
     <g id="line2d_5">
      <path clip-path="url(#p0d7a3ac5b6)" d="M 260.968376 307.584 
L 260.968376 41.472 
" style="fill:none;stroke:#b0b0b0;stroke-linecap:square;stroke-width:0.8;"/>
     </g>
     <g id="line2d_6">
      <g>
       <use style="stroke:#000000;stroke-width:0.8;" x="260.968376" xlink:href="#me112e189c2" y="307.584"/>
      </g>
     </g>
     <g id="text_3">
      <!-- 0.6 -->
      <g transform="translate(253.016813 322.182437)scale(0.1 -0.1)">
       <defs>
        <path d="M 2113 2584 
Q 1688 2584 1439 2293 
Q 1191 2003 1191 1497 
Q 1191 994 1439 701 
Q 1688 409 2113 409 
Q 2538 409 2786 701 
Q 3034 994 3034 1497 
Q 3034 2003 2786 2293 
Q 2538 2584 2113 2584 
z
M 3366 4563 
L 3366 3988 
Q 3128 4100 2886 4159 
Q 2644 4219 2406 4219 
Q 1781 4219 1451 3797 
Q 1122 3375 1075 2522 
Q 1259 2794 1537 2939 
Q 1816 3084 2150 3084 
Q 2853 3084 3261 2657 
Q 3669 2231 3669 1497 
Q 3669 778 3244 343 
Q 2819 -91 2113 -91 
Q 1303 -91 875 529 
Q 447 1150 447 2328 
Q 447 3434 972 4092 
Q 1497 4750 2381 4750 
Q 2619 4750 2861 4703 
Q 3103 4656 3366 4563 
z
" id="DejaVuSans-36" transform="scale(0.015625)"/>
       </defs>
       <use xlink:href="#DejaVuSans-30"/>
       <use x="63.623047" xlink:href="#DejaVuSans-2e"/>
       <use x="95.410156" xlink:href="#DejaVuSans-36"/>
      </g>
     </g>
    </g>
    <g id="xtick_4">
     <g id="line2d_7">
      <path clip-path="url(#p0d7a3ac5b6)" d="M 335.832688 307.584 
L 335.832688 41.472 
" style="fill:none;stroke:#b0b0b0;stroke-linecap:square;stroke-width:0.8;"/>
     </g>
     <g id="line2d_8">
      <g>
       <use style="stroke:#000000;stroke-width:0.8;" x="335.832688" xlink:href="#me112e189c2" y="307.584"/>
      </g>
     </g>
     <g id="text_4">
      <!-- 0.8 -->
      <g transform="translate(327.881126 322.182437)scale(0.1 -0.1)">
       <defs>
        <path d="M 2034 2216 
Q 1584 2216 1326 1975 
Q 1069 1734 1069 1313 
Q 1069 891 1326 650 
Q 1584 409 2034 409 
Q 2484 409 2743 651 
Q 3003 894 3003 1313 
Q 3003 1734 2745 1975 
Q 2488 2216 2034 2216 
z
M 1403 2484 
Q 997 2584 770 2862 
Q 544 3141 544 3541 
Q 544 4100 942 4425 
Q 1341 4750 2034 4750 
Q 2731 4750 3128 4425 
Q 3525 4100 3525 3541 
Q 3525 3141 3298 2862 
Q 3072 2584 2669 2484 
Q 3125 2378 3379 2068 
Q 3634 1759 3634 1313 
Q 3634 634 3220 271 
Q 2806 -91 2034 -91 
Q 1263 -91 848 271 
Q 434 634 434 1313 
Q 434 1759 690 2068 
Q 947 2378 1403 2484 
z
M 1172 3481 
Q 1172 3119 1398 2916 
Q 1625 2713 2034 2713 
Q 2441 2713 2670 2916 
Q 2900 3119 2900 3481 
Q 2900 3844 2670 4047 
Q 2441 4250 2034 4250 
Q 1625 4250 1398 4047 
Q 1172 3844 1172 3481 
z
" id="DejaVuSans-38" transform="scale(0.015625)"/>
       </defs>
       <use xlink:href="#DejaVuSans-30"/>
       <use x="63.623047" xlink:href="#DejaVuSans-2e"/>
       <use x="95.410156" xlink:href="#DejaVuSans-38"/>
      </g>
     </g>
    </g>
    <g id="xtick_5">
     <g id="line2d_9">
      <path clip-path="url(#p0d7a3ac5b6)" d="M 410.697 307.584 
L 410.697 41.472 
" style="fill:none;stroke:#b0b0b0;stroke-linecap:square;stroke-width:0.8;"/>
     </g>
     <g id="line2d_10">
      <g>
       <use style="stroke:#000000;stroke-width:0.8;" x="410.697" xlink:href="#me112e189c2" y="307.584"/>
      </g>
     </g>
     <g id="text_5">
      <!-- 1.0 -->
      <g transform="translate(402.745438 322.182437)scale(0.1 -0.1)">
       <defs>
        <path d="M 794 531 
L 1825 531 
L 1825 4091 
L 703 3866 
L 703 4441 
L 1819 4666 
L 2450 4666 
L 2450 531 
L 3481 531 
L 3481 0 
L 794 0 
L 794 531 
z
" id="DejaVuSans-31" transform="scale(0.015625)"/>
       </defs>
       <use xlink:href="#DejaVuSans-31"/>
       <use x="63.623047" xlink:href="#DejaVuSans-2e"/>
       <use x="95.410156" xlink:href="#DejaVuSans-30"/>
      </g>
     </g>
    </g>
    <g id="text_6">
     <!-- Mach -->
     <g transform="translate(222.863906 335.860562)scale(0.1 -0.1)">
      <defs>
       <path d="M 628 4666 
L 1569 4666 
L 2759 1491 
L 3956 4666 
L 4897 4666 
L 4897 0 
L 4281 0 
L 4281 4097 
L 3078 897 
L 2444 897 
L 1241 4097 
L 1241 0 
L 628 0 
L 628 4666 
z
" id="DejaVuSans-4d" transform="scale(0.015625)"/>
       <path d="M 2194 1759 
Q 1497 1759 1228 1600 
Q 959 1441 959 1056 
Q 959 750 1161 570 
Q 1363 391 1709 391 
Q 2188 391 2477 730 
Q 2766 1069 2766 1631 
L 2766 1759 
L 2194 1759 
z
M 3341 1997 
L 3341 0 
L 2766 0 
L 2766 531 
Q 2569 213 2275 61 
Q 1981 -91 1556 -91 
Q 1019 -91 701 211 
Q 384 513 384 1019 
Q 384 1609 779 1909 
Q 1175 2209 1959 2209 
L 2766 2209 
L 2766 2266 
Q 2766 2663 2505 2880 
Q 2244 3097 1772 3097 
Q 1472 3097 1187 3025 
Q 903 2953 641 2809 
L 641 3341 
Q 956 3463 1253 3523 
Q 1550 3584 1831 3584 
Q 2591 3584 2966 3190 
Q 3341 2797 3341 1997 
z
" id="DejaVuSans-61" transform="scale(0.015625)"/>
       <path d="M 3122 3366 
L 3122 2828 
Q 2878 2963 2633 3030 
Q 2388 3097 2138 3097 
Q 1578 3097 1268 2742 
Q 959 2388 959 1747 
Q 959 1106 1268 751 
Q 1578 397 2138 397 
Q 2388 397 2633 464 
Q 2878 531 3122 666 
L 3122 134 
Q 2881 22 2623 -34 
Q 2366 -91 2075 -91 
Q 1284 -91 818 406 
Q 353 903 353 1747 
Q 353 2603 823 3093 
Q 1294 3584 2113 3584 
Q 2378 3584 2631 3529 
Q 2884 3475 3122 3366 
z
" id="DejaVuSans-63" transform="scale(0.015625)"/>
       <path d="M 3513 2113 
L 3513 0 
L 2938 0 
L 2938 2094 
Q 2938 2591 2744 2837 
Q 2550 3084 2163 3084 
Q 1697 3084 1428 2787 
Q 1159 2491 1159 1978 
L 1159 0 
L 581 0 
L 581 4863 
L 1159 4863 
L 1159 2956 
Q 1366 3272 1645 3428 
Q 1925 3584 2291 3584 
Q 2894 3584 3203 3211 
Q 3513 2838 3513 2113 
z
" id="DejaVuSans-68" transform="scale(0.015625)"/>
      </defs>
      <use xlink:href="#DejaVuSans-4d"/>
      <use x="86.279297" xlink:href="#DejaVuSans-61"/>
      <use x="147.558594" xlink:href="#DejaVuSans-63"/>
      <use x="202.539062" xlink:href="#DejaVuSans-68"/>
     </g>
    </g>
   </g>
   <g id="matplotlib.axis_2">
    <g id="ytick_1">
     <g id="line2d_11">
      <path clip-path="url(#p0d7a3ac5b6)" d="M 57.6 295.488 
L 414.72 295.488 
" style="fill:none;stroke:#b0b0b0;stroke-linecap:square;stroke-width:0.8;"/>
     </g>
     <g id="line2d_12">
      <defs>
       <path d="M 0 0 
L -3.5 0 
" id="mb469b850da" style="stroke:#000000;stroke-width:0.8;"/>
      </defs>
      <g>
       <use style="stroke:#000000;stroke-width:0.8;" x="57.6" xlink:href="#mb469b850da" y="295.488"/>
      </g>
     </g>
     <g id="text_7">
      <!-- 0 -->
      <g transform="translate(44.2375 299.287219)scale(0.1 -0.1)">
       <use xlink:href="#DejaVuSans-30"/>
      </g>
     </g>
    </g>
    <g id="ytick_2">
     <g id="line2d_13">
      <path clip-path="url(#p0d7a3ac5b6)" d="M 57.6 244.263815 
L 414.72 244.263815 
" style="fill:none;stroke:#b0b0b0;stroke-linecap:square;stroke-width:0.8;"/>
     </g>
     <g id="line2d_14">
      <g>
       <use style="stroke:#000000;stroke-width:0.8;" x="57.6" xlink:href="#mb469b850da" y="244.263815"/>
      </g>
     </g>
     <g id="text_8">
      <!-- 10000 -->
      <g transform="translate(18.7875 248.063034)scale(0.1 -0.1)">
       <use xlink:href="#DejaVuSans-31"/>
       <use x="63.623047" xlink:href="#DejaVuSans-30"/>
       <use x="127.246094" xlink:href="#DejaVuSans-30"/>
       <use x="190.869141" xlink:href="#DejaVuSans-30"/>
       <use x="254.492188" xlink:href="#DejaVuSans-30"/>
      </g>
     </g>
    </g>
    <g id="ytick_3">
     <g id="line2d_15">
      <path clip-path="url(#p0d7a3ac5b6)" d="M 57.6 193.039631 
L 414.72 193.039631 
" style="fill:none;stroke:#b0b0b0;stroke-linecap:square;stroke-width:0.8;"/>
     </g>
     <g id="line2d_16">
      <g>
       <use style="stroke:#000000;stroke-width:0.8;" x="57.6" xlink:href="#mb469b850da" y="193.039631"/>
      </g>
     </g>
     <g id="text_9">
      <!-- 20000 -->
      <g transform="translate(18.7875 196.83885)scale(0.1 -0.1)">
       <use xlink:href="#DejaVuSans-32"/>
       <use x="63.623047" xlink:href="#DejaVuSans-30"/>
       <use x="127.246094" xlink:href="#DejaVuSans-30"/>
       <use x="190.869141" xlink:href="#DejaVuSans-30"/>
       <use x="254.492188" xlink:href="#DejaVuSans-30"/>
      </g>
     </g>
    </g>
    <g id="ytick_4">
     <g id="line2d_17">
      <path clip-path="url(#p0d7a3ac5b6)" d="M 57.6 141.815446 
L 414.72 141.815446 
" style="fill:none;stroke:#b0b0b0;stroke-linecap:square;stroke-width:0.8;"/>
     </g>
     <g id="line2d_18">
      <g>
       <use style="stroke:#000000;stroke-width:0.8;" x="57.6" xlink:href="#mb469b850da" y="141.815446"/>
      </g>
     </g>
     <g id="text_10">
      <!-- 30000 -->
      <g transform="translate(18.7875 145.614665)scale(0.1 -0.1)">
       <defs>
        <path d="M 2597 2516 
Q 3050 2419 3304 2112 
Q 3559 1806 3559 1356 
Q 3559 666 3084 287 
Q 2609 -91 1734 -91 
Q 1441 -91 1130 -33 
Q 819 25 488 141 
L 488 750 
Q 750 597 1062 519 
Q 1375 441 1716 441 
Q 2309 441 2620 675 
Q 2931 909 2931 1356 
Q 2931 1769 2642 2001 
Q 2353 2234 1838 2234 
L 1294 2234 
L 1294 2753 
L 1863 2753 
Q 2328 2753 2575 2939 
Q 2822 3125 2822 3475 
Q 2822 3834 2567 4026 
Q 2313 4219 1838 4219 
Q 1578 4219 1281 4162 
Q 984 4106 628 3988 
L 628 4550 
Q 988 4650 1302 4700 
Q 1616 4750 1894 4750 
Q 2613 4750 3031 4423 
Q 3450 4097 3450 3541 
Q 3450 3153 3228 2886 
Q 3006 2619 2597 2516 
z
" id="DejaVuSans-33" transform="scale(0.015625)"/>
       </defs>
       <use xlink:href="#DejaVuSans-33"/>
       <use x="63.623047" xlink:href="#DejaVuSans-30"/>
       <use x="127.246094" xlink:href="#DejaVuSans-30"/>
       <use x="190.869141" xlink:href="#DejaVuSans-30"/>
       <use x="254.492188" xlink:href="#DejaVuSans-30"/>
      </g>
     </g>
    </g>
    <g id="ytick_5">
     <g id="line2d_19">
      <path clip-path="url(#p0d7a3ac5b6)" d="M 57.6 90.591262 
L 414.72 90.591262 
" style="fill:none;stroke:#b0b0b0;stroke-linecap:square;stroke-width:0.8;"/>
     </g>
     <g id="line2d_20">
      <g>
       <use style="stroke:#000000;stroke-width:0.8;" x="57.6" xlink:href="#mb469b850da" y="90.591262"/>
      </g>
     </g>
     <g id="text_11">
      <!-- 40000 -->
      <g transform="translate(18.7875 94.390481)scale(0.1 -0.1)">
       <use xlink:href="#DejaVuSans-34"/>
       <use x="63.623047" xlink:href="#DejaVuSans-30"/>
       <use x="127.246094" xlink:href="#DejaVuSans-30"/>
       <use x="190.869141" xlink:href="#DejaVuSans-30"/>
       <use x="254.492188" xlink:href="#DejaVuSans-30"/>
      </g>
     </g>
    </g>
    <g id="text_12">
     <!-- h [ft] -->
     <g transform="translate(12.707813 186.820188)rotate(-90)scale(0.1 -0.1)">
      <defs>
       <path id="DejaVuSans-20" transform="scale(0.015625)"/>
       <path d="M 550 4863 
L 1875 4863 
L 1875 4416 
L 1125 4416 
L 1125 -397 
L 1875 -397 
L 1875 -844 
L 550 -844 
L 550 4863 
z
" id="DejaVuSans-5b" transform="scale(0.015625)"/>
       <path d="M 2375 4863 
L 2375 4384 
L 1825 4384 
Q 1516 4384 1395 4259 
Q 1275 4134 1275 3809 
L 1275 3500 
L 2222 3500 
L 2222 3053 
L 1275 3053 
L 1275 0 
L 697 0 
L 697 3053 
L 147 3053 
L 147 3500 
L 697 3500 
L 697 3744 
Q 697 4328 969 4595 
Q 1241 4863 1831 4863 
L 2375 4863 
z
" id="DejaVuSans-66" transform="scale(0.015625)"/>
       <path d="M 1172 4494 
L 1172 3500 
L 2356 3500 
L 2356 3053 
L 1172 3053 
L 1172 1153 
Q 1172 725 1289 603 
Q 1406 481 1766 481 
L 2356 481 
L 2356 0 
L 1766 0 
Q 1100 0 847 248 
Q 594 497 594 1153 
L 594 3053 
L 172 3053 
L 172 3500 
L 594 3500 
L 594 4494 
L 1172 4494 
z
" id="DejaVuSans-74" transform="scale(0.015625)"/>
       <path d="M 1947 4863 
L 1947 -844 
L 622 -844 
L 622 -397 
L 1369 -397 
L 1369 4416 
L 622 4416 
L 622 4863 
L 1947 4863 
z
" id="DejaVuSans-5d" transform="scale(0.015625)"/>
      </defs>
      <use xlink:href="#DejaVuSans-68"/>
      <use x="63.378906" xlink:href="#DejaVuSans-20"/>
      <use x="95.166016" xlink:href="#DejaVuSans-5b"/>
      <use x="134.179688" xlink:href="#DejaVuSans-66"/>
      <use x="167.634766" xlink:href="#DejaVuSans-74"/>
      <use x="206.84375" xlink:href="#DejaVuSans-5d"/>
     </g>
    </g>
   </g>
   <g id="line2d_21">
    <path clip-path="url(#p0d7a3ac5b6)" d="M 73.832727 295.488 
L 74.165269 293.975475 
L 76.878661 282.21139 
L 79.661108 271.119539 
L 82.770283 259.691571 
L 85.775122 249.52404 
L 90.039282 236.33146 
L 92.919248 228.180629 
L 93.046338 227.760484 
L 96.310769 219.105478 
L 98.771649 212.971348 
L 104.270839 200.198914 
L 107.56788 193.224492 
L 113.440395 181.628465 
L 116.989993 175.242248 
L 117.183117 174.822102 
L 120.745355 168.772001 
L 127.351264 158.268354 
L 131.709368 151.882137 
L 136.532727 145.243832 
L 141.275268 139.109702 
L 146.058012 133.311689 
L 150.919174 127.765763 
L 156.65299 121.631633 
L 157.405086 120.875371 
L 161.515992 116.757941 
L 166.465898 112.052307 
L 169.543528 109.363373 
L 175.778706 104.489681 
L 182.305528 99.700018 
L 188.765401 95.246472 
L 194.862941 91.2971 
L 199.502687 88.440108 
L 200.243636 88.019962 
L 203.864399 85.919233 
L 207.529319 83.818504 
L 208.207373 83.482387 
L 211.569754 81.633745 
L 212.287634 81.297628 
L 215.624926 79.533016 
L 216.229789 79.280928 
L 219.691666 77.516315 
L 220.336544 77.264228 
L 223.76804 75.583644 
L 224.455504 75.331557 
L 227.854834 73.735002 
L 228.584114 73.482915 
L 230.891096 72.474565 
L 232.543344 71.802331 
L 233.968294 71.130098 
L 234.768514 70.87801 
L 235.85642 70.373835 
L 236.679132 70.121748 
L 237.969131 69.533544 
L 238.818248 69.281456 
L 239.94393 68.777281 
L 240.818246 68.525193 
L 241.963574 68.021018 
L 242.864326 67.768931 
L 244.030481 67.264756 
L 244.959137 67.012668 
L 245.948407 66.592522 
L 246.904387 66.340435 
L 248.11272 65.83626 
L 249.09963 65.584172 
L 250.126199 65.164026 
L 251.143436 64.911939 
L 252.189218 64.491793 
L 253.238843 64.239705 
L 254.092697 63.903589 
L 254.957605 63.73553 
L 256.041092 63.315385 
L 256.936665 63.147326 
L 258.038631 62.72718 
L 258.967238 62.559122 
L 260.091778 62.138976 
L 261.052313 61.970918 
L 262.199026 61.550772 
L 263.195029 61.382713 
L 264.127473 61.046597 
L 265.162982 60.878538 
L 266.113697 60.542422 
L 267.18657 60.374363 
L 268.156131 60.038247 
L 269.269266 59.870188 
L 270.259937 59.534072 
L 271.415414 59.366013 
L 272.174347 59.113926 
L 273.371701 58.945867 
L 274.146756 58.69378 
L 275.38918 58.525721 
L 276.18169 58.273634 
L 277.472119 58.105576 
L 278.283793 57.853488 
L 279.626024 57.68543 
L 280.179861 57.517371 
L 281.573834 57.349313 
L 282.140591 57.181255 
L 283.590369 57.013196 
L 284.171287 56.845138 
L 285.681383 56.67708 
L 286.27802 56.509021 
L 287.853764 56.340963 
L 288.160005 56.256934 
L 289.801841 56.088875 
L 290.116057 56.004846 
L 291.828768 55.836788 
L 292.152252 55.752759 
L 295.472446 55.500671 
L 296.156373 55.332613 
L 301.600786 54.996496 
L 301.977925 54.912467 
L 311.143255 54.408292 
L 316.134972 53.568 
L 316.134972 53.568 
" style="fill:none;stroke:#000000;stroke-linecap:square;stroke-width:1.5;"/>
   </g>
   <g id="line2d_22">
    <path clip-path="url(#p0d7a3ac5b6)" d="M 352.973436 295.488 
L 361.713169 295.319942 
L 361.820174 294.815767 
L 371.436184 255.994287 
L 370.843575 255.910258 
L 370.864489 255.826229 
L 376.580106 232.298059 
L 377.343455 232.21403 
L 377.273669 232.130001 
L 377.585124 230.869563 
L 382.35155 210.618531 
L 385.840119 194.737017 
L 388.024867 183.645166 
L 389.016785 178.09924 
L 389.967922 178.015211 
L 389.880907 177.931182 
L 390.146652 176.502686 
L 391.962767 165.410834 
L 392.940398 157.764179 
L 392.967909 157.512092 
L 393.997438 157.428063 
L 393.89583 157.344033 
L 394.127645 155.747479 
L 394.81254 148.941116 
L 395.12805 143.647278 
L 396.222227 143.563248 
L 396.199606 143.479219 
L 396.38158 139.025673 
L 396.392064 133.899893 
L 396.370915 133.059601 
L 397.495881 132.891543 
L 397.278903 127.345617 
L 397.028049 124.488625 
L 398.203174 124.320567 
L 397.615747 119.362845 
L 397.262256 117.262116 
L 398.487273 117.094058 
L 397.638396 112.892599 
L 397.196337 111.127986 
L 398.432798 111.043957 
L 398.313931 110.959928 
L 398.148808 110.203665 
L 396.905317 107.514732 
L 395.577043 105.077885 
L 395.426093 104.825798 
L 396.692581 104.741769 
L 396.543663 104.657739 
L 396.017115 103.649389 
L 394.553731 101.212543 
L 393.937341 100.456281 
L 393.764404 100.372251 
L 393.816101 100.288222 
L 393.617608 99.868076 
L 393.367809 99.53196 
L 394.745454 99.447931 
L 394.605289 99.363901 
L 393.622964 97.935405 
L 391.889848 95.750647 
L 391.36925 95.162443 
L 392.795857 95.078413 
L 392.634406 94.994384 
L 391.550077 93.649917 
L 389.621102 91.633217 
L 389.357129 91.38113 
L 390.809134 91.2971 
L 390.66325 91.213071 
L 389.712403 90.204721 
L 389.29817 90.120692 
L 389.552432 90.036663 
L 389.174812 89.952634 
L 389.381852 89.868604 
L 389.046306 89.784575 
L 389.217677 89.700546 
L 388.942162 89.616517 
L 389.035586 89.532488 
L 388.674268 89.2804 
L 387.290674 88.019962 
L 388.944838 87.935933 
L 388.740138 87.851904 
L 388.463852 87.599817 
L 388.072719 87.431758 
L 386.458724 86.003262 
L 385.278571 85.078941 
L 386.807268 84.910883 
L 385.455424 83.902533 
L 383.186023 82.390008 
L 384.763708 82.221949 
L 381.52802 80.205249 
L 381.22362 80.037191 
L 382.856203 79.869132 
L 379.521706 78.02049 
L 379.177396 77.852432 
L 381.102191 77.768403 
L 380.865798 77.684374 
L 378.45475 76.423936 
L 377.078617 75.835732 
L 379.47183 75.751703 
L 378.836539 75.667673 
L 379.129622 75.583644 
L 376.084253 74.407236 
L 375.194313 74.071119 
L 377.758955 73.98709 
L 377.001647 73.903061 
L 376.652925 73.735002 
L 376.884113 73.650973 
L 376.253555 73.566944 
L 376.395989 73.482915 
L 373.1629 72.390536 
L 375.386275 72.306506 
L 375.078562 72.222477 
L 372.399026 71.214127 
L 370.97229 70.793981 
L 373.362407 70.709952 
L 373.03398 70.625923 
L 370.23273 69.701602 
L 368.934346 69.365485 
L 371.589681 69.281456 
L 371.381627 69.197427 
L 371.082827 69.113398 
L 370.122005 68.945339 
L 369.437255 68.693252 
L 367.169437 68.105048 
L 371.158816 67.936989 
L 370.132083 67.85296 
L 370.147658 67.768931 
L 364.992932 66.84461 
L 368.975807 66.760581 
L 368.675184 66.676552 
L 363.249539 65.752231 
L 369.139413 65.668201 
L 367.502644 65.584172 
L 362.854219 64.911939 
L 361.010994 64.659851 
L 367.179103 64.575822 
L 365.811846 64.491793 
L 356.832281 63.483443 
L 357.064625 63.399414 
L 357.020323 63.315385 
L 356.940393 63.231355 
L 361.442009 63.147326 
L 355.61076 62.72718 
L 354.678662 62.643151 
L 355.045078 62.475093 
L 354.840322 62.307034 
L 359.924535 62.223005 
L 351.741116 61.802859 
L 352.619971 61.634801 
L 352.565233 61.550772 
L 358.069569 61.466743 
L 357.032459 61.382713 
L 349.642118 60.962568 
L 349.652257 60.878538 
L 349.565968 60.794509 
L 357.438994 60.71048 
L 356.150477 60.626451 
L 343.213463 60.122276 
L 353.703861 59.870188 
L 350.879742 59.786159 
L 343.176824 59.618101 
L 348.961131 59.534072 
L 343.892433 59.450042 
L 351.042798 59.366013 
L 344.44018 59.197955 
L 346.858833 59.113926 
L 345.252757 59.029896 
L 339.679599 58.945867 
L 344.906253 58.861838 
L 342.510863 58.777809 
L 347.216236 58.69378 
L 342.601781 58.609751 
L 345.46745 58.525721 
L 343.001221 58.441692 
L 343.56652 58.357663 
L 343.649786 58.273634 
L 346.028851 58.189605 
L 337.35722 58.105576 
L 339.492554 58.021546 
L 343.034525 57.853488 
L 332.44285 57.769459 
L 339.452123 57.517371 
L 341.431421 57.433342 
L 332.944959 57.349313 
L 335.037963 57.265284 
L 336.805256 57.181255 
L 344.511692 57.097225 
L 330.966859 57.013196 
L 332.730823 56.929167 
L 335.489719 56.761109 
L 329.657908 56.67708 
L 331.014306 56.59305 
L 333.30546 56.424992 
L 328.506634 56.340963 
L 329.496366 56.256934 
L 331.635641 56.088875 
L 327.504787 56.004846 
L 328.358658 55.920817 
L 329.3305 55.836788 
L 325.789938 55.752759 
L 326.569526 55.668729 
L 327.422858 55.5847 
L 324.21341 55.500671 
L 325.001727 55.416642 
L 325.780334 55.332613 
L 322.934649 55.248584 
L 323.648813 55.164554 
L 321.113712 55.080525 
L 321.766502 54.996496 
L 311.726838 54.660379 
L 312.192438 54.57635 
L 318.433169 53.568 
L 318.433169 53.568 
" style="fill:none;stroke:#000000;stroke-linecap:square;stroke-width:1.5;"/>
   </g>
   <g id="line2d_23">
    <path clip-path="url(#p0d7a3ac5b6)" d="M 106.775096 295.488 
L 110.270299 281.875273 
L 113.84183 268.850751 
L 117.502798 256.330404 
L 121.270909 244.230202 
L 125.140362 232.550147 
L 129.104077 221.290237 
L 133.153621 210.450473 
L 137.313384 199.946826 
L 141.578003 189.779296 
L 145.941006 179.947882 
L 150.435262 170.368556 
L 155.015866 161.125346 
L 159.717994 152.134224 
L 164.537628 143.39519 
L 169.469848 134.908243 
L 174.561544 126.589355 
L 179.75855 118.522554 
L 185.111585 110.623811 
L 191.496663 101.632689 
L 198.154629 92.641567 
L 204.964721 83.818504 
L 211.99133 75.079469 
L 219.237786 66.424464 
L 226.632608 57.937517 
L 230.555231 53.568 
L 230.555231 53.568 
" style="fill:none;stroke:#ff0000;stroke-linecap:square;stroke-width:1.5;"/>
   </g>
   <g id="patch_3">
    <path d="M 57.6 307.584 
L 57.6 41.472 
" style="fill:none;stroke:#000000;stroke-linecap:square;stroke-linejoin:miter;stroke-width:0.8;"/>
   </g>
   <g id="patch_4">
    <path d="M 414.72 307.584 
L 414.72 41.472 
" style="fill:none;stroke:#000000;stroke-linecap:square;stroke-linejoin:miter;stroke-width:0.8;"/>
   </g>
   <g id="patch_5">
    <path d="M 57.6 307.584 
L 414.72 307.584 
" style="fill:none;stroke:#000000;stroke-linecap:square;stroke-linejoin:miter;stroke-width:0.8;"/>
   </g>
   <g id="patch_6">
    <path d="M 57.6 41.472 
L 414.72 41.472 
" style="fill:none;stroke:#000000;stroke-linecap:square;stroke-linejoin:miter;stroke-width:0.8;"/>
   </g>
   <g id="legend_1">
    <g id="patch_7">
     <path d="M 64.6 64.150125 
L 120.945312 64.150125 
Q 122.945312 64.150125 122.945312 62.150125 
L 122.945312 48.472 
Q 122.945312 46.472 120.945312 46.472 
L 64.6 46.472 
Q 62.6 46.472 62.6 48.472 
L 62.6 62.150125 
Q 62.6 64.150125 64.6 64.150125 
z
" style="fill:#ffffff;stroke:#cccccc;stroke-linejoin:miter;"/>
    </g>
    <g id="line2d_24">
     <path d="M 66.6 54.570438 
L 86.6 54.570438 
" style="fill:none;stroke:#ff0000;stroke-linecap:square;stroke-width:1.5;"/>
    </g>
    <g id="line2d_25"/>
    <g id="text_13">
     <!-- Estol -->
     <g transform="translate(94.6 58.070438)scale(0.1 -0.1)">
      <defs>
       <path d="M 628 4666 
L 3578 4666 
L 3578 4134 
L 1259 4134 
L 1259 2753 
L 3481 2753 
L 3481 2222 
L 1259 2222 
L 1259 531 
L 3634 531 
L 3634 0 
L 628 0 
L 628 4666 
z
" id="DejaVuSans-45" transform="scale(0.015625)"/>
       <path d="M 2834 3397 
L 2834 2853 
Q 2591 2978 2328 3040 
Q 2066 3103 1784 3103 
Q 1356 3103 1142 2972 
Q 928 2841 928 2578 
Q 928 2378 1081 2264 
Q 1234 2150 1697 2047 
L 1894 2003 
Q 2506 1872 2764 1633 
Q 3022 1394 3022 966 
Q 3022 478 2636 193 
Q 2250 -91 1575 -91 
Q 1294 -91 989 -36 
Q 684 19 347 128 
L 347 722 
Q 666 556 975 473 
Q 1284 391 1588 391 
Q 1994 391 2212 530 
Q 2431 669 2431 922 
Q 2431 1156 2273 1281 
Q 2116 1406 1581 1522 
L 1381 1569 
Q 847 1681 609 1914 
Q 372 2147 372 2553 
Q 372 3047 722 3315 
Q 1072 3584 1716 3584 
Q 2034 3584 2315 3537 
Q 2597 3491 2834 3397 
z
" id="DejaVuSans-73" transform="scale(0.015625)"/>
       <path d="M 1959 3097 
Q 1497 3097 1228 2736 
Q 959 2375 959 1747 
Q 959 1119 1226 758 
Q 1494 397 1959 397 
Q 2419 397 2687 759 
Q 2956 1122 2956 1747 
Q 2956 2369 2687 2733 
Q 2419 3097 1959 3097 
z
M 1959 3584 
Q 2709 3584 3137 3096 
Q 3566 2609 3566 1747 
Q 3566 888 3137 398 
Q 2709 -91 1959 -91 
Q 1206 -91 779 398 
Q 353 888 353 1747 
Q 353 2609 779 3096 
Q 1206 3584 1959 3584 
z
" id="DejaVuSans-6f" transform="scale(0.015625)"/>
       <path d="M 603 4863 
L 1178 4863 
L 1178 0 
L 603 0 
L 603 4863 
z
" id="DejaVuSans-6c" transform="scale(0.015625)"/>
      </defs>
      <use xlink:href="#DejaVuSans-45"/>
      <use x="63.183594" xlink:href="#DejaVuSans-73"/>
      <use x="115.283203" xlink:href="#DejaVuSans-74"/>
      <use x="154.492188" xlink:href="#DejaVuSans-6f"/>
      <use x="215.673828" xlink:href="#DejaVuSans-6c"/>
     </g>
    </g>
   </g>
  </g>
 </g>
 <defs>
  <clipPath id="p0d7a3ac5b6">
   <rect height="266.112" width="357.12" x="57.6" y="41.472"/>
  </clipPath>
 </defs>
</svg>
