<?xml version="1.0" encoding="UTF-8" standalone="no"?>
<svg
   height="345.6pt"
   version="1.1"
   viewBox="0 0 460.8 345.6"
   width="460.8pt"
   id="svg1838"
   sodipodi:docname="TD_vs_V_manobras.svg"
   inkscape:version="1.1 (c68e22c387, 2021-05-23)"
   xmlns:inkscape="http://www.inkscape.org/namespaces/inkscape"
   xmlns:sodipodi="http://sodipodi.sourceforge.net/DTD/sodipodi-0.dtd"
   xmlns:xlink="http://www.w3.org/1999/xlink"
   xmlns="http://www.w3.org/2000/svg"
   xmlns:svg="http://www.w3.org/2000/svg"
   xmlns:rdf="http://www.w3.org/1999/02/22-rdf-syntax-ns#"
   xmlns:cc="http://creativecommons.org/ns#"
   xmlns:dc="http://purl.org/dc/elements/1.1/">
  <sodipodi:namedview
     id="namedview1840"
     pagecolor="#ffffff"
     bordercolor="#666666"
     borderopacity="1.0"
     inkscape:pageshadow="2"
     inkscape:pageopacity="0.0"
     inkscape:pagecheckerboard="0"
     inkscape:document-units="pt"
     showgrid="false"
     inkscape:zoom="1.6232639"
     inkscape:cx="307.40535"
     inkscape:cy="230.4"
     inkscape:window-width="1920"
     inkscape:window-height="986"
     inkscape:window-x="-11"
     inkscape:window-y="-11"
     inkscape:window-maximized="1"
     inkscape:current-layer="svg1838" />
  <metadata
     id="metadata1333">
    <rdf:RDF>
      <cc:Work>
        <dc:type
           rdf:resource="http://purl.org/dc/dcmitype/StillImage" />
        <dc:date>2021-07-26T12:12:51.115267</dc:date>
        <dc:format>image/svg+xml</dc:format>
        <dc:creator>
          <cc:Agent>
            <dc:title>Matplotlib v3.4.2, https://matplotlib.org/</dc:title>
          </cc:Agent>
        </dc:creator>
      </cc:Work>
    </rdf:RDF>
  </metadata>
  <defs
     id="defs1337">
    <style
       type="text/css"
       id="style1335">*{stroke-linecap:butt;stroke-linejoin:round;}</style>
  </defs>
  <g
     id="figure_1">
    <g
       id="patch_1">
      <path
         d="M 0 345.6  L 460.8 345.6  L 460.8 0  L 0 0  z "
         style="fill:#ffffff;"
         id="path1339" />
    </g>
    <g
       id="axes_1">
      <g
         id="patch_2">
        <path
           d="M 57.6 307.584  L 414.72 307.584  L 414.72 41.472  L 57.6 41.472  z "
           style="fill:#ffffff;"
           id="path1342" />
      </g>
      <g
         id="matplotlib.axis_1">
        <g
           id="xtick_1">
          <g
             id="line2d_1">
            <defs
               id="defs1346">
              <path
                 d="M 0 0  L 0 3.5  "
                 id="mba0f01974b"
                 style="stroke:#000000;stroke-width:0.8;" />
            </defs>
            <g
               id="g1350">
              <use
                 style="stroke:#000000;stroke-width:0.8;"
                 x="106.298182"
                 xlink:href="#mba0f01974b"
                 y="307.584"
                 id="use1348" />
            </g>
          </g>
          <g
             id="text_1">
            <!-- 50 -->
            <g
               transform="translate(99.935682 322.182437)scale(0.1 -0.1)"
               id="g1361">
              <defs
                 id="defs1355">
                <path
                   d="M 691 4666  L 3169 4666  L 3169 4134  L 1269 4134  L 1269 2991  Q 1406 3038 1543 3061  Q 1681 3084 1819 3084  Q 2600 3084 3056 2656  Q 3513 2228 3513 1497  Q 3513 744 3044 326  Q 2575 -91 1722 -91  Q 1428 -91 1123 -41  Q 819 9 494 109  L 494 744  Q 775 591 1075 516  Q 1375 441 1709 441  Q 2250 441 2565 725  Q 2881 1009 2881 1497  Q 2881 1984 2565 2268  Q 2250 2553 1709 2553  Q 1456 2553 1204 2497  Q 953 2441 691 2322  L 691 4666  z "
                   id="DejaVuSans-35"
                   transform="scale(0.015625)" />
                <path
                   d="M 2034 4250  Q 1547 4250 1301 3770  Q 1056 3291 1056 2328  Q 1056 1369 1301 889  Q 1547 409 2034 409  Q 2525 409 2770 889  Q 3016 1369 3016 2328  Q 3016 3291 2770 3770  Q 2525 4250 2034 4250  z M 2034 4750  Q 2819 4750 3233 4129  Q 3647 3509 3647 2328  Q 3647 1150 3233 529  Q 2819 -91 2034 -91  Q 1250 -91 836 529  Q 422 1150 422 2328  Q 422 3509 836 4129  Q 1250 4750 2034 4750  z "
                   id="DejaVuSans-30"
                   transform="scale(0.015625)" />
              </defs>
              <use
                 xlink:href="#DejaVuSans-35"
                 id="use1357" />
              <use
                 x="63.623047"
                 xlink:href="#DejaVuSans-30"
                 id="use1359" />
            </g>
          </g>
        </g>
        <g
           id="xtick_2">
          <g
             id="line2d_2">
            <g
               id="g1367">
              <use
                 style="stroke:#000000;stroke-width:0.8;"
                 x="160.407273"
                 xlink:href="#mba0f01974b"
                 y="307.584"
                 id="use1365" />
            </g>
          </g>
          <g
             id="text_2">
            <!-- 100 -->
            <g
               transform="translate(150.863523 322.182437)scale(0.1 -0.1)"
               id="g1379">
              <defs
                 id="defs1371">
                <path
                   d="M 794 531  L 1825 531  L 1825 4091  L 703 3866  L 703 4441  L 1819 4666  L 2450 4666  L 2450 531  L 3481 531  L 3481 0  L 794 0  L 794 531  z "
                   id="DejaVuSans-31"
                   transform="scale(0.015625)" />
              </defs>
              <use
                 xlink:href="#DejaVuSans-31"
                 id="use1373" />
              <use
                 x="63.623047"
                 xlink:href="#DejaVuSans-30"
                 id="use1375" />
              <use
                 x="127.246094"
                 xlink:href="#DejaVuSans-30"
                 id="use1377" />
            </g>
          </g>
        </g>
        <g
           id="xtick_3">
          <g
             id="line2d_3">
            <g
               id="g1385">
              <use
                 style="stroke:#000000;stroke-width:0.8;"
                 x="214.516364"
                 xlink:href="#mba0f01974b"
                 y="307.584"
                 id="use1383" />
            </g>
          </g>
          <g
             id="text_3">
            <!-- 150 -->
            <g
               transform="translate(204.972614 322.182437)scale(0.1 -0.1)"
               id="g1394">
              <use
                 xlink:href="#DejaVuSans-31"
                 id="use1388" />
              <use
                 x="63.623047"
                 xlink:href="#DejaVuSans-35"
                 id="use1390" />
              <use
                 x="127.246094"
                 xlink:href="#DejaVuSans-30"
                 id="use1392" />
            </g>
          </g>
        </g>
        <g
           id="xtick_4">
          <g
             id="line2d_4">
            <g
               id="g1400">
              <use
                 style="stroke:#000000;stroke-width:0.8;"
                 x="268.625455"
                 xlink:href="#mba0f01974b"
                 y="307.584"
                 id="use1398" />
            </g>
          </g>
          <g
             id="text_4">
            <!-- 200 -->
            <g
               transform="translate(259.081705 322.182437)scale(0.1 -0.1)"
               id="g1412">
              <defs
                 id="defs1404">
                <path
                   d="M 1228 531  L 3431 531  L 3431 0  L 469 0  L 469 531  Q 828 903 1448 1529  Q 2069 2156 2228 2338  Q 2531 2678 2651 2914  Q 2772 3150 2772 3378  Q 2772 3750 2511 3984  Q 2250 4219 1831 4219  Q 1534 4219 1204 4116  Q 875 4013 500 3803  L 500 4441  Q 881 4594 1212 4672  Q 1544 4750 1819 4750  Q 2544 4750 2975 4387  Q 3406 4025 3406 3419  Q 3406 3131 3298 2873  Q 3191 2616 2906 2266  Q 2828 2175 2409 1742  Q 1991 1309 1228 531  z "
                   id="DejaVuSans-32"
                   transform="scale(0.015625)" />
              </defs>
              <use
                 xlink:href="#DejaVuSans-32"
                 id="use1406" />
              <use
                 x="63.623047"
                 xlink:href="#DejaVuSans-30"
                 id="use1408" />
              <use
                 x="127.246094"
                 xlink:href="#DejaVuSans-30"
                 id="use1410" />
            </g>
          </g>
        </g>
        <g
           id="xtick_5">
          <g
             id="line2d_5">
            <g
               id="g1418">
              <use
                 style="stroke:#000000;stroke-width:0.8;"
                 x="322.734545"
                 xlink:href="#mba0f01974b"
                 y="307.584"
                 id="use1416" />
            </g>
          </g>
          <g
             id="text_5">
            <!-- 250 -->
            <g
               transform="translate(313.190795 322.182437)scale(0.1 -0.1)"
               id="g1427">
              <use
                 xlink:href="#DejaVuSans-32"
                 id="use1421" />
              <use
                 x="63.623047"
                 xlink:href="#DejaVuSans-35"
                 id="use1423" />
              <use
                 x="127.246094"
                 xlink:href="#DejaVuSans-30"
                 id="use1425" />
            </g>
          </g>
        </g>
        <g
           id="xtick_6">
          <g
             id="line2d_6">
            <g
               id="g1433">
              <use
                 style="stroke:#000000;stroke-width:0.8;"
                 x="376.843636"
                 xlink:href="#mba0f01974b"
                 y="307.584"
                 id="use1431" />
            </g>
          </g>
          <g
             id="text_6">
            <!-- 300 -->
            <g
               transform="translate(367.299886 322.182437)scale(0.1 -0.1)"
               id="g1445">
              <defs
                 id="defs1437">
                <path
                   d="M 2597 2516  Q 3050 2419 3304 2112  Q 3559 1806 3559 1356  Q 3559 666 3084 287  Q 2609 -91 1734 -91  Q 1441 -91 1130 -33  Q 819 25 488 141  L 488 750  Q 750 597 1062 519  Q 1375 441 1716 441  Q 2309 441 2620 675  Q 2931 909 2931 1356  Q 2931 1769 2642 2001  Q 2353 2234 1838 2234  L 1294 2234  L 1294 2753  L 1863 2753  Q 2328 2753 2575 2939  Q 2822 3125 2822 3475  Q 2822 3834 2567 4026  Q 2313 4219 1838 4219  Q 1578 4219 1281 4162  Q 984 4106 628 3988  L 628 4550  Q 988 4650 1302 4700  Q 1616 4750 1894 4750  Q 2613 4750 3031 4423  Q 3450 4097 3450 3541  Q 3450 3153 3228 2886  Q 3006 2619 2597 2516  z "
                   id="DejaVuSans-33"
                   transform="scale(0.015625)" />
              </defs>
              <use
                 xlink:href="#DejaVuSans-33"
                 id="use1439" />
              <use
                 x="63.623047"
                 xlink:href="#DejaVuSans-30"
                 id="use1441" />
              <use
                 x="127.246094"
                 xlink:href="#DejaVuSans-30"
                 id="use1443" />
            </g>
          </g>
        </g>
        <g
           id="text_7">
          <!-- Velocity [m/s] -->
          <g
             transform="translate(201.894375 335.860562)scale(0.1 -0.1)"
             id="g1493">
            <defs
               id="defs1463">
              <path
                 d="M 1831 0  L 50 4666  L 709 4666  L 2188 738  L 3669 4666  L 4325 4666  L 2547 0  L 1831 0  z "
                 id="DejaVuSans-56"
                 transform="scale(0.015625)" />
              <path
                 d="M 3597 1894  L 3597 1613  L 953 1613  Q 991 1019 1311 708  Q 1631 397 2203 397  Q 2534 397 2845 478  Q 3156 559 3463 722  L 3463 178  Q 3153 47 2828 -22  Q 2503 -91 2169 -91  Q 1331 -91 842 396  Q 353 884 353 1716  Q 353 2575 817 3079  Q 1281 3584 2069 3584  Q 2775 3584 3186 3129  Q 3597 2675 3597 1894  z M 3022 2063  Q 3016 2534 2758 2815  Q 2500 3097 2075 3097  Q 1594 3097 1305 2825  Q 1016 2553 972 2059  L 3022 2063  z "
                 id="DejaVuSans-65"
                 transform="scale(0.015625)" />
              <path
                 d="M 603 4863  L 1178 4863  L 1178 0  L 603 0  L 603 4863  z "
                 id="DejaVuSans-6c"
                 transform="scale(0.015625)" />
              <path
                 d="M 1959 3097  Q 1497 3097 1228 2736  Q 959 2375 959 1747  Q 959 1119 1226 758  Q 1494 397 1959 397  Q 2419 397 2687 759  Q 2956 1122 2956 1747  Q 2956 2369 2687 2733  Q 2419 3097 1959 3097  z M 1959 3584  Q 2709 3584 3137 3096  Q 3566 2609 3566 1747  Q 3566 888 3137 398  Q 2709 -91 1959 -91  Q 1206 -91 779 398  Q 353 888 353 1747  Q 353 2609 779 3096  Q 1206 3584 1959 3584  z "
                 id="DejaVuSans-6f"
                 transform="scale(0.015625)" />
              <path
                 d="M 3122 3366  L 3122 2828  Q 2878 2963 2633 3030  Q 2388 3097 2138 3097  Q 1578 3097 1268 2742  Q 959 2388 959 1747  Q 959 1106 1268 751  Q 1578 397 2138 397  Q 2388 397 2633 464  Q 2878 531 3122 666  L 3122 134  Q 2881 22 2623 -34  Q 2366 -91 2075 -91  Q 1284 -91 818 406  Q 353 903 353 1747  Q 353 2603 823 3093  Q 1294 3584 2113 3584  Q 2378 3584 2631 3529  Q 2884 3475 3122 3366  z "
                 id="DejaVuSans-63"
                 transform="scale(0.015625)" />
              <path
                 d="M 603 3500  L 1178 3500  L 1178 0  L 603 0  L 603 3500  z M 603 4863  L 1178 4863  L 1178 4134  L 603 4134  L 603 4863  z "
                 id="DejaVuSans-69"
                 transform="scale(0.015625)" />
              <path
                 d="M 1172 4494  L 1172 3500  L 2356 3500  L 2356 3053  L 1172 3053  L 1172 1153  Q 1172 725 1289 603  Q 1406 481 1766 481  L 2356 481  L 2356 0  L 1766 0  Q 1100 0 847 248  Q 594 497 594 1153  L 594 3053  L 172 3053  L 172 3500  L 594 3500  L 594 4494  L 1172 4494  z "
                 id="DejaVuSans-74"
                 transform="scale(0.015625)" />
              <path
                 d="M 2059 -325  Q 1816 -950 1584 -1140  Q 1353 -1331 966 -1331  L 506 -1331  L 506 -850  L 844 -850  Q 1081 -850 1212 -737  Q 1344 -625 1503 -206  L 1606 56  L 191 3500  L 800 3500  L 1894 763  L 2988 3500  L 3597 3500  L 2059 -325  z "
                 id="DejaVuSans-79"
                 transform="scale(0.015625)" />
              <path
                 id="DejaVuSans-20"
                 transform="scale(0.015625)" />
              <path
                 d="M 550 4863  L 1875 4863  L 1875 4416  L 1125 4416  L 1125 -397  L 1875 -397  L 1875 -844  L 550 -844  L 550 4863  z "
                 id="DejaVuSans-5b"
                 transform="scale(0.015625)" />
              <path
                 d="M 3328 2828  Q 3544 3216 3844 3400  Q 4144 3584 4550 3584  Q 5097 3584 5394 3201  Q 5691 2819 5691 2113  L 5691 0  L 5113 0  L 5113 2094  Q 5113 2597 4934 2840  Q 4756 3084 4391 3084  Q 3944 3084 3684 2787  Q 3425 2491 3425 1978  L 3425 0  L 2847 0  L 2847 2094  Q 2847 2600 2669 2842  Q 2491 3084 2119 3084  Q 1678 3084 1418 2786  Q 1159 2488 1159 1978  L 1159 0  L 581 0  L 581 3500  L 1159 3500  L 1159 2956  Q 1356 3278 1631 3431  Q 1906 3584 2284 3584  Q 2666 3584 2933 3390  Q 3200 3197 3328 2828  z "
                 id="DejaVuSans-6d"
                 transform="scale(0.015625)" />
              <path
                 d="M 1625 4666  L 2156 4666  L 531 -594  L 0 -594  L 1625 4666  z "
                 id="DejaVuSans-2f"
                 transform="scale(0.015625)" />
              <path
                 d="M 2834 3397  L 2834 2853  Q 2591 2978 2328 3040  Q 2066 3103 1784 3103  Q 1356 3103 1142 2972  Q 928 2841 928 2578  Q 928 2378 1081 2264  Q 1234 2150 1697 2047  L 1894 2003  Q 2506 1872 2764 1633  Q 3022 1394 3022 966  Q 3022 478 2636 193  Q 2250 -91 1575 -91  Q 1294 -91 989 -36  Q 684 19 347 128  L 347 722  Q 666 556 975 473  Q 1284 391 1588 391  Q 1994 391 2212 530  Q 2431 669 2431 922  Q 2431 1156 2273 1281  Q 2116 1406 1581 1522  L 1381 1569  Q 847 1681 609 1914  Q 372 2147 372 2553  Q 372 3047 722 3315  Q 1072 3584 1716 3584  Q 2034 3584 2315 3537  Q 2597 3491 2834 3397  z "
                 id="DejaVuSans-73"
                 transform="scale(0.015625)" />
              <path
                 d="M 1947 4863  L 1947 -844  L 622 -844  L 622 -397  L 1369 -397  L 1369 4416  L 622 4416  L 622 4863  L 1947 4863  z "
                 id="DejaVuSans-5d"
                 transform="scale(0.015625)" />
            </defs>
            <use
               xlink:href="#DejaVuSans-56"
               id="use1465" />
            <use
               x="60.658203"
               xlink:href="#DejaVuSans-65"
               id="use1467" />
            <use
               x="122.181641"
               xlink:href="#DejaVuSans-6c"
               id="use1469" />
            <use
               x="149.964844"
               xlink:href="#DejaVuSans-6f"
               id="use1471" />
            <use
               x="211.146484"
               xlink:href="#DejaVuSans-63"
               id="use1473" />
            <use
               x="266.126953"
               xlink:href="#DejaVuSans-69"
               id="use1475" />
            <use
               x="293.910156"
               xlink:href="#DejaVuSans-74"
               id="use1477" />
            <use
               x="333.119141"
               xlink:href="#DejaVuSans-79"
               id="use1479" />
            <use
               x="392.298828"
               xlink:href="#DejaVuSans-20"
               id="use1481" />
            <use
               x="424.085938"
               xlink:href="#DejaVuSans-5b"
               id="use1483" />
            <use
               x="463.099609"
               xlink:href="#DejaVuSans-6d"
               id="use1485" />
            <use
               x="560.511719"
               xlink:href="#DejaVuSans-2f"
               id="use1487" />
            <use
               x="594.203125"
               xlink:href="#DejaVuSans-73"
               id="use1489" />
            <use
               x="646.302734"
               xlink:href="#DejaVuSans-5d"
               id="use1491" />
          </g>
        </g>
      </g>
      <g
         id="matplotlib.axis_2">
        <g
           id="ytick_1">
          <g
             id="line2d_7">
            <defs
               id="defs1498">
              <path
                 d="M 0 0  L -3.5 0  "
                 id="m40ffd5010f"
                 style="stroke:#000000;stroke-width:0.8;" />
            </defs>
            <g
               id="g1502">
              <use
                 style="stroke:#000000;stroke-width:0.8;"
                 x="57.6"
                 xlink:href="#m40ffd5010f"
                 y="307.584"
                 id="use1500" />
            </g>
          </g>
          <g
             id="text_8">
            <!-- 0 -->
            <g
               transform="translate(44.2375 311.383219)scale(0.1 -0.1)"
               id="g1507">
              <use
                 xlink:href="#DejaVuSans-30"
                 id="use1505" />
            </g>
          </g>
        </g>
        <g
           id="ytick_2">
          <g
             id="line2d_8">
            <g
               id="g1513">
              <use
                 style="stroke:#000000;stroke-width:0.8;"
                 x="57.6"
                 xlink:href="#m40ffd5010f"
                 y="265.00608"
                 id="use1511" />
            </g>
          </g>
          <g
             id="text_9">
            <!-- 20 -->
            <g
               transform="translate(37.875 268.805299)scale(0.1 -0.1)"
               id="g1520">
              <use
                 xlink:href="#DejaVuSans-32"
                 id="use1516" />
              <use
                 x="63.623047"
                 xlink:href="#DejaVuSans-30"
                 id="use1518" />
            </g>
          </g>
        </g>
        <g
           id="ytick_3">
          <g
             id="line2d_9">
            <g
               id="g1526">
              <use
                 style="stroke:#000000;stroke-width:0.8;"
                 x="57.6"
                 xlink:href="#m40ffd5010f"
                 y="222.42816"
                 id="use1524" />
            </g>
          </g>
          <g
             id="text_10">
            <!-- 40 -->
            <g
               transform="translate(37.875 226.227379)scale(0.1 -0.1)"
               id="g1536">
              <defs
                 id="defs1530">
                <path
                   d="M 2419 4116  L 825 1625  L 2419 1625  L 2419 4116  z M 2253 4666  L 3047 4666  L 3047 1625  L 3713 1625  L 3713 1100  L 3047 1100  L 3047 0  L 2419 0  L 2419 1100  L 313 1100  L 313 1709  L 2253 4666  z "
                   id="DejaVuSans-34"
                   transform="scale(0.015625)" />
              </defs>
              <use
                 xlink:href="#DejaVuSans-34"
                 id="use1532" />
              <use
                 x="63.623047"
                 xlink:href="#DejaVuSans-30"
                 id="use1534" />
            </g>
          </g>
        </g>
        <g
           id="ytick_4">
          <g
             id="line2d_10">
            <g
               id="g1542">
              <use
                 style="stroke:#000000;stroke-width:0.8;"
                 x="57.6"
                 xlink:href="#m40ffd5010f"
                 y="179.85024"
                 id="use1540" />
            </g>
          </g>
          <g
             id="text_11">
            <!-- 60 -->
            <g
               transform="translate(37.875 183.649459)scale(0.1 -0.1)"
               id="g1552">
              <defs
                 id="defs1546">
                <path
                   d="M 2113 2584  Q 1688 2584 1439 2293  Q 1191 2003 1191 1497  Q 1191 994 1439 701  Q 1688 409 2113 409  Q 2538 409 2786 701  Q 3034 994 3034 1497  Q 3034 2003 2786 2293  Q 2538 2584 2113 2584  z M 3366 4563  L 3366 3988  Q 3128 4100 2886 4159  Q 2644 4219 2406 4219  Q 1781 4219 1451 3797  Q 1122 3375 1075 2522  Q 1259 2794 1537 2939  Q 1816 3084 2150 3084  Q 2853 3084 3261 2657  Q 3669 2231 3669 1497  Q 3669 778 3244 343  Q 2819 -91 2113 -91  Q 1303 -91 875 529  Q 447 1150 447 2328  Q 447 3434 972 4092  Q 1497 4750 2381 4750  Q 2619 4750 2861 4703  Q 3103 4656 3366 4563  z "
                   id="DejaVuSans-36"
                   transform="scale(0.015625)" />
              </defs>
              <use
                 xlink:href="#DejaVuSans-36"
                 id="use1548" />
              <use
                 x="63.623047"
                 xlink:href="#DejaVuSans-30"
                 id="use1550" />
            </g>
          </g>
        </g>
        <g
           id="ytick_5">
          <g
             id="line2d_11">
            <g
               id="g1558">
              <use
                 style="stroke:#000000;stroke-width:0.8;"
                 x="57.6"
                 xlink:href="#m40ffd5010f"
                 y="137.27232"
                 id="use1556" />
            </g>
          </g>
          <g
             id="text_12">
            <!-- 80 -->
            <g
               transform="translate(37.875 141.071539)scale(0.1 -0.1)"
               id="g1568">
              <defs
                 id="defs1562">
                <path
                   d="M 2034 2216  Q 1584 2216 1326 1975  Q 1069 1734 1069 1313  Q 1069 891 1326 650  Q 1584 409 2034 409  Q 2484 409 2743 651  Q 3003 894 3003 1313  Q 3003 1734 2745 1975  Q 2488 2216 2034 2216  z M 1403 2484  Q 997 2584 770 2862  Q 544 3141 544 3541  Q 544 4100 942 4425  Q 1341 4750 2034 4750  Q 2731 4750 3128 4425  Q 3525 4100 3525 3541  Q 3525 3141 3298 2862  Q 3072 2584 2669 2484  Q 3125 2378 3379 2068  Q 3634 1759 3634 1313  Q 3634 634 3220 271  Q 2806 -91 2034 -91  Q 1263 -91 848 271  Q 434 634 434 1313  Q 434 1759 690 2068  Q 947 2378 1403 2484  z M 1172 3481  Q 1172 3119 1398 2916  Q 1625 2713 2034 2713  Q 2441 2713 2670 2916  Q 2900 3119 2900 3481  Q 2900 3844 2670 4047  Q 2441 4250 2034 4250  Q 1625 4250 1398 4047  Q 1172 3844 1172 3481  z "
                   id="DejaVuSans-38"
                   transform="scale(0.015625)" />
              </defs>
              <use
                 xlink:href="#DejaVuSans-38"
                 id="use1564" />
              <use
                 x="63.623047"
                 xlink:href="#DejaVuSans-30"
                 id="use1566" />
            </g>
          </g>
        </g>
        <g
           id="ytick_6">
          <g
             id="line2d_12">
            <g
               id="g1574">
              <use
                 style="stroke:#000000;stroke-width:0.8;"
                 x="57.6"
                 xlink:href="#m40ffd5010f"
                 y="94.6944"
                 id="use1572" />
            </g>
          </g>
          <g
             id="text_13">
            <!-- 100 -->
            <g
               transform="translate(31.5125 98.493619)scale(0.1 -0.1)"
               id="g1583">
              <use
                 xlink:href="#DejaVuSans-31"
                 id="use1577" />
              <use
                 x="63.623047"
                 xlink:href="#DejaVuSans-30"
                 id="use1579" />
              <use
                 x="127.246094"
                 xlink:href="#DejaVuSans-30"
                 id="use1581" />
            </g>
          </g>
        </g>
        <g
           id="ytick_7">
          <g
             id="line2d_13">
            <g
               id="g1589">
              <use
                 style="stroke:#000000;stroke-width:0.8;"
                 x="57.6"
                 xlink:href="#m40ffd5010f"
                 y="52.11648"
                 id="use1587" />
            </g>
          </g>
          <g
             id="text_14">
            <!-- 120 -->
            <g
               transform="translate(31.5125 55.915699)scale(0.1 -0.1)"
               id="g1598">
              <use
                 xlink:href="#DejaVuSans-31"
                 id="use1592" />
              <use
                 x="63.623047"
                 xlink:href="#DejaVuSans-32"
                 id="use1594" />
              <use
                 x="127.246094"
                 xlink:href="#DejaVuSans-30"
                 id="use1596" />
            </g>
          </g>
        </g>
        <g
           id="text_15">
          <!-- T and D [kN] -->
          <g
             transform="translate(25.432812 206.143625)rotate(-90)scale(0.1 -0.1)"
             id="g1635">
            <defs
               id="defs1609">
              <path
                 d="M -19 4666  L 3928 4666  L 3928 4134  L 2272 4134  L 2272 0  L 1638 0  L 1638 4134  L -19 4134  L -19 4666  z "
                 id="DejaVuSans-54"
                 transform="scale(0.015625)" />
              <path
                 d="M 2194 1759  Q 1497 1759 1228 1600  Q 959 1441 959 1056  Q 959 750 1161 570  Q 1363 391 1709 391  Q 2188 391 2477 730  Q 2766 1069 2766 1631  L 2766 1759  L 2194 1759  z M 3341 1997  L 3341 0  L 2766 0  L 2766 531  Q 2569 213 2275 61  Q 1981 -91 1556 -91  Q 1019 -91 701 211  Q 384 513 384 1019  Q 384 1609 779 1909  Q 1175 2209 1959 2209  L 2766 2209  L 2766 2266  Q 2766 2663 2505 2880  Q 2244 3097 1772 3097  Q 1472 3097 1187 3025  Q 903 2953 641 2809  L 641 3341  Q 956 3463 1253 3523  Q 1550 3584 1831 3584  Q 2591 3584 2966 3190  Q 3341 2797 3341 1997  z "
                 id="DejaVuSans-61"
                 transform="scale(0.015625)" />
              <path
                 d="M 3513 2113  L 3513 0  L 2938 0  L 2938 2094  Q 2938 2591 2744 2837  Q 2550 3084 2163 3084  Q 1697 3084 1428 2787  Q 1159 2491 1159 1978  L 1159 0  L 581 0  L 581 3500  L 1159 3500  L 1159 2956  Q 1366 3272 1645 3428  Q 1925 3584 2291 3584  Q 2894 3584 3203 3211  Q 3513 2838 3513 2113  z "
                 id="DejaVuSans-6e"
                 transform="scale(0.015625)" />
              <path
                 d="M 2906 2969  L 2906 4863  L 3481 4863  L 3481 0  L 2906 0  L 2906 525  Q 2725 213 2448 61  Q 2172 -91 1784 -91  Q 1150 -91 751 415  Q 353 922 353 1747  Q 353 2572 751 3078  Q 1150 3584 1784 3584  Q 2172 3584 2448 3432  Q 2725 3281 2906 2969  z M 947 1747  Q 947 1113 1208 752  Q 1469 391 1925 391  Q 2381 391 2643 752  Q 2906 1113 2906 1747  Q 2906 2381 2643 2742  Q 2381 3103 1925 3103  Q 1469 3103 1208 2742  Q 947 2381 947 1747  z "
                 id="DejaVuSans-64"
                 transform="scale(0.015625)" />
              <path
                 d="M 1259 4147  L 1259 519  L 2022 519  Q 2988 519 3436 956  Q 3884 1394 3884 2338  Q 3884 3275 3436 3711  Q 2988 4147 2022 4147  L 1259 4147  z M 628 4666  L 1925 4666  Q 3281 4666 3915 4102  Q 4550 3538 4550 2338  Q 4550 1131 3912 565  Q 3275 0 1925 0  L 628 0  L 628 4666  z "
                 id="DejaVuSans-44"
                 transform="scale(0.015625)" />
              <path
                 d="M 581 4863  L 1159 4863  L 1159 1991  L 2875 3500  L 3609 3500  L 1753 1863  L 3688 0  L 2938 0  L 1159 1709  L 1159 0  L 581 0  L 581 4863  z "
                 id="DejaVuSans-6b"
                 transform="scale(0.015625)" />
              <path
                 d="M 628 4666  L 1478 4666  L 3547 763  L 3547 4666  L 4159 4666  L 4159 0  L 3309 0  L 1241 3903  L 1241 0  L 628 0  L 628 4666  z "
                 id="DejaVuSans-4e"
                 transform="scale(0.015625)" />
            </defs>
            <use
               xlink:href="#DejaVuSans-54"
               id="use1611" />
            <use
               x="61.083984"
               xlink:href="#DejaVuSans-20"
               id="use1613" />
            <use
               x="92.871094"
               xlink:href="#DejaVuSans-61"
               id="use1615" />
            <use
               x="154.150391"
               xlink:href="#DejaVuSans-6e"
               id="use1617" />
            <use
               x="217.529297"
               xlink:href="#DejaVuSans-64"
               id="use1619" />
            <use
               x="281.005859"
               xlink:href="#DejaVuSans-20"
               id="use1621" />
            <use
               x="312.792969"
               xlink:href="#DejaVuSans-44"
               id="use1623" />
            <use
               x="389.794922"
               xlink:href="#DejaVuSans-20"
               id="use1625" />
            <use
               x="421.582031"
               xlink:href="#DejaVuSans-5b"
               id="use1627" />
            <use
               x="460.595703"
               xlink:href="#DejaVuSans-6b"
               id="use1629" />
            <use
               x="518.505859"
               xlink:href="#DejaVuSans-4e"
               id="use1631" />
            <use
               x="593.310547"
               xlink:href="#DejaVuSans-5d"
               id="use1633" />
          </g>
        </g>
      </g>
      <g
         id="line2d_14">
        <path
           clip-path="url(#p6fa19565ba)"
           d="M 73.832727 171.334656  L 398.487273 171.334656  L 398.487273 171.334656  "
           style="fill:none;stroke:#ff0000;stroke-linecap:square;stroke-width:1.5;"
           id="path1639" />
      </g>
      <g
         id="line2d_15">
        <path
           clip-path="url(#p6fa19565ba)"
           d="M 76.835318 -1  L 77.095587 6.10338  L 78.727017 42.589915  L 80.358447 72.850203  L 81.989877 98.213839  L 83.621307 119.673778  L 85.252736 137.983598  L 86.884166 153.723504  L 88.515596 167.346046  L 90.147026 179.20837  L 91.778456 189.595353  L 93.409886 198.736452  L 95.041316 206.818143  L 96.672746 213.993223  L 98.304175 220.387845  L 99.935605 226.1069  L 101.567035 231.238174  L 103.198465 235.855581  L 104.829895 240.021711  L 106.461325 243.789847  L 108.092755 247.205576  L 109.724185 250.308083  L 111.355614 253.131196  L 112.987044 255.704245  L 114.618474 258.052754  L 117.881334 262.162592  L 121.144194 265.608398  L 124.407053 268.505058  L 127.669913 270.943008  L 130.932773 272.994196  L 134.195633 274.716422  L 137.458492 276.15653  L 140.721352 277.352795  L 143.984212 278.336716  L 147.247072 279.134394  L 150.509931 279.767586  L 155.404221 280.448064  L 160.298511 280.848801  L 165.1928 281.008816  L 170.08709 280.958827  L 174.98138 280.723181  L 181.507099 280.153133  L 188.032819 279.322641  L 194.558538 278.258125  L 201.084258 276.979128  L 207.609977 275.499928  L 214.135697 273.830707  L 222.292846 271.487287  L 230.449995 268.865592  L 238.607145 265.968621  L 246.764294 262.795411  L 254.921444 259.341765  L 263.078593 255.600787  L 271.235742 251.563279  L 279.392892 247.218039  L 285.918611 243.511613  L 292.444331 239.592569  L 298.97005 235.452905  L 305.49577 231.084043  L 312.021489 226.476861  L 318.547209 221.621719  L 325.072928 216.508479  L 331.598648 211.12652  L 338.124367 205.46476  L 344.650087 199.511661  L 351.175806 193.255242  L 357.701526 186.683089  L 364.227245 179.782362  L 370.752965 172.539803  L 377.278684 164.941737  L 383.804404 156.974082  L 390.330123 148.622351  L 396.855843 139.871654  L 398.487273 137.619859  L 398.487273 137.619859  "
           style="fill:none;stroke:#000080;stroke-linecap:square;stroke-width:1.5;"
           id="path1642" />
      </g>
      <g
         id="line2d_16">
        <path
           clip-path="url(#p6fa19565ba)"
           d="M 73.832727 171.334656  L 398.487273 171.334656  L 398.487273 171.334656  "
           style="fill:none;stroke:#ff0000;stroke-linecap:square;stroke-width:1.5;"
           id="path1645" />
      </g>
      <g
         id="line2d_17">
        <path
           clip-path="url(#p6fa19565ba)"
           d="M 99.514906 -1  L 99.935605 4.729495  L 101.567035 24.726451  L 103.198465 42.783086  L 104.829895 59.13746  L 106.461325 73.99223  L 108.092755 87.520778  L 109.724185 99.872132  L 111.355614 111.174955  L 112.987044 121.540789  L 114.618474 131.066713  L 116.249904 139.837532  L 117.881334 147.92759  L 119.512764 155.402279  L 121.144194 162.319298  L 122.775624 168.729711  L 124.407053 174.678842  L 127.669913 185.350264  L 130.932773 194.60735  L 134.195633 202.670123  L 137.458492 209.716999  L 140.721352 215.893847  L 143.984212 221.320838  L 147.247072 226.097663  L 150.509931 230.307564  L 153.772791 234.02046  L 157.035651 237.295412  L 160.298511 240.182561  L 163.56137 242.724682  L 166.82423 244.958426  L 170.08709 246.915329  L 173.34995 248.622624  L 176.61281 250.103916  L 179.875669 251.379726  L 183.138529 252.467951  L 186.401389 253.384241  L 191.295678 254.465838  L 196.189968 255.230543  L 201.084258 255.710998  L 205.978547 255.934272  L 210.872837 255.922862  L 215.767127 255.695488  L 220.661416 255.267728  L 225.555706 254.65253  L 230.449995 253.860622  L 236.975715 252.544912  L 243.501434 250.947214  L 250.027154 249.07998  L 256.552873 246.952215  L 263.078593 244.570048  L 269.604312 241.937177  L 276.130032 239.055233  L 282.655751 235.924064  L 289.181471 232.541971  L 295.70719 228.905892  L 302.23291 225.011565  L 308.75863 220.853647  L 315.284349 216.425824  L 321.810069 211.720897  L 328.335788 206.730854  L 334.861508 201.446935  L 341.387227 195.859676  L 347.912947 189.958962  L 354.438666 183.734055  L 360.964386 177.173633  L 367.490105 170.26581  L 374.015825 162.998164  L 380.541544 155.357755  L 387.067264 147.331143  L 393.592983 138.904402  L 398.487273 132.313115  L 398.487273 132.313115  "
           style="fill:none;stroke:#0080ff;stroke-linecap:square;stroke-width:1.5;"
           id="path1648" />
      </g>
      <g
         id="line2d_18">
        <path
           clip-path="url(#p6fa19565ba)"
           d="M 73.832727 171.334656  L 398.487273 171.334656  L 398.487273 171.334656  "
           style="fill:none;stroke:#ff0000;stroke-linecap:square;stroke-width:1.5;"
           id="path1651" />
      </g>
      <g
         id="line2d_19">
        <path
           clip-path="url(#p6fa19565ba)"
           d="M 121.879055 -1  L 122.775624 6.950312  L 124.407053 20.402758  L 127.669913 44.612271  L 130.932773 65.717833  L 134.195633 84.20621  L 137.458492 100.472151  L 140.721352 114.838448  L 143.984212 127.571066  L 147.247072 138.890704  L 150.509931 148.981695  L 153.772791 157.998939  L 157.035651 166.073335  L 160.298511 173.316087  L 163.56137 179.822128  L 166.82423 185.672878  L 170.08709 190.938464  L 173.34995 195.679528  L 176.61281 199.948711  L 179.875669 203.791866  L 183.138529 207.249066  L 186.401389 210.355439  L 189.664249 213.141868  L 192.927108 215.635574  L 196.189968 217.860611  L 199.452828 219.838282  L 202.715688 221.587494  L 205.978547 223.12506  L 209.241407 224.465955  L 212.504267 225.623539  L 215.767127 226.609748  L 219.029986 227.435257  L 223.924276 228.392839  L 228.818566 229.038293  L 233.712855 229.395542  L 238.607145 229.484905  L 243.501434 229.323631  L 248.395724 228.926344  L 253.290014 228.305403  L 258.184303 227.471214  L 263.078593 226.432482  L 267.972883 225.196429  L 272.867172 223.768975  L 277.761462 222.154893  L 282.655751 220.357941  L 289.181471 217.682357  L 295.70719 214.691226  L 302.23291 211.386913  L 308.75863 207.769847  L 315.284349 203.838763  L 321.810069 199.590889  L 328.335788 195.02211  L 334.861508 190.127103  L 341.387227 184.89945  L 347.912947 179.331734  L 354.438666 173.415624  L 360.964386 167.141939  L 367.490105 160.500713  L 374.015825 153.481241  L 380.541544 146.072126  L 387.067264 138.261318  L 393.592983 130.036141  L 398.487273 123.587369  L 398.487273 123.587369  "
           style="fill:none;stroke:#7dff7a;stroke-linecap:square;stroke-width:1.5;"
           id="path1654" />
      </g>
      <g
         id="line2d_20">
        <path
           clip-path="url(#p6fa19565ba)"
           d="M 73.832727 171.334656  L 398.487273 171.334656  L 398.487273 171.334656  "
           style="fill:none;stroke:#ff0000;stroke-linecap:square;stroke-width:1.5;"
           id="path1657" />
      </g>
      <g
         id="line2d_21">
        <path
           clip-path="url(#p6fa19565ba)"
           d="M 144.28136 -1  L 147.247072 17.513515  L 150.509931 35.78998  L 153.772791 52.189969  L 157.035651 66.944372  L 160.298511 80.249378  L 163.56137 92.27252  L 166.82423 103.157524  L 170.08709 113.02823  L 173.34995 121.991782  L 176.61281 130.141234  L 179.875669 137.557695  L 183.138529 144.312103  L 186.401389 150.466699  L 189.664249 156.076256  L 192.927108 161.189115  L 196.189968 165.848049  L 199.452828 170.091003  L 202.715688 173.951712  L 205.978547 177.460241  L 209.241407 180.643434  L 212.504267 183.525303  L 215.767127 186.127369  L 219.029986 188.468949  L 222.292846 190.567407  L 225.555706 192.438373  L 228.818566 194.095934  L 232.081425 195.552796  L 235.344285 196.820434  L 238.607145 197.909217  L 241.870005 198.82852  L 245.132864 199.586822  L 250.027154 200.438983  L 254.921444 200.968875  L 259.815733 201.196188  L 264.710023 201.137841  L 269.604312 200.808341  L 274.498602 200.220087  L 279.392892 199.383625  L 284.287181 198.307875  L 289.181471 197.000312  L 294.075761 195.467133  L 298.97005 193.71339  L 303.86434 191.743118  L 308.75863 189.559433  L 313.652919 187.164624  L 318.547209 184.560234  L 323.441498 181.747124  L 328.335788 178.725539  L 333.230078 175.495157  L 338.124367 172.055135  L 343.018657 168.404153  L 347.912947 164.540449  L 352.807236 160.461849  L 359.332956 154.684967  L 365.858675 148.514432  L 372.384395 141.942179  L 378.910114 134.959186  L 385.435834 127.555546  L 391.961553 119.720527  L 398.487273 111.442622  L 398.487273 111.442622  "
           style="fill:none;stroke:#ff9400;stroke-linecap:square;stroke-width:1.5;"
           id="path1660" />
      </g>
      <g
         id="line2d_22">
        <path
           clip-path="url(#p6fa19565ba)"
           d="M 73.832727 171.334656  L 398.487273 171.334656  L 398.487273 171.334656  "
           style="fill:none;stroke:#ff0000;stroke-linecap:square;stroke-width:1.5;"
           id="path1663" />
      </g>
      <g
         id="line2d_23">
        <path
           clip-path="url(#p6fa19565ba)"
           d="M 167.145159 -1  L 170.08709 13.184629  L 173.34995 27.559388  L 176.61281 40.681486  L 179.875669 52.677214  L 183.138529 63.657063  L 186.401389 73.71802  L 189.664249 82.945476  L 192.927108 91.414834  L 196.189968 99.192859  L 199.452828 106.338819  L 202.715688 112.905457  L 205.978547 118.939817  L 209.241407 124.483951  L 212.504267 129.575527  L 215.767127 134.248348  L 219.029986 138.532805  L 222.292846 142.456267  L 225.555706 146.043421  L 228.818566 149.316566  L 232.081425 152.29587  L 235.344285 154.999598  L 238.607145 157.44431  L 241.870005 159.645033  L 245.132864 161.615418  L 248.395724 163.367872  L 251.658584 164.91368  L 254.921444 166.263112  L 258.184303 167.425519  L 261.447163 168.409413  L 264.710023 169.222548  L 267.972883 169.871982  L 271.235742 170.364142  L 276.130032 170.820136  L 281.024322 170.952836  L 285.918611 170.777418  L 290.812901 170.306971  L 295.70719 169.552732  L 300.60148 168.524298  L 305.49577 167.2298  L 310.390059 165.676056  L 315.284349 163.868709  L 320.178639 161.812343  L 325.072928 159.510583  L 329.967218 156.966186  L 334.861508 154.18112  L 339.755797 151.156635  L 344.650087 147.893318  L 349.544376 144.391156  L 354.438666 140.649575  L 359.332956 136.667488  L 364.227245 132.443331  L 369.121535 127.975099  L 374.015825 123.260371  L 378.910114 118.296342  L 383.804404 113.079845  L 388.698693 107.60737  L 393.592983 101.87509  L 398.487273 95.878873  L 398.487273 95.878873  "
           style="fill:none;stroke:#800000;stroke-linecap:square;stroke-width:1.5;"
           id="path1666" />
      </g>
      <g
         id="patch_3">
        <path
           d="M 57.6 307.584  L 57.6 41.472  "
           style="fill:none;stroke:#000000;stroke-linecap:square;stroke-linejoin:miter;stroke-width:0.8;"
           id="path1669" />
      </g>
      <g
         id="patch_4">
        <path
           d="M 414.72 307.584  L 414.72 41.472  "
           style="fill:none;stroke:#000000;stroke-linecap:square;stroke-linejoin:miter;stroke-width:0.8;"
           id="path1672" />
      </g>
      <g
         id="patch_5">
        <path
           d="M 57.6 307.584  L 414.72 307.584  "
           style="fill:none;stroke:#000000;stroke-linecap:square;stroke-linejoin:miter;stroke-width:0.8;"
           id="path1675" />
      </g>
      <g
         id="patch_6">
        <path
           d="M 57.6 41.472  L 414.72 41.472  "
           style="fill:none;stroke:#000000;stroke-linecap:square;stroke-linejoin:miter;stroke-width:0.8;"
           id="path1678" />
      </g>
      <g
         id="text_16">
        <!-- h = 0.0 km -->
        <g
           transform="translate(257.803636 84.04992)scale(0.1 -0.1)"
           id="g1706">
          <defs
             id="defs1684">
            <path
               d="M 3513 2113  L 3513 0  L 2938 0  L 2938 2094  Q 2938 2591 2744 2837  Q 2550 3084 2163 3084  Q 1697 3084 1428 2787  Q 1159 2491 1159 1978  L 1159 0  L 581 0  L 581 4863  L 1159 4863  L 1159 2956  Q 1366 3272 1645 3428  Q 1925 3584 2291 3584  Q 2894 3584 3203 3211  Q 3513 2838 3513 2113  z "
               id="DejaVuSans-68"
               transform="scale(0.015625)" />
            <path
               d="M 678 2906  L 4684 2906  L 4684 2381  L 678 2381  L 678 2906  z M 678 1631  L 4684 1631  L 4684 1100  L 678 1100  L 678 1631  z "
               id="DejaVuSans-3d"
               transform="scale(0.015625)" />
            <path
               d="M 684 794  L 1344 794  L 1344 0  L 684 0  L 684 794  z "
               id="DejaVuSans-2e"
               transform="scale(0.015625)" />
          </defs>
          <use
             xlink:href="#DejaVuSans-68"
             id="use1686" />
          <use
             x="63.378906"
             xlink:href="#DejaVuSans-20"
             id="use1688" />
          <use
             x="95.166016"
             xlink:href="#DejaVuSans-3d"
             id="use1690" />
          <use
             x="178.955078"
             xlink:href="#DejaVuSans-20"
             id="use1692" />
          <use
             x="210.742188"
             xlink:href="#DejaVuSans-30"
             id="use1694" />
          <use
             x="274.365234"
             xlink:href="#DejaVuSans-2e"
             id="use1696" />
          <use
             x="306.152344"
             xlink:href="#DejaVuSans-30"
             id="use1698" />
          <use
             x="369.775391"
             xlink:href="#DejaVuSans-20"
             id="use1700" />
          <use
             x="401.5625"
             xlink:href="#DejaVuSans-6b"
             id="use1702" />
          <use
             x="459.472656"
             xlink:href="#DejaVuSans-6d"
             id="use1704" />
        </g>
      </g>
      <g
         id="legend_1">
        <g
           id="patch_7">
          <path
             d="M 332.380938 302.584  L 407.72 302.584  Q 409.72 302.584 409.72 300.584  L 409.72 228.193375  Q 409.72 226.193375 407.72 226.193375  L 332.380938 226.193375  Q 330.380938 226.193375 330.380938 228.193375  L 330.380938 300.584  Q 330.380938 302.584 332.380938 302.584  z "
             style="fill:#ffffff;stroke:#cccccc;stroke-linejoin:miter;"
             id="path1709" />
        </g>
        <g
           id="line2d_24">
          <path
             d="M 334.380938 234.291812  L 354.380938 234.291812  "
             style="fill:none;stroke:#000080;stroke-linecap:square;stroke-width:1.5;"
             id="path1712" />
        </g>
        <g
           id="line2d_25" />
        <g
           id="text_17">
          <!-- n = 1.00 -->
          <g
             transform="translate(362.380938 237.791812)scale(0.1 -0.1)"
             id="g1732">
            <use
               xlink:href="#DejaVuSans-6e"
               id="use1716" />
            <use
               x="63.378906"
               xlink:href="#DejaVuSans-20"
               id="use1718" />
            <use
               x="95.166016"
               xlink:href="#DejaVuSans-3d"
               id="use1720" />
            <use
               x="178.955078"
               xlink:href="#DejaVuSans-20"
               id="use1722" />
            <use
               x="210.742188"
               xlink:href="#DejaVuSans-31"
               id="use1724" />
            <use
               x="274.365234"
               xlink:href="#DejaVuSans-2e"
               id="use1726" />
            <use
               x="306.152344"
               xlink:href="#DejaVuSans-30"
               id="use1728" />
            <use
               x="369.775391"
               xlink:href="#DejaVuSans-30"
               id="use1730" />
          </g>
        </g>
        <g
           id="line2d_26">
          <path
             d="M 334.380938 248.969937  L 354.380938 248.969937  "
             style="fill:none;stroke:#0080ff;stroke-linecap:square;stroke-width:1.5;"
             id="path1735" />
        </g>
        <g
           id="line2d_27" />
        <g
           id="text_18">
          <!-- n = 1.95 -->
          <g
             transform="translate(362.380938 252.469937)scale(0.1 -0.1)"
             id="g1758">
            <defs
               id="defs1740">
              <path
                 d="M 703 97  L 703 672  Q 941 559 1184 500  Q 1428 441 1663 441  Q 2288 441 2617 861  Q 2947 1281 2994 2138  Q 2813 1869 2534 1725  Q 2256 1581 1919 1581  Q 1219 1581 811 2004  Q 403 2428 403 3163  Q 403 3881 828 4315  Q 1253 4750 1959 4750  Q 2769 4750 3195 4129  Q 3622 3509 3622 2328  Q 3622 1225 3098 567  Q 2575 -91 1691 -91  Q 1453 -91 1209 -44  Q 966 3 703 97  z M 1959 2075  Q 2384 2075 2632 2365  Q 2881 2656 2881 3163  Q 2881 3666 2632 3958  Q 2384 4250 1959 4250  Q 1534 4250 1286 3958  Q 1038 3666 1038 3163  Q 1038 2656 1286 2365  Q 1534 2075 1959 2075  z "
                 id="DejaVuSans-39"
                 transform="scale(0.015625)" />
            </defs>
            <use
               xlink:href="#DejaVuSans-6e"
               id="use1742" />
            <use
               x="63.378906"
               xlink:href="#DejaVuSans-20"
               id="use1744" />
            <use
               x="95.166016"
               xlink:href="#DejaVuSans-3d"
               id="use1746" />
            <use
               x="178.955078"
               xlink:href="#DejaVuSans-20"
               id="use1748" />
            <use
               x="210.742188"
               xlink:href="#DejaVuSans-31"
               id="use1750" />
            <use
               x="274.365234"
               xlink:href="#DejaVuSans-2e"
               id="use1752" />
            <use
               x="306.152344"
               xlink:href="#DejaVuSans-39"
               id="use1754" />
            <use
               x="369.775391"
               xlink:href="#DejaVuSans-35"
               id="use1756" />
          </g>
        </g>
        <g
           id="line2d_28">
          <path
             d="M 334.380938 263.648062  L 354.380938 263.648062  "
             style="fill:none;stroke:#7dff7a;stroke-linecap:square;stroke-width:1.5;"
             id="path1761" />
        </g>
        <g
           id="line2d_29" />
        <g
           id="text_19">
          <!-- n = 2.90 -->
          <g
             transform="translate(362.380938 267.148062)scale(0.1 -0.1)"
             id="g1781">
            <use
               xlink:href="#DejaVuSans-6e"
               id="use1765" />
            <use
               x="63.378906"
               xlink:href="#DejaVuSans-20"
               id="use1767" />
            <use
               x="95.166016"
               xlink:href="#DejaVuSans-3d"
               id="use1769" />
            <use
               x="178.955078"
               xlink:href="#DejaVuSans-20"
               id="use1771" />
            <use
               x="210.742188"
               xlink:href="#DejaVuSans-32"
               id="use1773" />
            <use
               x="274.365234"
               xlink:href="#DejaVuSans-2e"
               id="use1775" />
            <use
               x="306.152344"
               xlink:href="#DejaVuSans-39"
               id="use1777" />
            <use
               x="369.775391"
               xlink:href="#DejaVuSans-30"
               id="use1779" />
          </g>
        </g>
        <g
           id="line2d_30">
          <path
             d="M 334.380938 278.326188  L 354.380938 278.326188  "
             style="fill:none;stroke:#ff9400;stroke-linecap:square;stroke-width:1.5;"
             id="path1784" />
        </g>
        <g
           id="line2d_31" />
        <g
           id="text_20">
          <!-- n = 3.85 -->
          <g
             transform="translate(362.380938 281.826188)scale(0.1 -0.1)"
             id="g1804">
            <use
               xlink:href="#DejaVuSans-6e"
               id="use1788" />
            <use
               x="63.378906"
               xlink:href="#DejaVuSans-20"
               id="use1790" />
            <use
               x="95.166016"
               xlink:href="#DejaVuSans-3d"
               id="use1792" />
            <use
               x="178.955078"
               xlink:href="#DejaVuSans-20"
               id="use1794" />
            <use
               x="210.742188"
               xlink:href="#DejaVuSans-33"
               id="use1796" />
            <use
               x="274.365234"
               xlink:href="#DejaVuSans-2e"
               id="use1798" />
            <use
               x="306.152344"
               xlink:href="#DejaVuSans-38"
               id="use1800" />
            <use
               x="369.775391"
               xlink:href="#DejaVuSans-35"
               id="use1802" />
          </g>
        </g>
        <g
           id="line2d_32">
          <path
             d="M 334.380938 293.004312  L 354.380938 293.004312  "
             style="fill:none;stroke:#800000;stroke-linecap:square;stroke-width:1.5;"
             id="path1807" />
        </g>
        <g
           id="line2d_33" />
        <g
           id="text_21">
          <!-- n = 4.80 -->
          <g
             transform="translate(362.380938 296.504312)scale(0.1 -0.1)"
             id="g1827">
            <use
               xlink:href="#DejaVuSans-6e"
               id="use1811" />
            <use
               x="63.378906"
               xlink:href="#DejaVuSans-20"
               id="use1813" />
            <use
               x="95.166016"
               xlink:href="#DejaVuSans-3d"
               id="use1815" />
            <use
               x="178.955078"
               xlink:href="#DejaVuSans-20"
               id="use1817" />
            <use
               x="210.742188"
               xlink:href="#DejaVuSans-34"
               id="use1819" />
            <use
               x="274.365234"
               xlink:href="#DejaVuSans-2e"
               id="use1821" />
            <use
               x="306.152344"
               xlink:href="#DejaVuSans-38"
               id="use1823" />
            <use
               x="369.775391"
               xlink:href="#DejaVuSans-30"
               id="use1825" />
          </g>
        </g>
      </g>
    </g>
  </g>
  <defs
     id="defs1836">
    <clipPath
       id="p6fa19565ba">
      <rect
         height="266.112"
         width="357.12"
         x="57.6"
         y="41.472"
         id="rect1833" />
    </clipPath>
  </defs>
  <rect
     style="fill:none;stroke:#0098e6;stroke-width:1.41732;stroke-opacity:1"
     id="rect1944"
     width="74.387169"
     height="31.880215"
     x="248.11124"
     y="65.146523" />
</svg>
